<?xml version="1.0" standalone="no"?>
<!DOCTYPE svg PUBLIC "-//W3C//DTD SVG 1.1//EN" "http://www.w3.org/Graphics/SVG/1.1/DTD/svg11.dtd" >
<svg xmlns="http://www.w3.org/2000/svg" xmlns:xlink="http://www.w3.org/1999/xlink" version="1.1">
<metadata>
Created by FontForge 20170731 at Fri Jul  8 14:37:18 2011
 By Aleksey,,,
Copyright (c) 2010, Kimberly Geswein (kimberlygeswein.com). This Font Software is licensed under the SIL Open Font License, Version 1.1.  This license available with a FAQ at:  http://scripts.sil.org/OFL
</metadata>
<defs>
<font id="NothingYouCouldDo" horiz-adv-x="608" >
  <font-face 
    font-family="Nothing You Could Do"
    font-weight="400"
    font-stretch="normal"
    units-per-em="1024"
    panose-1="2 0 0 0 0 0 0 0 0 0"
    ascent="819"
    descent="-205"
    x-height="396"
    cap-height="714.5"
    bbox="-345.868 -407 1462.52 959.439"
    underline-thickness="51"
    underline-position="-152"
    unicode-range="U+0020-FB02"
  />
<missing-glyph horiz-adv-x="410" 
 />
    <glyph glyph-name=".notdef" horiz-adv-x="410" 
 />
    <glyph glyph-name=".null" horiz-adv-x="0" 
 />
    <glyph glyph-name="nonmarkingreturn" horiz-adv-x="410" 
 />
    <glyph glyph-name="space" unicode=" " horiz-adv-x="538" 
 />
    <glyph glyph-name="space" unicode="&#xa0;" horiz-adv-x="538" 
 />
    <glyph glyph-name="exclam" unicode="!" horiz-adv-x="266" 
d="M11 23q-8 12 -1.5 26t18.5 23.5t24 10t16 -14.5t0.5 -31t-12 -26t-20.5 -9t-25 21zM68 305q-2 6 2 30t12 58.5t20 76.5t26 84t29 81t29.5 68t28 44t24.5 10q1 -5 -3.5 -33.5t-13.5 -70t-21.5 -91.5t-26 -98t-28.5 -89.5t-29 -66.5t-27 -28t-22 25z" />
    <glyph glyph-name="quotedbl" unicode="&#x22;" horiz-adv-x="284" 
d="M185 409q-2 4 -6.5 12.5t-4.5 9.5v170q19 9 29.5 -1t14.5 -30.5t3 -48.5t-5 -53.5t-9.5 -45t-9.5 -24.5q-2 0 -6.5 4.5t-5.5 6.5zM72 431q-5 14 -7.5 35t-3.5 43.5t-1 44t1 35.5q0 17 7 12.5t15.5 -16.5t15.5 -26t7 -15q1 -13 1 -33.5v-40.5v-34.5t-1 -15.5l-12 -11
q-3 1 -11.5 9.5t-10.5 12.5z" />
    <glyph glyph-name="numbersign" unicode="#" horiz-adv-x="689" 
d="M322 11q-3 19 1 40.5t9 42.5t7 41t-5 35q-7 13 -19.5 12.5t-26.5 -1.5q-28 -4 -41.5 -15.5t-20 -27.5t-8.5 -34.5t-5.5 -36t-11.5 -32.5t-26 -24q-18 12 -21 28.5t0 34.5t7.5 37t2.5 35q-1 0 -11.5 -1.5t-25 -2.5t-31.5 -0.5t-32.5 3t-28 8.5t-17.5 17q-5 9 11.5 15
t43.5 13t59 16.5t57.5 26.5t39 43t3.5 66q-15 1 -45.5 -5t-62 -8.5t-56 3.5t-28.5 33q25 11 52 18t54 13t54.5 11.5t53.5 14.5q5 9 14.5 26.5t20.5 35t22 30.5t18 12.5t9 -19t-4 -63.5q31 -5 50 7t30 31.5t17 41.5t11 37.5t10.5 19.5t17.5 -13q8 -13 8.5 -26.5t-2 -27.5
t-5.5 -28.5t-1 -29.5q25 -3 63 -2.5t72.5 1t57.5 -1t18.5 -7t-45.5 -16.5t-133 -31q-30 -6 -53 -27.5t-35 -46t-10.5 -46t19.5 -27.5q3 -1 22.5 2t46 7t56 7.5t52 2.5t34.5 -8t4 -23t-28.5 -23t-46 -9t-54.5 -2t-53.5 -2t-43 -8.5t-23.5 -22.5q-2 -11 -5.5 -37t-9.5 -54.5
t-16 -54t-25 -35.5q-2 1 -7 5t-5 6zM266 282q-1 -5 -1 -22t1 -22q37 -6 57 3.5t30 29t14.5 46t10.5 56.5q-7 22 -18 25t-23.5 -6.5t-24.5 -26.5t-22.5 -34.5t-17 -31.5t-6.5 -17z" />
    <glyph glyph-name="dollar" unicode="$" horiz-adv-x="474" 
d="M85 11q-4 22 0.5 43.5t10 41t9.5 35.5t-1 26.5t-22 14t-53 -1.5q-12 8 -12 22t12 22q4 0 15 2t24 4t24 3.5t15 2.5q8 2 21 6t14 6l56 158q4 12 -6.5 22t-27 20.5t-35 21.5t-31 24.5t-15 30.5t13.5 39q10 14 30.5 21t43.5 11.5t45.5 9t37.5 14.5q6 4 12.5 19.5t14.5 35.5
t16.5 39.5t18 31t19.5 10.5t21 -23q4 -9 2.5 -20.5t-5.5 -23.5t-7 -24t-1 -22h101q3 0 7 -4.5t5 -6.5v-35q-36 -2 -69.5 -6.5t-58 -18t-36.5 -39.5t-6 -71q75 -27 110 -52t42 -48.5t-9 -44.5t-44.5 -40t-64 -35.5t-67.5 -30t-54.5 -24.5t-25.5 -19l-45 -135q0 -2 -6.5 -8.5
t-14 -11.5t-15 -4.5t-9.5 12.5zM220 248q22 -4 47.5 3.5t49 21.5t43 32t30.5 34q-1 17 -12 30.5t-28 20.5t-37.5 6t-39 -13t-33 -36.5t-20.5 -64.5v-34zM164 486q28 -19 43.5 -16.5t20 15.5t0.5 30t-14.5 27t-26.5 7t-34 -30q-8 -10 -2.5 -19t13.5 -14z" />
    <glyph glyph-name="percent" unicode="%" horiz-adv-x="328" 
d="M23 52q-2 2 -6.5 10.5t-5.5 11.5q29 63 62.5 123t68 119.5t67.5 119.5t62 123q19 6 26 -0.5t8 -18.5t-3 -26t-8 -22q-53 -113 -116.5 -221.5t-120.5 -218.5q-11 -15 -19 -13t-15 13zM226 120q-6 19 4 27t22.5 6t20.5 -13.5t-2 -31.5q-4 -1 -10.5 -2t-13.5 -0.5t-12.5 4
t-8.5 10.5zM23 52q-2 2 -6.5 10.5t-5.5 11.5q29 63 62.5 123t68 119.5t67.5 119.5t62 123q19 6 26 -0.5t8 -18.5t-3 -26t-8 -22q-53 -113 -116.5 -221.5t-120.5 -218.5q-11 -15 -19 -13t-15 13zM226 120q-6 19 4 27t22.5 6t20.5 -13.5t-2 -31.5q-4 -1 -10.5 -2t-13.5 -0.5
t-12.5 4t-8.5 10.5zM66 486q-7 19 3 27t22.5 5.5t20.5 -14t-2 -30.5q-4 -1 -10.5 -2t-13.5 -0.5t-12.5 4t-7.5 10.5q-7 19 3 27t22.5 5.5t20.5 -14t-2 -30.5q-4 -1 -10.5 -2t-13.5 -0.5t-12.5 4t-7.5 10.5z" />
    <glyph glyph-name="ampersand" unicode="&#x26;" horiz-adv-x="384" 
d="M108 -58q-9 9 -8 38t6 63.5t9.5 66.5t3.5 46q-50 12 -73 25t-27.5 27t6 29.5t28 31.5t38.5 33.5t37.5 35.5t25 37.5t0.5 40.5q-24 -5 -51.5 2t-39.5 32q-8 15 9 33.5t41 38.5t46.5 42t27.5 43q15 69 24.5 102t15 40t8 -6t3.5 -37t2 -54t4 -55q15 -7 30 1.5t30.5 20.5
t31.5 21t33 2q5 -23 -5.5 -37.5t-28.5 -25t-39.5 -18t-38 -17.5t-25 -24t0.5 -36q56 5 84 2t35 -12.5t-2.5 -25t-27.5 -34.5t-40.5 -41.5t-42 -46t-31.5 -47t-9 -45.5q6 1 22 1h34h34.5t22.5 -1q29 -2 31.5 -8t-11 -14.5t-37.5 -17.5t-47.5 -17t-41.5 -14t-19 -7
q-14 -21 -15.5 -56t-2.5 -71.5t-7.5 -67.5t-30.5 -43zM98 246q-2 -2 -6.5 -11t-5.5 -12q30 -5 47.5 3t8.5 43q-12 4 -25 -5t-19 -18zM221 404q9 -3 19 2t15 10h-34v-12z" />
    <glyph glyph-name="quotesingle" unicode="'" horiz-adv-x="211" 
d="M69 486q0 1 2.5 10t6 19.5t7.5 21.5t6 17q11 30 18.5 36.5t12 -2t6 -28.5t-0.5 -44.5t-6.5 -49t-12 -42t-17.5 -23.5t-22 6q-1 4 -1.5 15t-0.5 24t0.5 24t1.5 16z" />
    <glyph glyph-name="parenleft" unicode="(" horiz-adv-x="288" 
d="M88 26q-35 43 -48 102.5t-10.5 126.5t18.5 136.5t38.5 132.5t49.5 115t52.5 83t46.5 36.5t31 -23.5q-33 -30 -67 -80.5t-62.5 -113t-48 -132t-24.5 -135.5t8 -125t50 -100q5 -6 20.5 -16t33.5 -22.5t35 -26t25.5 -27t4.5 -25t-28 -19.5q-2 -1 -6 -1t-6 1q-7 6 -23.5 21.5
t-34.5 33.5t-33.5 34.5t-21.5 23.5z" />
    <glyph glyph-name="parenright" unicode=")" horiz-adv-x="248" 
d="M20 -81q-2 2 -2 5.5t2 5.5q83 76 119.5 176t36.5 208.5t-31 217.5t-83 203q-3 8 -1 18.5t13 15.5q56 -45 88 -112.5t46 -146t11.5 -162.5t-16 -161t-35.5 -141t-47.5 -103.5t-52 -48.5t-48.5 25z" />
    <glyph glyph-name="asterisk" unicode="*" horiz-adv-x="559" 
d="M186 79q-3 7 -11.5 -2.5t-18.5 -23t-20 -25.5t-16.5 -11.5t-8 19t6.5 66.5q3 18 -4.5 26t-21 11t-29 3t-27.5 3t-18 10.5t0 25.5q22 4 49.5 5.5t50.5 8t37 21t9 44.5q-2 15 -15 28.5t-26.5 27t-22.5 28t-3 29.5q11 5 22.5 3t22 -8t19 -14t14.5 -15q4 9 10.5 24t14 29.5
t16 25.5t16 12t13.5 -12t9 -45q2 1 6.5 5t5.5 6q2 3 7 11t10 17.5t10 17.5t7 11q22 7 28 -2.5t3 -28.5t-12.5 -44t-19.5 -49t-17 -43t-5 -26q33 -2 65 0t64.5 5.5t65 6t65.5 0.5q6 -12 -11 -20.5t-45 -15.5t-61 -12.5t-60 -11.5t-42.5 -13.5t-6.5 -16.5l102 -113v-23h-35
l-135 124q-2 -19 0.5 -37t5.5 -36.5t5.5 -36.5t-0.5 -37h-34l-34 68v0z" />
    <glyph glyph-name="plus" unicode="+" horiz-adv-x="345" 
d="M181 11q-10 15 -16 34.5t-9 40.5t-5 41t-4 37h-113l-23 28q2 2 11 6t12 5q6 1 22 4.5t34 7.5t34.5 7t22.5 4l23 158q1 6 6 9.5t11 3.5t11 -3t5 -10v-146q6 0 20.5 -1.5t31 -3.5t31 -4t20.5 -3q2 0 11 -4.5t11 -7.5q-11 -17 -28.5 -22t-36.5 -7.5t-35.5 -7t-24.5 -19.5
q-10 -20 -8 -40.5t5.5 -40.5t4 -39.5t-11.5 -37.5q-2 1 -6.5 5t-5.5 6z" />
    <glyph glyph-name="comma" unicode="," horiz-adv-x="181" 
d="M-12 -146q-5 14 4.5 32.5t24 37t29.5 36.5t21 30q9 18 13 36t5 36t1.5 36.5t3.5 38.5q4 28 13.5 20.5t17.5 -34t10.5 -61.5t-7.5 -61q-2 -3 -8 -18t-15.5 -34.5t-22 -41t-26 -38t-27 -25t-26.5 -2.5q-2 1 -6 5.5t-5 6.5z" />
    <glyph glyph-name="hyphen" unicode="-" horiz-adv-x="498" 
d="M29 282q-13 13 1.5 25t46 22t75.5 17t91 11t91.5 3.5t78 -6.5t50 -18t7.5 -31q-11 0 -36.5 -1.5t-54.5 -3.5t-55 -3.5t-36 -2.5q-25 -2 -61 -11.5t-73.5 -16t-71.5 -5.5t-53 21z" />
    <glyph glyph-name="period" unicode="." horiz-adv-x="146" 
d="M34 11q-14 21 -7.5 42.5t22.5 33t35 9t29 -27.5q6 -15 -1.5 -31.5t-21.5 -27t-30 -12t-26 13.5z" />
    <glyph glyph-name="slash" unicode="/" horiz-adv-x="310" 
d="M23 11q-6 38 3.5 91.5t29.5 114t47 124.5t55.5 124t55 112.5t46.5 89.5q11 7 18 3t11 -12.5t5 -19t0 -16.5q-6 -13 -20.5 -45t-30.5 -68t-30.5 -68t-19.5 -45q-5 -10 -14.5 -34.5t-20.5 -51.5t-20.5 -51t-12.5 -33q-5 -14 -12 -42.5t-16 -61t-19 -63t-21 -48.5
q-3 -3 -8 -6.5t-10 -5t-10 1t-6 10.5z" />
    <glyph glyph-name="zero" unicode="0" horiz-adv-x="486" 
d="M68 11q-30 23 -39.5 65.5t-2 95.5t29 112t53 114t70.5 101.5t81.5 75t86 34t83.5 -21.5q30 -20 37 -60t-3 -91.5t-35 -109t-59 -112.5t-74 -102t-80.5 -77t-78.5 -38.5t-69 14.5zM79 45q15 -23 37.5 -20t49 23.5t55 55t56 76t52.5 86.5t44 85.5t31 73t14 49.5
q5 56 -11 74.5t-45.5 9t-68 -42.5t-76.5 -79.5t-72.5 -101.5t-56 -108.5t-26 -101.5t16.5 -79z" />
    <glyph glyph-name="one" unicode="1" horiz-adv-x="277" 
d="M23 11q-15 15 -13 41t11 54t20 52t16 34q3 8 12.5 31.5t22.5 55t27 66.5t27 66.5t22.5 55t12.5 31.5q2 6 5.5 19.5t8.5 28t11 28t14 20t18 3.5t22 -21q1 -1 -7.5 -25.5t-23 -65t-33 -92t-38.5 -105t-39.5 -105t-35 -92t-26 -65.5t-12.5 -26t-10.5 3t-11.5 8z" />
    <glyph glyph-name="two" unicode="2" horiz-adv-x="548" 
d="M34 11q-14 11 -11.5 23t11.5 23q38 45 76 86.5t73 84.5t66.5 89.5t56.5 100.5q13 28 10.5 42t-15 17.5t-31.5 -1t-39.5 -12t-39.5 -15.5t-30.5 -12t-13.5 -1.5t12 16.5q18 21 44.5 37t54 23.5t52 5.5t40 -15.5t17 -39.5t-16.5 -67q-21 -48 -53.5 -89.5t-66.5 -81.5
t-66 -80.5t-51 -87.5q16 -5 49.5 4t75.5 24t87.5 31t87 25t73.5 7t46 -23q2 -2 2 -11.5t-2 -11.5q-30 5 -72 -4.5t-89.5 -25.5t-97 -34.5t-94.5 -30.5t-83 -13t-62 17z" />
    <glyph glyph-name="three" unicode="3" horiz-adv-x="519" 
d="M29 23q-3 4 -6 9t-4.5 9.5t0.5 8.5t10 7q11 3 23.5 1.5t26 -5t26.5 -6.5t25 -2q21 2 60.5 20t84 44.5t87 58.5t68.5 63t28 56.5t-34 40.5q-18 3 -47 -3.5t-61 -16l-64 -19t-56 -12t-36.5 5.5t-6.5 33q13 15 35.5 39t46 51.5t44.5 56.5t32 56l-15.5 -4t-38 -9.5t-47 -9.5
t-43.5 -4t-27.5 6t2.5 21q2 3 20.5 14.5t46 24.5t59 25.5t59 17.5t45.5 0t19 -26t-19.5 -61.5t-71.5 -106.5v-34q80 6 125 -7.5t61.5 -40t8 -61.5t-37 -72t-73 -72.5t-100 -61.5t-118 -39.5t-126.5 -7.5q-2 1 -6 5.5t-5 6.5z" />
    <glyph glyph-name="four" unicode="4" horiz-adv-x="542" 
d="M266 23q-7 34 4 68.5t25 68.5t24.5 67.5t2.5 66.5q-20 3 -46 -3.5t-53.5 -16.5t-55.5 -20t-54 -13.5t-47.5 2.5t-36.5 28q-13 20 -10.5 45.5t15 55t31.5 61.5t38.5 63t36 60t24.5 54q23 6 33.5 0.5t12 -18t-4 -29.5t-13.5 -34t-16 -32t-12 -23q-5 -8 -16 -29t-23.5 -44
t-24 -44t-15.5 -29v-23q24 -3 51 1.5t53.5 12t52 16.5t46.5 15q49 14 78.5 42t49 65.5t33.5 82.5t32 93q23 7 29 -6.5t2 -38.5t-15.5 -57.5t-23 -62.5t-20 -53.5t-7.5 -30.5q17 6 33.5 0.5t23.5 -22.5q-6 -14 -19.5 -19t-28.5 -9t-29.5 -9.5t-23.5 -19.5q-21 -33 -36 -69
t-27 -74t-21 -76.5t-18 -74.5q-7 -2 -19.5 -0.5t-14.5 12.5z" />
    <glyph glyph-name="five" unicode="5" horiz-adv-x="542" 
d="M74 11q-8 2 -17.5 5.5t-18 8.5t-14.5 13t-6 19q0 5 18.5 3.5t42 -5.5t45.5 -7.5t29 -2.5q57 6 108.5 33t89.5 68.5t58.5 94t14.5 109.5q-15 30 -42 37.5t-59 1t-66 -21.5t-63 -30t-49.5 -25.5t-26.5 -6.5q-16 11 -20 22.5t-1.5 24.5t9 26.5t12.5 28.5q1 3 8.5 20.5
t17.5 40t21.5 43.5t20.5 31q18 18 56.5 26t82.5 12t86.5 7t69.5 12q24 8 34 -2t2 -26t-36 -32t-79 -20q-9 0 -31.5 -1.5t-48 -3.5t-48 -3.5t-31.5 -1.5q-9 -7 -20 -19t-20 -26t-14.5 -29t-2.5 -28q23 -5 46.5 0t47 12t48 12t50.5 -1q51 -11 76.5 -38t29.5 -62.5t-11 -76.5
t-44 -80.5t-69 -74.5t-87 -58.5t-98 -32.5t-101 4z" />
    <glyph glyph-name="six" unicode="6" horiz-adv-x="362" 
d="M107 11q-9 3 -20.5 7t-22.5 9t-20 12t-15 18q-7 43 -11.5 85t11.5 84q4 11 22 43t43.5 71t55.5 79.5t57.5 69t49 39.5t31.5 -9q2 -4 2 -17t-2 -16q-16 -15 -39 -36.5t-48.5 -48t-50.5 -56t-43.5 -60t-28 -60t-4.5 -55.5h11q82 43 134.5 56.5t81.5 6.5t37 -29.5
t-0.5 -51.5t-31 -59.5t-54 -53t-69 -32t-76.5 3.5zM107 57q22 -13 47 -9t49 18t44.5 34t32 39.5t12 34.5t-14.5 18q-10 2 -32 -4t-47.5 -17t-50 -26t-40 -30.5t-17.5 -31t17 -26.5z" />
    <glyph glyph-name="seven" unicode="7" horiz-adv-x="480" 
d="M125 23q-1 2 -1 5.5t1 5.5q6 12 22 40.5t34 61t34 61.5t23 41t20.5 31.5t29 42.5t31 47.5t27 48t16.5 44t0 34.5q-46 -12 -85 -21.5t-77 -15.5t-78 -8.5t-88 0.5q-18 12 -7.5 23.5t39 23t71 21.5t89 18t91.5 13.5t80 8t54 1t13 -7.5q-6 -14 -21.5 -47t-37 -77.5
t-47.5 -96t-53.5 -101t-54.5 -93.5t-51 -73t-43.5 -39t-30.5 8z" />
    <glyph glyph-name="eight" unicode="8" horiz-adv-x="498" 
d="M50 11q-22 12 -29.5 31t-5 40t12.5 41.5t22 34.5q8 9 27.5 30t41 44t40.5 44t27 29q9 23 1 44t-22 42.5t-27 43.5t-13.5 45.5t17.5 50t67 56.5q56 35 89 40t55 -10t39 -44.5t43 -63.5q3 -3 10 -6t13.5 -6.5t10.5 -9t1 -13.5q-25 -16 -52.5 -35.5t-54.5 -41t-52 -45
t-45 -47.5q-9 -34 -2.5 -62.5t16 -53t16.5 -46t0 -43t-34.5 -43t-86.5 -46.5q-28 -11 -62 -12t-63 12zM62 45q60 -11 97.5 2t58 37.5t26.5 55.5t2.5 57.5t-14.5 41.5t-23 9q-10 -9 -33 -29t-47 -44.5t-43.5 -50t-23.5 -45.5v-34zM198 384q1 -2 4.5 -7t7 -10.5t6.5 -10.5
t4 -6q2 -1 6 -1t6 1q6 5 22 18t34 27.5t34.5 27.5t22.5 18q5 4 14 12.5t9 10.5v90q0 11 -19 15.5t-46 1.5t-55.5 -15t-47.5 -34.5t-22.5 -56.5t20.5 -81z" />
    <glyph glyph-name="nine" unicode="9" horiz-adv-x="390" 
d="M118 11q-6 35 1.5 58.5t22.5 55.5q6 11 20 40t30.5 61.5t30.5 61.5t20 40v11q-17 6 -33.5 2t-33 -12t-33 -17.5t-33 -15t-34 -5t-36.5 13.5q-27 18 -24 49t26.5 64t63 61t85 39.5t92 1t85.5 -55.5q2 -8 -13 -48t-39.5 -95t-54.5 -115t-58.5 -108t-51.5 -74t-33 -13z
M74 373q-2 -2 -6 -11t-6 -12q30 -8 64.5 0.5t67 26t60.5 41t46 46.5q-10 20 -28.5 23.5t-41 -3.5t-47 -21.5t-46 -31.5t-38.5 -33t-25 -25z" />
    <glyph glyph-name="colon" unicode=":" horiz-adv-x="125" 
d="M28 23q-7 14 -1 22.5t17.5 11.5t23 0t16.5 -12q9 -17 4 -28.5t-16 -15t-24 1.5t-20 20zM39 294q-11 10 -11.5 21.5t5 20t16.5 10.5t24 -7t14.5 -22t-4.5 -22.5t-18 -12t-26 11.5z" />
    <glyph glyph-name="semicolon" unicode=";" horiz-adv-x="175" 
d="M-16 -165q-2 2 -2 6t2 5q28 36 47 64.5t29.5 58.5t13.5 65t0 83q5 3 10.5 0.5t11 -7.5t9 -10l3.5 -5q18 -24 19 -59.5t-8.5 -72.5t-27.5 -70.5t-37.5 -54.5t-38.5 -24t-31 21zM40 343q-2 2 -2 11.5t2 11.5h45v-45q-7 -4 -14 -3t-13 5t-10.5 9.5t-7.5 10.5z" />
    <glyph glyph-name="less" unicode="&#x3c;" horiz-adv-x="464" 
d="M396 11q-81 54 -163 107.5t-154 119.5q-16 14 -32.5 28.5t-26 29.5t-8 31.5t21.5 34.5q9 8 27.5 24.5t42 38t49.5 44.5t49 44.5t41.5 38t27.5 24.5q5 2 14 0t16.5 -6.5t10 -11.5t-5.5 -16l-215 -214q-11 -11 2 -29t34 -36t41.5 -32t24.5 -17q13 -9 46.5 -31.5t71.5 -47.5
t71.5 -47.5t47.5 -30.5q10 -13 12 -25.5t-3.5 -20.5t-16.5 -9t-26 9z" />
    <glyph glyph-name="equal" unicode="=" horiz-adv-x="430" 
d="M23 23q-6 9 7.5 16.5t38 13.5t54.5 11t57 8t46.5 5t22.5 2q8 0 29 0.5t44.5 0.5t44.5 -0.5t29 -0.5q5 -3 9.5 -9t1.5 -13q-37 -5 -85.5 -13t-96.5 -16.5t-90 -16t-67 -11.5q-18 -3 -26 1.5t-19 21.5zM79 248q6 12 29 22t54 16t66.5 8.5t67 -0.5t55.5 -11.5t33 -22.5
q-4 -5 -27 -10t-55.5 -9.5t-70 -7.5t-70 -2.5t-55.5 4.5t-27 13z" />
    <glyph glyph-name="greater" unicode="&#x3e;" horiz-adv-x="345" 
d="M39 23q-10 19 4 43t40 51t58 56t59 57.5t43.5 56t10.5 52.5q-1 2 -19 16.5t-43.5 35.5t-55.5 45.5t-54.5 47.5t-40 42t-13.5 28q1 4 9.5 12.5t12.5 9.5q21 -16 54.5 -37.5t68.5 -46t67 -52t51 -57t20.5 -61t-24.5 -62.5q-8 -10 -23 -28.5t-33.5 -40.5t-38 -45t-37 -43.5
t-30.5 -36t-18 -21.5q-2 -3 -8.5 -9.5l-13.5 -13.5l-13.5 -13.5t-9.5 -8.5q-3 2 -12 10.5t-11 12.5z" />
    <glyph glyph-name="question" unicode="?" horiz-adv-x="548" 
d="M78 26q-8 11 -12.5 22t0.5 24q7 22 14.5 22t13.5 -11.5t9 -29.5t2 -30.5t-7.5 -14.5t-19.5 18zM64 273q-7 26 19 60t69 71.5t96 76.5t102 76t86.5 69.5t48.5 57t-11.5 38.5t-93.5 14h-271q-8 16 -2 30.5t25 14.5h282q25 0 55 -14t51 -36.5t26 -51t-19 -56.5
q-45 -53 -104.5 -92t-119.5 -76t-114.5 -79.5t-90.5 -102.5q-3 -4 -8 -7.5t-10 -4.5t-9.5 1.5t-6.5 10.5z" />
    <glyph glyph-name="at" unicode="@" horiz-adv-x="667" 
d="M170 11q-63 18 -97.5 58t-46 93.5t-3 116.5t32 126t58.5 122.5t76 107t86 78t87.5 36t80.5 -18.5t65 -86q13 -29 21 -61.5t8 -64.5t-9.5 -63.5t-30.5 -58.5q-15 -20 -35 -41.5t-43 -39t-49 -27.5t-54 -6q-11 1 -29 0t-36.5 -2.5t-35 -1.5t-23.5 4q-40 20 -45.5 51
t10.5 62.5t46 60t60.5 44.5t55.5 14.5t30 -28.5q4 -17 0.5 -36.5t-10 -39t-13.5 -38t-10 -33.5q4 -8 9.5 -10t11.5 -1t12.5 4.5t11.5 6.5q70 47 101.5 104.5t22.5 143.5q-5 61 -30.5 86t-62 22.5t-79.5 -29.5t-85 -70t-78 -99t-57.5 -117.5t-24 -124t21.5 -119.5
q21 -50 50.5 -72.5t64.5 -24.5t74 12t78.5 38t79 54t75.5 59.5t67 54t54 37.5q6 -37 -16.5 -74.5t-62.5 -72.5t-92.5 -64t-106 -48.5t-103 -26.5t-83.5 3zM204 373q-2 -4 -2 -17t2 -17q19 -11 33 2t23.5 34.5t14.5 44.5t7 32q-14 8 -27 -0.5t-23.5 -23.5t-18 -31.5
t-9.5 -23.5z" />
    <glyph glyph-name="A" unicode="A" horiz-adv-x="847" 
d="M-78 -185q-3 2 -9.5 9.5t-10.5 15.5t-3.5 14t11.5 6q21 -29 59 -22t82 34.5t89.5 69t82 82.5t60 74t23.5 44q0 3 -8 9.5t-18.5 13.5l-19.5 13t-11 9q3 10 19 15.5t36 10t39.5 9t29.5 11.5q53 77 92.5 138.5t75 121t72.5 122.5t85 142q13 22 21 15t12 -34t5 -68.5t0 -89.5
t-3.5 -98t-5 -92t-4 -72.5t-0.5 -39.5q4 -51 5.5 -88.5t9.5 -69t27.5 -61t59.5 -64.5q-33 -11 -54.5 1.5t-35 38t-22 59t-16 65t-17 55t-25.5 30.5q-1 0 -5.5 0.5t-10 0.5t-10.5 -0.5t-7 -0.5q-9 -2 -33.5 -8t-53.5 -13t-55.5 -14t-38.5 -10q-25 -7 -52.5 -32t-58 -60.5
t-63 -77.5t-66.5 -82t-69 -74t-70 -55t-70.5 -23.5t-69.5 20.5zM464 255q2 -1 10.5 -1t11.5 1q18 3 45 7t54 9.5t50 13t32 16.5l3 21t7 53.5t8.5 72t8.5 77.5t6.5 70.5t3.5 50.5q-11 5 -29 -25.5t-46.5 -83.5t-69 -123.5t-95.5 -146.5v-12z" />
    <glyph glyph-name="B" unicode="B" horiz-adv-x="718" 
d="M74 3q-30 17 -42 33t-12 34t9 40t21 51q3 6 12 24.5t20.5 43.5t25 52.5t25 52.5t20 43.5t11.5 24.5q13 28 11.5 49.5t-5 40.5t-3 37t18.5 41q3 3 13 14t21.5 23.5t21.5 23t12 13.5q5 6 28.5 20t57.5 30.5t75.5 34t82.5 31t79 20.5t65 4t39.5 -19t3.5 -49
q-15 -54 -48.5 -95t-70.5 -73t-70.5 -57t-49.5 -47q120 -4 175.5 -29t63 -63t-24.5 -84.5t-88 -92t-127 -86t-141.5 -66.5t-132 -33t-97.5 13zM153 245q-19 -23 -35 -50.5t-24.5 -54t-7.5 -50t15 -38t42.5 -17.5t76.5 11q106 24 184.5 61t130 77.5t76 80.5t23 70.5t-29 46.5
t-79.5 9.5t-128.5 -41t-176.5 -105.5q-11 -9 -20 -8.5t-17 4t-15 6.5t-15 -2zM175 329q0 -3 -0.5 -9t-0.5 -12.5t0.5 -12.5t0.5 -9q8 2 33 19t60.5 44t77.5 61.5t84.5 72t81 75t66.5 70.5t42.5 58.5t8.5 39.5q-44 6 -92.5 -5.5t-95 -33.5t-86.5 -50.5t-67 -55.5
q-6 -13 -20 -46t-30.5 -70t-31 -69.5t-20.5 -45.5q0 -2 -5 -10.5t-6 -10.5z" />
    <glyph glyph-name="C" unicode="C" horiz-adv-x="633" 
d="M107 11q-61 24 -84 65t-18.5 91.5t32 108t68 115.5t89.5 113t97 101t90 80t68 50q36 22 60 21.5t38.5 -15t20 -40t5 -54t-6 -57t-14 -49.5t-18 -31t-18.5 -1q-1 8 2 24.5t7.5 37.5t8.5 43t5.5 40.5t-1 31.5t-11.5 15q-35 9 -83.5 -16.5t-101 -73t-104 -110t-93.5 -128.5
t-69 -128.5t-30.5 -110t21 -73t86.5 -16.5q57 8 105.5 40.5t94 72t90.5 78t94 58.5q18 7 28.5 -5t5.5 -29q-6 -17 -35.5 -45t-73 -58.5t-95.5 -61t-101.5 -52.5t-92 -32t-66.5 0z" />
    <glyph glyph-name="D" unicode="D" horiz-adv-x="823" 
d="M23 11q-5 15 2 26.5t21 19.5q62 31 121 52.5t116.5 43t114.5 48t116 68.5q131 76 201 142t93 119.5t6 94t-59 65.5t-102.5 33.5t-125.5 -1.5t-127 -39.5t-107 -81.5q-1 -2 -3 -7t-3.5 -10.5l-3 -11t-1.5 -6.5q-30 -72 -56.5 -123.5t-50 -99t-44.5 -101t-40 -129.5
q-18 -6 -25.5 1t-8.5 21.5t3.5 33.5t10.5 37t12 33t8 21q8 23 25 59.5t36 76.5t36 77t26 60q-9 29 -3.5 51.5t19.5 41t34 34t40 30.5q57 42 123 65t134.5 25.5t136.5 -17.5t128 -65q48 -40 56.5 -87t-13.5 -96.5t-68.5 -100.5t-108.5 -100t-134.5 -94.5t-145 -84t-141 -68
t-122 -46.5t-87.5 -20.5t-39 10.5z" />
    <glyph glyph-name="E" unicode="E" horiz-adv-x="746" 
d="M18 23q-6 5 3 11q10 36 20.5 69t22.5 65.5t25.5 66t28.5 70.5q5 9 -1.5 18.5t-15 19t-12 20t7.5 21.5q1 1 7.5 3t14.5 3.5t14.5 3t8.5 2.5q3 2 11.5 10.5t10.5 11.5q16 27 30.5 48t27 42t22.5 44t18 54q3 12 -5.5 15.5t-19.5 6.5t-18 9.5t-1 24.5q4 11 38.5 24t87.5 25
t119 22t132 16t126 7.5t102 -4t60 -19t-1 -37.5q-9 -2 -18.5 -0.5t-19.5 4.5t-21 5.5t-21 1.5q-48 -4 -94 -3t-92 1t-92 -3.5t-92 -16.5q-32 -9 -57 -31.5t-47.5 -57t-45 -79.5t-50.5 -99q11 -3 41.5 4t70 17.5t83.5 21t82.5 15t67.5 0t39 -23.5q1 -2 1 -6t-1 -5
q-53 -8 -109.5 -14.5t-112 -16.5t-108.5 -26.5t-100 -44.5q-38 -67 -68 -138t-53 -144q29 10 67.5 19.5t74 17.5t62 13t31.5 6q85 13 163.5 20.5t163.5 2.5q7 -2 10 -8t4 -13.5t0 -14.5t-2 -10q-109 6 -216.5 -8t-213.5 -37q-17 -4 -41.5 -14t-50 -18t-49 -11t-39.5 8
q-4 2 -7 5t-4 8z" />
    <glyph glyph-name="F" unicode="F" horiz-adv-x="744" 
d="M18 11q-5 14 -2.5 28.5t8.5 29.5t13.5 29t12.5 27q5 10 16.5 35.5t24 54t23.5 54.5t16 36q6 12 -1.5 21.5t-16 18.5t-13 18t7.5 21q7 7 18 9t23 3.5t22 5.5t16 16l114 216q-7 27 -4.5 45t12 31t25 24t35.5 25q103 16 202.5 27t204.5 6q6 -1 15 -8.5t15 -17t5.5 -18.5
t-13.5 -12q-1 0 -6 1.5t-11 3.5t-11 4t-6 2q-80 0 -139 -2t-102.5 -8.5t-75 -19.5t-56 -35.5t-46 -56.5t-44.5 -83q-11 -21 -20 -40q-8 -17 -13 -33.5t-1 -27.5q56 -10 113.5 2t115.5 29t116.5 30.5t117.5 6.5v-23q0 -2 -37 -8.5t-94.5 -18t-126 -28t-131.5 -38.5t-111 -50
t-65 -61q-32 -65 -61 -133.5t-53 -137.5q-6 -9 -16.5 -11t-15.5 11z" />
    <glyph glyph-name="G" unicode="G" 
d="M74 11q-44 33 -60 81t-10 104.5t30 118t59.5 120.5t80 112.5t91 94t92 65t83.5 26.5q18 5 36.5 -1t33.5 -18.5t25 -29.5t13 -33.5t-4 -31t-26 -21.5q-3 -2 -9.5 -2t-6.5 2v79q0 2 -5 4.5t-11.5 4t-13 2.5t-10.5 0q-99 -25 -169.5 -84t-117.5 -140q-67 -117 -97.5 -195
t-34 -124t16.5 -64.5t54 -16.5t79 20.5t91.5 46t90.5 61t77 64.5t50.5 56.5t11.5 37.5q-16 3 -35 -1.5t-33 -9.5q-9 -3 -33.5 -11t-51.5 -17l-51 -17t-33 -12q-14 -5 -23.5 2.5t-13 19t-0.5 22t14 13.5q16 3 56.5 17.5t91.5 32t105 34.5t95 25t62.5 2.5t8.5 -32.5
q-9 -10 -33 -34.5t-51 -51.5t-51.5 -51t-34.5 -33q-4 -3 -22.5 -19t-42 -35.5t-46.5 -39t-36 -29.5q-13 -11 -33 -28t-44.5 -34.5t-51.5 -33t-54 -24.5t-52.5 -9t-46.5 15z" />
    <glyph glyph-name="H" unicode="H" horiz-adv-x="709" 
d="M34 11q-10 15 -7.5 48t13 74.5t26.5 87t32 87t29.5 74.5t19.5 48q7 15 18.5 42.5t25 60t28.5 68.5t28.5 69t25 60t18.5 43q22 7 29 -1.5t4 -28.5t-14 -48.5t-25.5 -61t-30 -66.5t-28 -64.5t-19 -55.5t-3.5 -40q18 -2 41.5 0t48 6t48.5 9t42 8q91 15 145.5 43t91 71.5
t63.5 104.5t62 142q9 17 16 14.5t11.5 -14t6.5 -25.5t0 -20q-1 -3 -6 -13t-11 -21.5t-11 -21t-6 -12.5q-2 -4 -5 -13.5t-7 -20.5t-7 -20.5t-4 -13.5q5 -1 13.5 -9.5t9.5 -13.5q3 -17 -11 -38.5t-34.5 -44.5t-40 -45t-26.5 -41q-41 -100 -70.5 -200t-43.5 -207q-3 -5 -9 -10
t-13 -1q-2 22 3.5 60.5t14.5 84t20 92.5t20.5 86.5t15.5 65.5t5 29q-21 4 -54 1.5t-72 -9t-81 -15.5t-81.5 -19.5t-73.5 -20t-56 -16.5q-17 -38 -28 -83.5t-22.5 -91.5t-25.5 -88.5t-37 -75.5q-2 1 -6.5 5t-5.5 6z" />
    <glyph glyph-name="I" unicode="I" horiz-adv-x="220" 
d="M11 34q-2 7 -0.5 19.5t4 25.5t5.5 23t3 11l226 588q7 18 13 13.5t9.5 -19t3.5 -33t-4 -29.5q-32 -76 -64.5 -152.5t-62 -154t-55.5 -156t-44 -159.5q-8 -5 -13.5 -4t-10 5.5t-7 10.5t-3.5 11z" />
    <glyph glyph-name="J" unicode="J" horiz-adv-x="622" 
d="M85 11q-10 5 -23.5 20t-25.5 34t-21.5 40.5t-12 40t3 31t23.5 15.5q1 -14 3 -36t9 -43t20 -37.5t36 -18.5q65 -5 112.5 21.5t82.5 72.5t59 105.5t42.5 121.5t33.5 120t31 101q10 37 -1 49.5t-35 10.5t-56.5 -13.5t-64.5 -23t-60 -17t-43 4.5q-21 14 -14 27.5t33 26
t67.5 23.5t89 21t97 18.5t92.5 14.5t75.5 10t45.5 6q17 2 47 5.5t61 7.5t55 6.5t29 2.5q19 1 47.5 2t55.5 1t47 -1t20 -2l11 -33q-27 -2 -73 -3.5t-101 -4.5t-114 -8.5t-110 -15t-90 -24t-55 -35.5q-8 -23 -19 -68t-27 -102.5t-36.5 -122t-46 -125.5t-56.5 -113.5t-68.5 -86
t-81 -43t-94.5 16.5z" />
    <glyph glyph-name="K" unicode="K" horiz-adv-x="795" 
d="M712 -92q-32 51 -63.5 93t-65.5 81.5t-71.5 79.5t-81.5 85q-63 66 -104.5 98t-69 37t-45.5 -15.5t-35 -60t-36 -95.5t-49 -122q-10 -21 -22.5 -48.5t-34.5 -42.5q-17 -11 -15 10.5t16 61.5t35.5 90.5t42.5 97.5t37 81.5t20 42.5q24 57 49 104.5t49.5 93.5t48 94t43.5 106
q9 6 16 3.5t12 -8.5t6.5 -14.5t-0.5 -14.5q-6 -12 -18.5 -37.5t-26 -53t-25.5 -53t-18 -38.5q-2 -5 -8 -20.5t-4 -25.5q29 -6 72.5 5t94 32t105 48.5t104 54.5t90 50.5t65.5 35.5q24 12 25 4t-10.5 -24t-29 -33.5t-30.5 -24.5q-10 -6 -30 -16.5t-42 -21t-40 -19.5t-24 -11
q-27 -12 -68 -27t-85.5 -32t-88 -36.5t-74.5 -40.5q-8 -6 -14 -12q-5 -5 -8.5 -11t0.5 -11q15 -9 46 -36t70 -64t82.5 -82t84.5 -91t75 -90t54.5 -79.5t23.5 -59.5t-19 -29q-2 1 -5.5 5t-5.5 6z" />
    <glyph glyph-name="L" unicode="L" horiz-adv-x="701" 
d="M29 11q-16 11 -13 33t14 45q11 26 32 57q32 61 57.5 109.5t47.5 91.5t42 83t40.5 84t42.5 94t49 114q2 4 6.5 11.5t11 12t13.5 3t14 -14.5q10 -20 1.5 -55t-29.5 -80.5t-50 -98t-61 -106.5t-63 -107t-54.5 -99t-36 -83.5t-8.5 -59.5q71 -7 143 1t144 19.5t144.5 20.5
t144.5 4q13 2 22 -9t1 -24q-2 0 -8.5 0.5t-13.5 0.5t-13.5 -0.5t-9.5 -0.5q-56 -5 -131 -17.5t-155 -23.5t-159.5 -17t-143.5 1q-1 0 -9.5 4.5t-11.5 6.5z" />
    <glyph glyph-name="M" unicode="M" horiz-adv-x="1014" 
d="M756 -67q-1 1 -1 5.5t1 6.5t4 12t7 21t7 21t4 13q29 93 51 166.5t42 143.5t39.5 144.5t43.5 169.5v22q-29 10 -62.5 -2t-68.5 -39t-71 -64.5t-70 -79t-66 -82t-59 -74t-48.5 -55t-34.5 -24.5q-9 -2 -22 2.5t-13 9.5v68q3 11 8.5 35t12 54t14 63t14 63t11.5 53.5t8 35.5
q5 23 9.5 45t1.5 46q-30 10 -64 -15.5t-69.5 -74.5t-71.5 -114t-70 -134t-65.5 -136t-57.5 -118.5t-45.5 -82t-30.5 -26.5q-14 4 -10.5 33t19.5 73.5t41 101t54.5 116.5t60.5 120t59 111t49.5 89.5t31.5 56.5q21 -8 37 -5.5t30 10.5t27.5 19t30.5 21q36 22 57 19t30.5 -22
t9.5 -51.5t-5 -70.5t-13.5 -77.5t-16.5 -73t-13.5 -57t-4.5 -29.5q8 -4 13.5 1t9.5 10q3 5 14.5 19t26.5 32.5t32 39.5t32.5 39.5t26.5 32.5t15 19q87 69 147.5 102.5t98 37.5t54.5 -18t18 -62.5t-12 -97t-35 -121.5q-3 -9 -11.5 -37.5t-20.5 -67t-24.5 -81.5t-24.5 -81.5
t-20.5 -67t-11.5 -37.5q0 -1 -2 -13t-6.5 -28.5t-10.5 -35t-15 -33.5t-20.5 -23t-25.5 -3q-1 0 -5 4.5t-5 6.5z" />
    <glyph glyph-name="N" unicode="N" horiz-adv-x="830" 
d="M11 23q7 31 24.5 69t38.5 75t41 70.5t32 56.5q6 12 18.5 36.5t28 56t33 65.5t33 65.5t28 56t18.5 36.5q31 32 51.5 18t36.5 -57t29 -106t28 -129t34 -126t46 -97q13 -6 31.5 13t40.5 55.5t46 85.5t48.5 103t47.5 109t43 101.5t34.5 81.5t22.5 49q7 13 14.5 12.5t12.5 -8
t7.5 -19t-0.5 -20.5q-32 -87 -60 -157t-57.5 -135t-63 -132.5t-76.5 -149.5q-32 -39 -62 -43.5t-62 43.5q-33 58 -52 110t-32.5 102.5t-24.5 103t-27 113.5q-9 6 -30 -21t-48.5 -72t-57.5 -101t-57 -108t-48 -93t-30 -57q-5 -9 -12.5 -22l-15 -26t-13 -22l-5.5 -9h-34
q-1 2 -1 11t1 12z" />
    <glyph glyph-name="O" unicode="O" horiz-adv-x="527" 
d="M97 11q-50 21 -66 58.5t-11 81t24.5 87.5t40.5 78q7 12 26 41t40.5 61.5t41 61t27.5 39.5q12 77 48 122.5t81.5 62.5t93.5 7.5t84 -43t52 -89.5t-2.5 -131t-78.5 -168t-176 -201q-20 -19 -47.5 -36.5t-58 -28.5t-61.5 -13t-58 10zM62 90q10 -45 38 -56t66 4t83 51
t90 84.5t86 105.5t71.5 113t46.5 107t10.5 88.5t-36 56.5t-93.5 11q-23 -20 -61 -58.5t-81 -87.5t-86 -105.5t-76 -112.5t-50 -108t-8 -93z" />
    <glyph glyph-name="P" unicode="P" 
d="M23 23q-8 16 -1 44t20.5 58t28.5 58t23 46q3 6 4.5 10t3 9t3.5 11t7 17q6 13 19.5 40.5t30.5 62t35.5 72.5t35 72.5t30 62t19.5 40.5v23q-18 3 -35 -2t-32.5 -14t-30 -20.5t-26.5 -20.5q-14 3 -16 13t2 21t11.5 20.5t13.5 13.5q104 65 223 86.5t241 3.5q74 -37 101 -78.5
t19.5 -84.5t-44 -85t-90 -80.5t-118 -71.5t-128 -57t-120.5 -37.5t-95 -13.5q-19 -30 -31 -49.5t-19 -34t-11.5 -27t-9 -28t-11.5 -37.5t-19 -55l-11 -11q-4 2 -12.5 10.5t-10.5 12.5zM192 299q42 -7 89 2.5t93.5 27.5t89.5 40.5t78 41.5q84 47 125.5 91.5t50.5 83
t-8.5 68.5t-52 48.5t-80 23.5t-92 -7t-88.5 -43t-70 -84q-10 -19 -24 -46.5t-29 -57.5t-30 -59.5t-26.5 -53t-18.5 -38.5t-7 -16v-22z" />
    <glyph glyph-name="Q" unicode="Q" horiz-adv-x="593" 
d="M448 -164q-13 16 -22 43.5t-18.5 55t-21 50.5t-28.5 31q-6 4 -21.5 -1.5t-36.5 -13t-46.5 -14t-52.5 -5t-53.5 14t-49.5 42.5q-30 40 -31 92t18 108t51.5 113.5t69 109.5t71.5 94.5t58 69.5q16 19 34.5 43t40 47t45.5 41.5t50 27.5q8 3 15 -3t13 -14.5t10.5 -16.5
t6.5 -11q45 -55 63.5 -119.5t14.5 -131.5t-27.5 -133t-61.5 -124q-3 -6 -18.5 -26t-32.5 -42.5t-32.5 -42.5t-18.5 -25q-17 -24 -19 -48t4 -47.5t17 -46.5t20.5 -45t14 -43t-2.5 -41q-8 -4 -13.5 1t-9.5 10zM155 28q42 -28 75 -25t58 26t42 60.5t28 77t16 75.5t6 57
q1 1 7.5 1t14 -0.5t13 -3.5t5.5 -8v-113q34 25 63 62t50.5 80t34.5 88t16 86q6 106 -11.5 154t-50.5 51.5t-77 -29.5t-90.5 -89t-90.5 -127t-77.5 -142.5t-52 -137t-13.5 -109.5q1 -2 6 -7t10 -10.5t10 -10.5t8 -6z" />
    <glyph glyph-name="R" unicode="R" horiz-adv-x="687" 
d="M18 11q-8 23 9 71.5t46.5 110t66 127.5t67 123.5t50 98t15.5 51.5q-12 4 -25.5 -3l-27 -14t-26.5 -8t-23 14q-5 7 -3.5 13.5t6 12.5t10 10.5t9.5 7.5q114 75 216.5 117t184 57t137 6t76.5 -36.5t2.5 -71t-85 -97.5t-187 -115.5t-302.5 -125.5q-10 -16 5.5 -36t46 -43.5
t72 -48.5t84 -50.5t81 -50t63.5 -46.5t32.5 -41t-13.5 -33q-1 -1 -12.5 7.5t-28.5 22t-36.5 29.5t-37 30l-30 24t-14.5 12q-60 38 -120 75t-117 83q-19 6 -38 -20t-37 -66.5t-35.5 -86t-32.5 -79t-27 -46t-21 14.5zM256 428q22 -7 59.5 1t83 27t95 46t94.5 56.5t82.5 59.5
t58.5 55.5t22.5 43.5t-24.5 23q-108 2 -184 -10.5t-130 -46.5t-91 -93t-66 -150v-12z" />
    <glyph glyph-name="S" unicode="S" horiz-adv-x="614" 
d="M91 11q-5 2 -23.5 11t-34.5 21t-22.5 25t12.5 22q11 -10 30.5 -24t37.5 -21q55 -3 107 -0.5t101.5 13t96 32t90.5 56.5q49 41 64.5 75.5t6 64t-39 55t-70 48t-86.5 42t-88 38t-76 36.5t-50 37q-4 17 17 40t58 47.5t85 49t98.5 44.5t98 34t83.5 17.5t55 -5.5t13 -34
q-7 -1 -36 -9t-70.5 -20t-90 -28t-95.5 -33.5t-87 -35.5t-63 -35t-25.5 -31t26.5 -24q146 -44 229.5 -93.5t117.5 -100t26 -99.5t-43.5 -91t-92.5 -74.5t-120.5 -50.5t-127 -19t-112.5 20z" />
    <glyph glyph-name="T" unicode="T" horiz-adv-x="558" 
d="M175 11q-6 25 0.5 57.5t18.5 65.5t26 63.5t23 50.5q5 12 15.5 35t24 52t28 61t28 61t24 51.5t15.5 33.5q-17 3 -48.5 -3t-69.5 -15.5l-78 -19.5t-74.5 -14.5t-59 -1t-30.5 20.5q7 13 51 30t112.5 35.5t153 37.5t172.5 36t172 31t150 23t106.5 12t42.5 -2q3 -8 1 -19.5
t-13 -14.5q-49 -8 -106 -17.5t-115.5 -20t-114.5 -21t-104 -20.5q-31 -6 -60 -36t-56 -74.5t-52 -99t-47.5 -110.5t-41.5 -108t-35 -91.5t-28 -61.5t-20 -18l-6 6z" />
    <glyph glyph-name="U" unicode="U" 
d="M91 11q-36 29 -49 75t-9 102t21 117.5t40.5 121t50 113.5t49 95t38 65t17.5 23q8 -4 11 -10.5t3.5 -14.5t-0.5 -16t-2 -15q-1 -2 -6 -11.5t-6 -11.5q-78 -171 -117 -286.5t-48 -184.5t8.5 -96.5t53 -22t85 39t105 86.5t112.5 121t108.5 142t92 149t63.5 143q2 2 5.5 6.5
t5.5 4.5q28 -19 21 -64.5t-38.5 -106.5t-83 -132t-112 -140t-124.5 -130.5t-122 -103.5t-103.5 -59.5t-69.5 1.5z" />
    <glyph glyph-name="V" unicode="V" horiz-adv-x="560" 
d="M79 34q-18 28 -30.5 79t-18 113t-4 128.5t11.5 125.5t28.5 103t46.5 61q6 -4 3.5 -36.5t-9.5 -82t-15.5 -109.5t-15 -119t-8 -110.5t7 -85t28 -42t55.5 19.5q82 65 159.5 143.5t145.5 150.5q83 88 158 177t147 185q9 13 18.5 14t16.5 -6t10 -18.5t0 -23.5
q-7 -8 -22 -24.5t-34 -38t-40 -45t-40 -44.5t-34 -38t-22 -25q-18 -20 -47 -55.5t-65 -79t-77 -91t-83.5 -91t-83.5 -80t-77 -57t-64.5 -22t-45.5 23.5z" />
    <glyph glyph-name="W" unicode="W" horiz-adv-x="702" 
d="M46 11q-13 19 -19.5 63t-8 102t1.5 126t9 135t15.5 129t20.5 108.5t23 72.5t25 22q2 -2 6.5 -6t5.5 -6q1 -11 -2 -41.5t-8.5 -73t-12 -93.5t-13.5 -103.5t-13 -102t-9.5 -89t-3.5 -65.5t5 -31l11 -12q15 7 31 36.5t32.5 72t34 93.5t35 100.5t34.5 93.5t34 72t33 35.5
t30.5 -15t28 -79.5t24.5 -159q0 -5 5 -31.5t12.5 -61t17.5 -70t21 -59t23 -28t23 23.5q3 8 13.5 34t24.5 61t29.5 74t29.5 74t24.5 61t14.5 35q4 10 13 36t22.5 58.5t30.5 67.5t36 62.5t39.5 42.5t41.5 8q2 0 6 -4.5t4 -6.5q-62 -80 -102.5 -160t-71 -163.5t-58 -170
t-63.5 -177.5q-15 -39 -31.5 -45t-32.5 11.5t-31.5 52.5t-29.5 78.5t-26 89.5t-21 85.5t-14.5 67l-6.5 32.5q-2 8 -3.5 19t-3.5 22q-2 12 -4 27h-11q-1 0 -12 -20.5t-25.5 -49t-29.5 -59.5t-24 -51q-5 -10 -15.5 -46.5t-25.5 -83.5t-32.5 -96t-36 -84.5t-37 -49.5t-33.5 9z
" />
    <glyph glyph-name="X" unicode="X" horiz-adv-x="537" 
d="M464 34q-6 8 -20.5 30t-33 51t-39 60t-38.5 56t-32 39.5t-19 11.5q-62 -58 -112 -120t-102 -128q-14 -18 -24.5 -20t-15 5.5t-3.5 21t9 27.5q12 20 34.5 45.5t48.5 54t52 58t46 58t30 54t4 46.5q-4 8 -13.5 27.5t-20 41t-20.5 40.5t-14 26q-2 3 -8.5 14.5t-14.5 25
t-14.5 25.5t-7.5 15q-2 2 -2 11t2 12q10 8 24 -6.5t29.5 -40t32 -57t32 -58t29 -42.5t23.5 -11q1 3 6 9t10 13.5t10 13.5t7 9q7 9 20 34t30.5 49.5t39.5 41t46 10.5q18 -4 12.5 -21.5t-23 -41.5t-43 -53t-47.5 -56t-36.5 -50.5t-9.5 -36.5q6 -16 23.5 -43.5t39 -60.5t44 -68
t40.5 -66t28 -55.5t6 -34.5q-2 -1 -6 -1t-5 1q-2 1 -6.5 5t-10 9.5t-10.5 11t-7 8.5z" />
    <glyph glyph-name="Y" unicode="Y" horiz-adv-x="402" 
d="M56 -128q-12 30 -3 63t29 69.5t47 75.5t51 80.5t40 85.5t16 89q-4 9 -18 30.5t-33 50l-41 61.5t-42.5 64.5t-37 60t-24.5 47.5t-5 26.5t21 -1.5q14 -13 35 -41.5t43.5 -64t46 -73t43.5 -67t35 -47t22 -12.5q10 20 29.5 63.5t42.5 95t47.5 103t46 87.5t38 48.5t22.5 -13.5
q4 -15 -9 -52.5t-37 -90t-56.5 -117t-68 -133.5t-71 -138.5t-66.5 -133t-54 -116.5t-33 -89q-3 -10 -9.5 -19.5t-14.5 -13.5t-16.5 0.5t-15.5 21.5z" />
    <glyph glyph-name="Z" unicode="Z" horiz-adv-x="842" 
d="M29 11q-19 14 0 46t61.5 76.5t102.5 97.5t124.5 109t127 111.5t109.5 104.5t72.5 88t15.5 62q-2 0 -23 -4t-54 -10t-73.5 -12t-81 -10.5t-76 -6.5t-58.5 1.5t-29.5 13.5t11.5 28q22 -3 58.5 3.5t80 16t90 20.5t88.5 18t76 7t51.5 -12t15.5 -38t-31 -72
q-52 -82 -114 -145.5t-130 -120.5t-139 -113t-140 -124q-1 0 -11 -10.5t-21.5 -25t-19.5 -29.5t-5 -24q11 -3 51 5t97 22t125 30.5t136 31.5t129.5 25t105 10t63.5 -13t5 -43q-25 -2 -71 -8.5t-104.5 -16t-125 -21l-133 -23t-128.5 -21.5t-110.5 -16.5t-80 -9t-37.5 1.5z
" />
    <glyph glyph-name="bracketleft" unicode="[" horiz-adv-x="474" 
d="M45 -68q-2 1 -6.5 5.5t-4.5 6.5q-1 12 0.5 50.5t5.5 92.5t10.5 119.5t15 132.5t19.5 130.5t23.5 114.5t26.5 83.5t30 37.5q2 1 13.5 2.5t25 3t25 3t14.5 2.5q10 3 34.5 10.5t51.5 16.5t51 17.5t33 12.5q7 2 19 -0.5t20 -7.5t8.5 -12.5t-14.5 -14.5q-76 -22 -126 -41
t-82 -42.5t-50 -54.5t-29.5 -77t-21 -110t-24.5 -153q-7 -24 -12.5 -64.5t-8.5 -84t-3.5 -84.5t1.5 -66l340 17q9 -15 -2 -24t-28 -14t-33 -6.5t-17 -1.5q-39 -5 -70.5 -8t-62 -4.5t-64 -1t-75.5 2.5q-3 1 -16 5t-17 6z" />
    <glyph glyph-name="backslash" unicode="\" horiz-adv-x="328" 
d="M271 11q-27 27 -54 66t-52 85t-47.5 95.5t-41 96.5t-33 89t-23.5 73q10 35 25 24t34.5 -52t43.5 -103t53.5 -128.5t64 -129t75.5 -104.5q-11 -17 -22 -22.5t-23 10.5z" />
    <glyph glyph-name="bracketright" unicode="]" horiz-adv-x="446" 
d="M67 -85q-6 9 10.5 18.5t45.5 18t64 16t66 13.5t52 9.5t22 3.5q-1 35 1 90.5t5 121t7.5 136.5t7.5 136.5t4 120.5t-1 90q-15 1 -42.5 -2t-61.5 -7t-71 -7t-70 -2t-58 7.5t-35 22.5q-6 8 20.5 18t69.5 18.5t95 13t98 1.5t77.5 -15t34.5 -36q4 -39 3 -97t-4.5 -126.5
t-8 -141.5t-7.5 -141.5t-2.5 -127t6.5 -96.5q0 -3 1 -10t0.5 -14.5t-3 -13.5t-9.5 -7q-36 4 -83.5 -6.5t-93.5 -20t-84.5 -9.5t-55.5 25z" />
    <glyph glyph-name="asciicircum" unicode="^" horiz-adv-x="260" 
d="M213 374q-1 2 -4.5 15.5t-8.5 32.5t-10.5 40.5t-11.5 38.5t-11.5 26t-9.5 5q-3 -5 -9 -20t-14.5 -34t-18.5 -39t-22 -35t-24.5 -21.5t-25.5 2.5q-5 3 -10 9t-1 13q4 9 15.5 31.5t24.5 48t24 48t15 31.5q22 47 41 59.5t34 2t26 -39t17.5 -63t9 -70t1 -60t-8.5 -33
t-18 11.5z" />
    <glyph glyph-name="underscore" unicode="_" horiz-adv-x="627" 
d="M29 11q-2 1 -6.5 5.5t-4.5 6.5q1 3 26 8t65 11t92 12t106 11t106 7.5t93.5 2.5t68.5 -4.5t30 -13.5q1 -2 1 -11t-1 -12q-19 -1 -58 -4t-88 -6.5t-103 -7t-103 -7t-88 -6t-58 -3.5q-12 -1 -22 -1t-18.5 0.5t-17.5 3.5t-20 8z" />
    <glyph glyph-name="grave" unicode="`" horiz-adv-x="170" 
d="M118 428q-14 24 -29 34t-26.5 18t-17 21t0.5 43q22 2 44 -13t40.5 -36t30 -43.5t12.5 -36t-12 -13t-43 25.5z" />
    <glyph glyph-name="a" unicode="a" horiz-adv-x="702" 
d="M57 23q-24 20 -26.5 59t11 88t40 102.5t61.5 102t76 87t82 57t80 13t71 -45.5q20 -25 24 -50.5t-1 -52t-16 -54t-21.5 -55.5t-17 -57t-2.5 -59q5 -38 34 -45t69.5 4t85.5 35t83.5 48t64 42l25.5 18q28 6 31.5 -3.5t-11 -28t-43.5 -42t-66 -45.5t-79 -40t-82 -24.5
t-75.5 1t-58.5 35.5q-11 12 -16.5 24t-17.5 21q-15 -14 -36 -36.5t-45.5 -45t-52 -42.5t-56.5 -30t-58.5 -7t-56.5 26zM68 57q9 -32 40 -29.5t72 30.5t85 76.5t79 108t53.5 125.5t9.5 130q-24 19 -60 1.5t-76.5 -57t-80 -94t-69.5 -110t-45.5 -104.5t-7.5 -77z" />
    <glyph glyph-name="b" unicode="b" horiz-adv-x="548" 
d="M18 34q-2 1 -2 5t2 6q13 26 29 68.5t34 93t36.5 105t37 105t36.5 92.5t34 67.5t29 30t23 -19.5q9 -23 5 -47.5t-15.5 -50t-27 -52t-28.5 -52.5t-21 -52t-4 -51q28 7 50.5 27t44 42.5t44.5 41.5t53 25q47 9 79 -4.5t47.5 -41.5t14.5 -67t-20 -81t-57 -82t-96 -71t-137 -48
t-180 -12q-2 2 -6.5 11t-4.5 12zM107 90q-1 -4 -1 -16.5t1 -16.5q67 -9 134.5 10.5t120.5 61t84 101.5t24 132q-1 2 -5.5 6t-6.5 5q-33 5 -69 -6t-72 -32.5t-69.5 -51.5t-61.5 -63t-48.5 -67t-30.5 -63z" />
    <glyph glyph-name="c" unicode="c" horiz-adv-x="559" 
d="M102 11q-51 17 -67.5 53t-9 81.5t34.5 96t64 96.5t78 83t77.5 56t62.5 15t32 -40q3 -16 -3.5 -35t-18 -36.5t-26 -32t-28 -21.5t-24 -5t-13.5 17q12 20 27 40.5t29 38.5q-6 11 -23 5t-41 -24t-50.5 -45.5t-51.5 -59.5t-44.5 -66.5t-28.5 -66.5t-4.5 -59.5t28.5 -44.5
q33 -3 76 6.5t88 24.5t89.5 32.5t81 32.5t62 23.5t33.5 4.5q19 -10 2.5 -29t-55.5 -41t-92.5 -43.5t-107.5 -37t-102 -22t-75 2.5z" />
    <glyph glyph-name="d" unicode="d" horiz-adv-x="544" 
d="M430 23q-38 26 -55 64.5t-25 82.5h-11q-81 -66 -140.5 -99t-100.5 -40.5t-64 6.5t-29.5 40.5t2.5 62.5t31 72.5t57 69.5t80.5 54t101 26.5t119.5 -12.5l11 12l135 271q27 -4 32 -24t-0.5 -44t-16 -46.5t-15.5 -32.5l-11.5 -23t-20 -40.5t-24.5 -49.5t-24.5 -49.5
t-20.5 -41t-11 -22.5q-18 -37 -16.5 -78.5t4.5 -79.5q4 -18 16 -29.5t25.5 -21t27 -18.5t22.5 -22q-4 -13 -16 -13.5t-25 4.5t-24 12t-14 9zM57 68q4 -17 30.5 -10t62.5 29.5t76.5 54.5t73 64t51 59t11.5 40q-31 17 -69 17t-75.5 -13.5t-72 -38t-58 -56.5t-33 -69.5
t2.5 -76.5z" />
    <glyph glyph-name="e" unicode="e" horiz-adv-x="435" 
d="M85 11q-30 10 -45.5 30.5t-20.5 45.5t-1.5 52.5t11.5 52.5q30 32 67.5 73.5t79.5 81.5t87.5 74.5t92.5 52.5q16 7 25.5 -0.5t13.5 -23.5t3.5 -37t-3.5 -41t-8 -36t-10 -22q-12 -14 -46.5 -33t-76.5 -41.5t-84 -46.5t-69 -47.5t-32 -46.5t28 -42q34 -4 82.5 3.5t99 20
t97.5 26t77 21.5l12 -11q-22 -29 -72 -53t-108 -39.5t-113 -20t-87 6.5zM324 393q-1 1 -15 -8.5t-34.5 -25t-44 -34t-43 -34.5t-32.5 -27.5t-11 -11.5q16 -3 41.5 4.5t53 21.5t52.5 31.5t39.5 34.5t15 30t-21.5 19z" />
    <glyph glyph-name="f" unicode="f" horiz-adv-x="470" 
d="M40 23q-2 2 -2 11t2 11l84 193h-95q-3 0 -5.5 4t-4 9.5t-2.5 11t1 8.5q3 1 11 4t17 7t17 7t11 5q3 1 16.5 6t29 10.5t28.5 10.5t16 7q12 8 28.5 39.5t37.5 75.5t46 94.5t54 97t61 83t66.5 52t71.5 4.5t76 -59q7 -10 10 -21.5t1 -23.5q-9 -5 -18 -2t-16.5 10t-13.5 14.5
t-8 11.5q-67 11 -106.5 -5.5t-65 -50t-44.5 -79.5t-44 -95q-7 -12 -16.5 -31l-18.5 -37l-15.5 -31l-6.5 -13v-12q0 -4 25 -6t56.5 -6t61 -11.5t38.5 -21.5l-11 -11q-57 3 -96 2t-68 -13t-51 -38.5t-45 -74.5q-8 -17 -21 -43.5t-26 -52t-22 -44t-10 -19.5l-12 -11
q-3 2 -11.5 10.5t-10.5 12.5z" />
    <glyph glyph-name="g" unicode="g" horiz-adv-x="362" 
d="M-136 -282q-31 11 -50.5 33t-30 47.5t-13 51.5t1 46t12 30.5t19.5 5.5q-1 -87 20.5 -131.5t56 -56t78 5.5t88 52.5t85 85t68.5 103t40 106t-1 95.5q-90 -65 -140 -82t-69.5 -1.5t-12.5 55.5t30 88t58 96.5t72 81.5t71.5 42t57.5 -21q23 -31 29 -83.5t-3 -116.5
t-31.5 -134t-55.5 -136.5t-75.5 -123.5t-91.5 -95t-103 -51.5t-110 7.5zM68 214q-1 -3 -1.5 -11t-0.5 -17t0.5 -17t1.5 -11q32 -8 66 15t62.5 59t48 76t24 67t-10.5 30.5t-55 -32.5q-12 -11 -32 -30t-40.5 -41t-38 -45.5t-24.5 -42.5z" />
    <glyph glyph-name="h" unicode="h" horiz-adv-x="554" 
d="M11 23q-1 2 -1 5.5t1 5.5q4 8 13.5 27.5t20 41t20.5 40.5t14 27q2 3 10.5 17t21 34.5t27 45.5t29 49t27 45t20.5 35q20 33 46.5 78t54.5 91t55.5 89t50.5 71t39 37t22 -12v-32q-7 -11 -19 -28.5t-24.5 -37t-24.5 -37.5t-18 -28q-9 -14 -29 -45t-45 -70t-51 -81.5
t-47 -79.5t-33.5 -63.5t-9.5 -33.5q24 7 51.5 25.5t55.5 39.5t56 40.5t52 30.5q24 -3 42 -18t26 -38q-1 -9 -1.5 -33.5t-0.5 -51.5t0.5 -51t1.5 -33q1 -11 10 -27.5t19.5 -33t19 -28.5t7.5 -13q-20 -7 -38 -0.5t-31.5 21t-22 33t-10.5 36.5q-1 9 -3 33.5t-3.5 51.5t-3 51
t-1.5 33l-23 12q-6 3 -20.5 -5t-33.5 -22t-40 -32t-39.5 -34t-31.5 -28t-16 -15q-8 -8 -29 -28.5t-44.5 -44t-44 -44.5t-28.5 -30q-14 -3 -26.5 -2.5t-19.5 14.5z" />
    <glyph glyph-name="i" unicode="i" horiz-adv-x="254" 
d="M11 11q41 132 74.5 209.5t56 108.5t30.5 20t-1.5 -56t-40 -120.5t-85.5 -172.5q-8 -3 -19 -1t-15 12zM186 492q-2 5 -2 18t2 16q23 8 35 2t15 -17.5t-0.5 -24.5t-11.5 -19.5t-18.5 -2t-19.5 27.5z" />
    <glyph glyph-name="j" unicode="j" horiz-adv-x="186" 
d="M-243 -350q-25 11 -50.5 30t-40 42t-12 48.5t34.5 49.5q7 -1 10 -10t4.5 -22t3 -28t7 -29t15.5 -24t28 -12q46 -7 83 14.5t66.5 61.5t53.5 93.5t44 110.5t36 114t31 103t29 77t30 37q13 -5 12.5 -39t-12 -86.5t-32.5 -117t-49 -129t-62.5 -123.5t-72 -100.5t-77.5 -59.5
t-80 -1zM130 475q-14 18 -8 28.5t17 9.5t21 -15.5t4 -45.5q-5 -3 -11 0t-11 8t-8.5 10z" />
    <glyph glyph-name="k" unicode="k" horiz-adv-x="729" 
d="M424 34q-64 88 -103 145.5t-64 85.5t-41 27t-34.5 -30.5t-45.5 -86.5t-74 -141q-6 -11 -12.5 -13.5t-12.5 0t-11 9.5t-8 15q-3 10 7 38.5t29.5 69t46 90t56 101.5t59 103t55 94.5t45.5 76.5t29 49q7 5 14.5 1t13 -12.5t7.5 -18t-2 -15.5l-90 -158v-23q21 -5 52.5 3.5
t68 24.5t74.5 37.5t72.5 43t62 41t43.5 31.5q13 7 23.5 4t16 -11t4.5 -19t-10 -20q-28 -29 -66.5 -49.5t-81.5 -37t-87.5 -31t-85.5 -31.5t-75 -38t-56 -50q13 -11 34.5 -34.5t47 -52.5t51.5 -61.5t46.5 -63t34 -55t13.5 -38.5v-23q-8 -4 -14.5 -2.5t-12.5 5.5t-10.5 9.5
t-8.5 10.5z" />
    <glyph glyph-name="l" unicode="l" horiz-adv-x="328" 
d="M57 11q-29 21 -37.5 53t-2.5 69.5t21.5 77.5t34 77t36 68t27.5 51l14.5 29t24.5 50t24.5 50.5t14.5 29.5q3 5 8.5 19.5t12.5 31.5t15.5 32.5t18 22.5t19 2t18.5 -30q-4 -10 -19.5 -40t-36.5 -72l-46.5 -93t-49.5 -103t-45 -101.5t-34.5 -90t-16 -67t9.5 -32.5
q14 -7 36.5 -5.5t46.5 5.5t47 8.5t40 3.5q4 -9 -6 -17.5t-28 -15t-41.5 -11t-45 -6.5t-38 -1t-22.5 5z" />
    <glyph glyph-name="m" unicode="m" horiz-adv-x="825" 
d="M622 23q-11 13 -12.5 29.5t2 33t10 32t12.5 28.5q4 10 16.5 36.5t27 55.5t27.5 54.5t18 35.5v22q-10 5 -41 -13.5t-72 -51t-87 -72.5t-86.5 -76.5t-70.5 -65t-38 -37.5q-22 -7 -28.5 9.5t-3.5 46t12 66t18.5 69t17 55.5t6.5 25q-20 7 -42 -5t-45 -35.5t-46 -55l-46 -63
t-44 -60t-40 -46.5t-35.5 -21t-28.5 15q-1 1 -1 5t1 6q5 10 15.5 31.5t23.5 48.5t28 56.5t28.5 56t24 47.5t16.5 31q5 10 14 25.5t18 30t16 25l7 10.5h24q7 -23 -2 -43t-21.5 -39t-21 -37.5t-0.5 -39.5q86 76 132.5 112t65.5 41t18 -15t-8.5 -54t-15 -77.5t-1.5 -84.5h12
q6 4 20 15t30.5 24t31 24t20.5 15q11 9 32 25t42.5 32.5t39 29t22.5 15.5q4 3 17.5 12.5t30 20.5t31.5 20.5t22 14.5q15 10 28 9t21.5 -9.5t10.5 -23t-4 -32.5q-24 -45 -47.5 -88t-43 -86.5t-32 -89.5t-13.5 -98q-5 -3 -10.5 0t-10.5 8t-8.5 10z" />
    <glyph glyph-name="n" unicode="n" horiz-adv-x="576" 
d="M390 11q-3 33 5.5 65.5t23 64t31 63t28.5 62t17 60t-4 58.5q-25 9 -57.5 -4t-68.5 -39.5t-74.5 -62t-75 -72l-69.5 -69.5t-59.5 -54.5t-44.5 -27t-24 12.5q-1 1 11.5 25.5t31 61.5t41 80t42.5 80.5t35 63.5t19 28q21 -14 21.5 -30.5t-5.5 -34t-13.5 -35.5t-2.5 -36
q16 11 44.5 30.5t62 40.5t70 41t68.5 31.5t57.5 12.5t37.5 -15t7.5 -52.5t-31.5 -99.5q-3 -7 -14.5 -33.5t-25 -57t-25 -57t-14.5 -33.5q-1 -4 -2.5 -14.5t-3.5 -23t-6 -24t-10 -17.5t-14 1.5t-9 9.5z" />
    <glyph glyph-name="o" unicode="o" horiz-adv-x="430" 
d="M79 11q-42 17 -52.5 51t0.5 75.5t38 86t60 81.5t66.5 62.5t57.5 28.5q62 8 97.5 -8.5t48.5 -47.5t7 -72.5t-26.5 -83.5t-53 -81t-72 -65.5t-83.5 -35t-88 8.5zM68 68q8 -32 34 -35.5t60.5 13t72.5 48t69.5 68.5t52 74.5t20 65.5t-27 42.5t-88.5 5.5q-14 -13 -36 -31.5
t-45.5 -40.5t-46.5 -47.5t-40 -52.5t-24.5 -55t-0.5 -55z" />
    <glyph glyph-name="p" unicode="p" horiz-adv-x="542" 
d="M-90 -350q-9 56 5.5 113.5t38 114.5t47.5 113.5t33 110.5q0 2 8.5 12t19 21.5t19 22t9.5 12.5q16 35 32.5 64.5t25.5 57.5t8 55.5t-20 59.5q-2 2 -2 6t2 5q29 37 67 62t81 40t89 20t91 2q38 -32 48.5 -72.5t1 -84t-35 -87.5t-58.5 -82t-69.5 -68t-68.5 -46
q-29 -14 -42.5 -18.5t-26.5 -5.5t-31.5 -2t-56.5 -8q-17 -3 -28.5 -15.5t-19 -28t-12 -32t-8.5 -26.5q-18 -44 -32.5 -81.5t-28 -74t-26.5 -75.5t-27 -85q-2 -5 -7 -8.5t-10.5 -4t-10 2t-5.5 10.5zM136 113q46 -9 89.5 5t81.5 43.5t68.5 71t51.5 87.5t31 92.5t6 85.5
q-14 12 -33.5 12.5t-34.5 -1.5q-54 -7 -85 -27.5t-50.5 -51.5t-33.5 -71.5t-34 -87.5q-4 -7 -12 -24.5t-17 -37t-17 -37.5t-11 -25v-34z" />
    <glyph glyph-name="q" unicode="q" horiz-adv-x="396" 
d="M62 -350q-29 28 -33.5 68t3.5 82t24 83t29 72q21 50 26.5 79.5t1.5 45.5t-16 22t-25.5 8.5t-27 4.5t-21.5 10.5t-8 26.5t14 52q4 11 18.5 31.5t36 45t48.5 51t55.5 49t57 38t52.5 18.5t43 -9t28 -44q2 -8 0 -22t-6.5 -29.5t-9 -29.5t-7.5 -21q-10 -28 -40.5 -72.5
t-67.5 -98.5t-75 -113.5t-63 -116.5t-32 -108.5t18 -88.5q6 -9 32 10t63 51t79.5 69.5t80.5 65.5t67 39t39 -9q2 -2 2 -6t-2 -6q-15 -11 -44.5 -38.5t-66.5 -60.5t-78 -66.5t-78.5 -57.5t-68.5 -33t-48 8zM74 181q-1 -3 -1.5 -9.5t-0.5 -13.5t0.5 -13.5t1.5 -8.5
q26 -9 52 4.5t50.5 38.5t47.5 55.5t43.5 56t37 40t29.5 8.5q9 38 -5.5 45t-42 -5.5t-62.5 -39.5t-67 -57t-55.5 -58t-27.5 -43z" />
    <glyph glyph-name="r" unicode="r" horiz-adv-x="486" 
d="M29 11q-2 1 0.5 23.5t7.5 56.5t13 75t17 78.5t19.5 66t20.5 39.5q7 7 14 0.5t14 -16t14 -17t15 -1.5q28 39 61.5 74.5t74.5 61.5q4 3 22 9.5t41 13t47.5 11t42 4t24 -9t-6.5 -28.5q-60 -1 -112 -35t-96 -84t-80 -108.5t-62.5 -108.5t-44 -83t-25.5 -33q-1 0 -9 4.5
t-12 6.5z" />
    <glyph glyph-name="s" unicode="s" horiz-adv-x="396" 
d="M29 11q-12 8 -0.5 21.5t37 29t59.5 32.5t65.5 32t55.5 26.5t31 17.5q33 28 34.5 46.5t-16.5 30t-50.5 18t-67 12t-66 11.5t-47.5 16t-10.5 26.5t43.5 42.5q14 10 41 29t58.5 39t62.5 36t52 21q11 2 22.5 -2t18.5 -11.5t6.5 -16.5t-13.5 -16q-57 -32 -109.5 -60
t-105.5 -64q-3 -8 1.5 -14t10.5 -9q106 -11 159.5 -31t68 -44t-3.5 -51t-53.5 -53t-81.5 -49t-88.5 -39t-74.5 -24t-39 -3z" />
    <glyph glyph-name="t" unicode="t" horiz-adv-x="430" 
d="M91 11q-1 2 -1 11t1 12q3 11 11 38.5t17 58t17 57.5t11 38q4 14 9 32.5t2 35.5q-15 2 -37 -3.5t-43.5 -9t-40 0t-26.5 23.5q12 25 36 32.5t52 10.5t53.5 9t40.5 27q9 26 21.5 63.5t26.5 78.5t30.5 81t34.5 71q11 7 18 1t10.5 -17.5t4.5 -23.5t0 -16q-6 -26 -20.5 -55.5
t-27 -59.5t-20 -60t-0.5 -57h215q1 0 5 -6.5t7 -10.5q5 -14 -11 -19t-43 -6.5t-61.5 -2t-66 -5t-56.5 -15t-34 -31.5q-26 -67 -48 -134.5t-42 -136.5q-2 -3 -8 -9.5t-13 -11t-13.5 -3.5t-10.5 12z" />
    <glyph glyph-name="u" unicode="u" horiz-adv-x="576" 
d="M430 11q-27 11 -43 29t-25 41t-14 48.5t-9 51.5q-9 6 -32 -11.5t-53 -43.5t-64.5 -53.5t-66.5 -40.5t-58.5 -5t-41.5 52q-5 15 3.5 43.5t25.5 62.5t39.5 70.5t44 68t40 54t28.5 29.5q23 -11 20.5 -33.5t-18 -51.5t-40 -62t-46 -65.5t-34.5 -62.5t-7 -53q22 -9 54.5 9.5
t70 51.5t77 75.5t73.5 82t60 69.5t38 40q21 -10 21 -32.5t-11.5 -51.5t-28 -62.5t-28.5 -66.5t-14 -63t16 -52l34 -40h101q7 0 3 -6t-11.5 -13t-15.5 -13.5t-9 -6.5q-26 -5 -42 -1.5t-37 12.5z" />
    <glyph glyph-name="v" unicode="v" horiz-adv-x="531" 
d="M57 23q-21 12 -30 38t-10 59t4 69t12 70t14 61t10 42q5 3 10.5 0t11 -8.5t9 -10l3.5 -4.5q3 -35 0.5 -68.5t-6 -66.5t-6 -67t-0.5 -69q8 -15 33 -0.5t61 47t78.5 77t84 88.5t78.5 82.5t62.5 59t35.5 17t-3 -42.5q-24 -21 -57 -63t-72 -90.5t-81 -96.5t-84.5 -82.5
t-82.5 -48t-75 7.5z" />
    <glyph glyph-name="w" unicode="w" horiz-adv-x="746" 
d="M334 11q-20 15 -31 39t-16.5 51t-7.5 54t-2 48q-2 2 -5.5 2t-5.5 -2q-25 -18 -48 -43t-45.5 -51t-44 -51.5t-43.5 -46.5q-14 -5 -29 -2.5t-25.5 10t-15 20t2.5 29.5q19 61 41.5 129.5t47.5 130.5q9 22 19.5 24t18.5 -8t11 -27.5t-3 -34.5q-3 -8 -11 -28.5t-17 -44
t-17 -44.5t-11 -29v-34q31 28 52 50t39.5 44.5t38.5 48t50 60.5q23 27 36 29.5t19.5 -11t7.5 -39t0.5 -55t-2.5 -59t-1.5 -51t4.5 -31t15 1.5q12 19 35 55t52 79.5t63.5 88t70.5 80t72 56t69 15.5q1 -4 -11.5 -22t-33 -42.5t-45 -53t-48 -54.5t-41.5 -47t-25 -31
q-3 -4 -12.5 -17.5t-22 -32t-27 -39.5t-27.5 -40t-22.5 -33t-12.5 -18q-9 -13 -15 -21t-11.5 -11t-12.5 -1t-17 10z" />
    <glyph glyph-name="x" unicode="x" horiz-adv-x="503" 
d="M18 23q-9 14 4 32t38 38.5t56.5 42.5t58.5 44t44 42.5t13 37.5q-1 4 -6 22.5t-11 39.5t-11 39t-6 23v23q13 10 25.5 -6t24 -40.5t22 -48.5t18.5 -30q18 12 38.5 28.5t40.5 34t38 34t30 28.5q21 11 29.5 9.5t8.5 -10.5t-5.5 -22t-12.5 -25.5t-13.5 -21.5l-6.5 -9
q-53 -48 -81 -81.5t-38.5 -56.5t-7.5 -37t13.5 -23.5t24.5 -16.5t24.5 -15.5t14 -20.5t-6.5 -32q-27 -7 -42 2.5t-25 26.5t-16.5 37t-16 34.5t-25 19t-42.5 -9.5t-68.5 -50.5t-102.5 -104.5q-3 2 -11.5 11t-10.5 12z" />
    <glyph glyph-name="y" unicode="y" horiz-adv-x="441" 
d="M-170 -384q-9 14 0.5 43.5t27 61t36 59t27.5 39.5q8 11 24.5 33l37.5 50t44.5 59t44.5 58.5t38 49.5t25 33q8 9 0 28t-24.5 44.5t-37 56t-37 62t-25 62.5t-0.5 58q11 8 24 -9.5t27.5 -48t30.5 -67t31 -66t29.5 -46.5t27.5 -7q26 19 51 48.5t48 61.5t43.5 62.5t38.5 53.5
q7 9 13.5 12.5t20.5 -1.5q11 -4 -4 -35t-47 -80t-76.5 -111.5t-94 -130t-99 -134.5t-91 -124.5t-71 -101t-38.5 -63.5q-4 -9 -8.5 -18t-12.5 -15q-2 1 -5.5 4t-7 6.5l-7 7t-4.5 5.5z" />
    <glyph glyph-name="z" unicode="z" horiz-adv-x="566" 
d="M40 11q-19 11 -13.5 31t28.5 45.5t58.5 55t77 61.5t84.5 64.5t80.5 63.5t65 59t37.5 50q-2 13 -20 14.5t-43 -2t-53 -9.5t-50 -6.5t-33.5 7t-4.5 29.5q1 2 21.5 8.5t51.5 13.5t67 12t67 4.5t52.5 -9.5t23 -30t-21.5 -56t-80 -89q-3 -4 -16.5 -16t-30 -26.5t-32 -28
t-22.5 -19.5t-25 -19.5t-40.5 -31t-46.5 -36.5t-43 -36t-30 -29.5t-7 -17.5q42 -4 84.5 0.5t84.5 10.5t84.5 10.5t85.5 0.5q10 -6 19.5 -18.5t2.5 -26.5q-26 -2 -64.5 -8.5t-83 -14.5t-91.5 -15.5t-89.5 -10.5t-78 -0.5t-56.5 15.5z" />
    <glyph glyph-name="braceleft" unicode="{" horiz-adv-x="271" 
d="M155 -47q-33 12 -65.5 41.5t-52 66.5t-21 77t25.5 74q3 4 14.5 17.5t25 28.5t25 28t14.5 16q12 15 12.5 26t-5.5 19.5t-16 15t-18 14t-11 16.5t4 22q1 3 8 11t15 17.5t15 18t8 10.5q11 26 5 51.5t-18 51t-22.5 50.5t-8 49.5t24 47t75.5 44.5q12 4 20.5 -6.5t12.5 -16.5
q-9 -11 -28 -23.5t-36 -27.5t-26.5 -33.5t1.5 -40.5l56 -112q0 -1 -1.5 -16t-2.5 -36t-0.5 -44t4.5 -40q7 -28 2.5 -48t-15.5 -35t-26.5 -27t-30 -25t-27 -29t-16.5 -39q-10 -50 2 -81t37.5 -51t60.5 -33.5t70 -27.5q19 -8 17.5 -16t-17 -12.5t-40.5 -3.5t-51 11z" />
    <glyph glyph-name="bar" unicode="|" horiz-adv-x="113" 
d="M34 11q-2 2 -6 11t-5 12q0 13 -0.5 45t-0.5 68t0.5 68t0.5 45q0 8 1 32t2 57t2.5 69.5t2.5 69t2 56.5t1 32q0 2 1.5 12.5t4 23.5t6 27t8.5 22t11.5 8t13.5 -14q3 -80 1 -160.5t-5 -161l-6 -161t-1 -161.5q-7 -13 -16.5 -11.5t-17.5 11.5z" />
    <glyph glyph-name="braceright" unicode="}" horiz-adv-x="300" 
d="M66 -57q-3 8 9 20t31.5 26.5t42.5 32.5t41.5 39t28.5 45.5t5 51.5q-4 22 -18 40.5t-31.5 35.5t-35 33.5t-30 34t-16.5 37.5t6 45q-22 46 -27.5 69t-0.5 33.5t17.5 15t25 13t22 26.5t9.5 57q0 20 -11.5 39t-28.5 36t-36 33.5t-34 32.5t-23 31.5t-2 31.5h32q3 0 17.5 -13
t32.5 -31t36 -37.5t28 -31.5q25 -32 31.5 -59t0.5 -53t-21 -51t-33 -52q-3 -5 -7.5 -13.5t-4.5 -9.5l56 -57q13 -13 9 -21.5t-13 -15.5t-16.5 -14t-1.5 -16q12 -18 29.5 -36.5t35 -38.5t31.5 -41t17 -43q4 -26 -7 -59.5t-31 -66t-45.5 -60.5t-49.5 -44.5t-43.5 -17
t-26.5 22.5z" />
    <glyph glyph-name="asciitilde" unicode="~" horiz-adv-x="531" 
d="M249 11q-27 16 -39.5 44.5t-19.5 55.5t-12 45.5t-17.5 14.5t-36.5 -37.5t-67 -110.5q-18 -6 -22.5 7.5t1 37.5t19 53.5t32 55t39.5 42t41.5 15t39 -26.5t31.5 -82q9 -43 25.5 -59t38 -15t46.5 16t52 34t55 38.5t54 30.5q6 -9 -5.5 -28t-34 -40.5t-52.5 -42.5t-61 -35.5
t-59.5 -19.5t-47.5 7z" />
    <glyph glyph-name="exclamdown" unicode="&#xa1;" horiz-adv-x="266" 
d="M15.9326 653.33q-7.95117 -10.7842 -1.49121 -23.3652q6.45996 -12.582 18.3857 -21.1191q11.9268 -8.53711 23.8525 -8.9873q11.9258 -0.449219 15.9014 13.0312t0.49707 27.8594t-11.9268 23.3652q-8.44727 8.9873 -20.373 8.08887
q-11.9268 -0.899414 -24.8457 -18.873zM72.5811 399.902q-1.98828 -5.39258 1.9873 -26.9609t11.9258 -52.5723q7.95117 -31.0049 19.877 -68.75q11.9258 -37.7441 25.8398 -75.4883q13.9141 -37.7451 28.8213 -72.7939q14.9072 -35.0479 29.3184 -61.1104
q14.4102 -26.0615 27.8271 -39.542q13.417 -13.4795 24.3486 -8.98633q0.994141 4.49316 -3.47852 30.1055q-4.47168 25.6123 -13.416 62.9082q-8.94531 37.2949 -21.3682 82.2295q-12.4229 44.9336 -25.8398 88.0703q-13.416 43.1367 -28.3242 80.4316
q-14.9072 37.2959 -28.8213 59.7627q-13.9131 22.4668 -26.833 25.1631t-21.8643 -22.4668z" />
    <glyph glyph-name="cent" unicode="&#xa2;" horiz-adv-x="559" 
d="M102 11q-51 17 -67.5 53t-9 81.5t34.5 96t64 96.5t78 83t77.5 56t62.5 15t32 -40q3 -16 -3.5 -35t-18 -36.5t-26 -32t-28 -21.5t-24 -5t-13.5 17q12 20 27 40.5t29 38.5q-6 11 -23 5t-41 -24t-50.5 -45.5t-51.5 -59.5t-44.5 -66.5t-28.5 -66.5t-4.5 -59.5t28.5 -44.5
q33 -3 76 6.5t88 24.5t89.5 32.5t81 32.5t62 23.5t33.5 4.5q19 -10 2.5 -29t-55.5 -41t-92.5 -43.5t-107.5 -37t-102 -22t-75 2.5zM231 -44q-2 2 -6.5 10.5t-5.5 11.5q0 8 -2.5 28.5t-6 47t-7.5 55.5t-7.5 55t-5.5 46.5t-1 28.5q0 8 2 33.5t4 60t5 74t5 74t4 60t2 33.5
q0 2 1.5 12.5t4 23.5t6.5 27t9 22t11.5 8t13.5 -14q-11 -81 -19.5 -169.5t-9.5 -179t7 -179.5t30 -169q-8 -14 -17 -12.5t-17 12.5z" />
    <glyph glyph-name="sterling" unicode="&#xa3;" horiz-adv-x="332" 
d="M100 265q-8 1 -14.5 1.5t-13.5 1.5q-7 -37 -10.5 -71.5t-4 -64t2 -52.5t8.5 -35q11 5 43 12.5t75.5 9t95 -7.5t102.5 -37q13 -7 -4 -7.5t-51 2t-78 6.5t-84.5 5t-71.5 -2.5t-38 -14.5q-23 48 -28.5 117.5t3.5 145.5q-26 4 -36 8.5t-8 8.5t15 7t33 5q8 53 22.5 104
t34 94.5t44.5 76.5t54.5 50t62 15t68.5 -28l-29 -53q-37 36 -70 25t-60.5 -51.5t-49 -102t-34.5 -127.5q30 1 62.5 0t61 -4.5t49.5 -10t29 -16.5q-10 0 -36 -1.5t-54.5 -3.5t-54.5 -3.5t-36 -1.5z" />
    <glyph glyph-name="currency" unicode="&#xa4;" horiz-adv-x="594" 
d="M130 112q-16 3 -17.5 30t7.5 62.5t26 70.5t40 55q-14 18 -34 34.5t-37.5 34.5t-28.5 38t-7 45q18 1 38 -13.5t38 -35.5t32 -44t19 -40q15 26 41.5 40.5t55 19t55.5 -1.5t45 -21q60 42 96.5 61t52.5 21.5t14 -8.5t-20 -28t-50 -36.5t-74 -34.5q7 -18 6 -39t-8.5 -43.5
t-20 -45t-27.5 -43.5q17 -9 35 -27t32.5 -38.5t24 -40t10.5 -31.5t-8 -12.5t-31 16.5q-9 15 -22.5 28t-26.5 25t-24 24.5t-16 27.5q-9 -18 -30.5 -31.5t-47.5 -21.5t-52 -10.5t-44 2.5q-9 -10 -24 -23.5t-31.5 -27t-31.5 -23.5t-23.5 -13t-8 4t16.5 28zM147 149q1 -6 5 -10
t8 -6t7.5 -3t4.5 -2q18 -11 44 -5.5t53.5 22t54 40.5t46.5 51t30.5 53t5.5 46t-28 31t-69 8q-6 1 -21.5 -8.5t-35 -27t-40.5 -40t-37 -48t-24.5 -51.5t-3.5 -50z" />
    <glyph glyph-name="yen" unicode="&#xa5;" horiz-adv-x="402" 
d="M75 248q5 10 20.5 18t37 14t48 10t53.5 5q1 10 1.5 20t0.5 20q-4 9 -18 30.5t-33 50l-41 61.5t-42.5 64.5t-37 60t-24.5 47.5t-5 26.5t21 -1.5q14 -13 35 -41.5t43.5 -64t46 -73t43.5 -67t35 -47t22 -12.5q10 20 29.5 63.5t42.5 95t47.5 103t46 87.5t38 48.5t22.5 -13.5
q-11 -18 -31.5 -63t-47 -108t-56.5 -138.5t-58 -153.5q50 -6 66 -30q-5 -5 -27.5 -10t-55.5 -10q-4 -11 -7 -21t-7 -21h107q6 -3 10.5 -9.5t1.5 -14.5q-27 -3 -61.5 -8.5t-71.5 -11.5q-29 -94 -46 -171.5t-12 -124.5q-3 -10 -9.5 -19.5t-14.5 -13t-16.5 1t-15.5 21.5
q-12 28 -11 62t9.5 71.5t22 78t26.5 82.5q-43 -8 -79.5 -14.5t-59.5 -9.5q-18 -3 -25.5 1.5t-19.5 21.5q-7 10 14 19t54 16t69.5 11.5t60.5 7.5q2 10 4.5 19t4.5 19q-27 -2 -52.5 -2.5t-46.5 1t-34.5 5.5t-16.5 11z" />
    <glyph glyph-name="brokenbar" unicode="&#xa6;" horiz-adv-x="113" 
d="M28 403q1 26 2 54t2 52.5t1.5 42.5t0.5 24q0 2 1.5 12.5t4 23.5t6 27t8.5 22t11.5 8t13.5 -14q2 -58 1.5 -123.5t-2.5 -124.5zM80 352q-2 -51 -4 -91.5t-4 -79t-3.5 -79t-0.5 -91.5q-7 -13 -16.5 -11.5t-17.5 11.5q-2 2 -6 11t-5 12q0 13 -0.5 45t-0.5 68t0.5 68t0.5 45
q0 6 0.5 10t1.5 12.5t1.5 23.5t1.5 43z" />
    <glyph glyph-name="section" unicode="&#xa7;" horiz-adv-x="604" 
d="M74 19q-12 8 0 21t37.5 29t59.5 33t65.5 32t55.5 26.5t30 16.5q23 19 30.5 34t4 25.5t-17.5 18t-33 12.5l-94 5q-33 5 -61.5 13t-42.5 21t-8 31t42 43q13 9 36.5 25.5t51.5 34.5t56.5 34t51.5 25q-36 6 -69.5 11.5t-51.5 16t-13.5 27t43.5 43.5q14 10 41.5 29t59 39
t62.5 36t52 21q10 2 22 -2t19 -11.5t6.5 -16t-13.5 -15.5q-57 -32 -110 -60t-105 -65q-4 -8 1 -13.5t11 -8.5q96 -11 149 -28.5t72 -39t10 -45.5t-36 -48t-66 -46.5t-80 -40.5q50 -17 66.5 -38t9.5 -43.5t-33.5 -46.5t-62.5 -45.5t-77 -39.5t-76.5 -31t-61.5 -18t-33 -1z
M428 394q32 28 35 44.5t-9 23.5t-31.5 5.5t-32.5 -8.5q-56 -31 -108.5 -59.5t-105.5 -64.5q-5 -11 3.5 -16.5t21 -8.5t26 -4t19.5 -2q26 14 55.5 28.5t56 26.5t45.5 21t25 14z" />
    <glyph glyph-name="dieresis" unicode="&#xa8;" horiz-adv-x="478" 
d="M110 426q-14 21 -7.5 42t22.5 32.5t35 9t30 -27.5q6 -15 -2 -31.5t-22 -27t-30 -11.5t-26 14zM254 431q-15 21 -8 42t23 32.5t35 9t29 -27.5q6 -15 -2 -31.5t-22 -27t-29.5 -11.5t-25.5 14z" />
    <glyph glyph-name="copyright" unicode="&#xa9;" horiz-adv-x="682" 
d="M99 22q-51 36 -72.5 94.5t-18.5 128t28 143.5t65.5 141t95 121t116.5 83.5t129.5 28.5t135.5 -45q51 -31 70 -85t13 -121t-33.5 -139.5t-70.5 -139.5t-98 -122.5t-115.5 -88t-123 -35t-121.5 35.5zM236 186q-37 13 -49.5 39.5t-6.5 60t25.5 71t46.5 72t57.5 62t57 41.5
t45.5 11.5t24 -29.5q3 -18 -8 -40t-26.5 -37.5t-30.5 -20t-19 13.5q10 15 20.5 29.5t21.5 28.5q-5 11 -25.5 0t-45.5 -35t-50.5 -57t-41.5 -66.5t-17 -63.5t22 -47q29 -2 68 8t78.5 24.5t76 30t60.5 24.5q22 39 38 78t24.5 75t8.5 67t-9 55q-15 69 -54 93t-90 14.5
t-108.5 -47.5t-109.5 -93t-93 -121.5t-60 -132.5t-10 -127t58 -105q43 -32 92 -28.5t98 31.5t94.5 75t83.5 103q-30 -14 -65.5 -27t-70 -21.5t-64 -11.5t-46.5 3z" />
    <glyph glyph-name="ordfeminine" unicode="&#xaa;" horiz-adv-x="429" 
d="M34.6855 198.874q-14.6045 12.0645 -16.126 35.5889q-1.52051 23.5254 6.69434 53.083t24.3408 61.8291t37.4238 61.5273t46.2471 52.4795t49.8994 34.3828q24.9492 11.1592 48.6816 7.8418q23.7314 -3.31738 43.2041 -27.4463q12.1709 -15.0801 14.6055 -30.4619
q2.43359 -15.3818 -0.609375 -31.3672q-3.04199 -15.9854 -9.73633 -32.5732q-6.69336 -16.5879 -13.083 -33.4785q-6.38965 -16.8896 -10.3447 -34.3828t-1.52148 -35.5889q3.04297 -22.9229 20.6895 -27.1445q17.6475 -4.22266 42.293 2.41211
q24.6445 6.63574 52.0283 21.1123q27.3838 14.4775 50.8115 28.9551q23.4277 14.4766 38.9453 25.334l15.5176 10.8584q17.0381 3.61914 19.168 -2.11133t-6.69336 -16.8896q-8.82422 -11.1602 -26.4707 -25.335q-17.6475 -14.1758 -40.1631 -27.4463
q-22.5146 -13.2705 -48.0732 -24.1289q-25.5576 -10.8574 -49.8984 -14.7783t-45.9434 0.603516q-21.6025 4.52344 -35.5977 21.4141q-6.69434 7.23828 -10.041 14.4766t-10.6494 12.668q-9.12793 -8.44531 -21.9062 -22.0176q-12.7793 -13.5723 -27.6875 -27.1445
q-14.9092 -13.5723 -31.6436 -25.6367q-16.7344 -12.0635 -34.3809 -18.0957q-17.6475 -6.03223 -35.5986 -4.22266q-17.9521 1.80957 -34.3818 15.6836zM41.3789 219.383q5.47754 -19.3027 24.3418 -17.7949q18.8633 1.50879 43.8125 18.3984
q24.9502 16.8896 51.7246 46.1455q26.7754 29.2559 48.0732 65.1465q21.2979 35.8916 32.5557 75.7031t5.78125 78.417q-14.6045 11.4609 -36.5117 0.905273q-21.9062 -10.5566 -46.5518 -34.3828q-24.6445 -23.8271 -48.6816 -56.7021q-24.0361 -32.875 -42.292 -66.3535
q-18.2559 -33.4775 -27.6875 -63.0352t-4.56445 -46.4473z" />
    <glyph glyph-name="guillemotleft" unicode="&#xab;" horiz-adv-x="682" 
d="M396 11q-81 54 -163 107.5t-154 119.5q-16 14 -32.5 28.5t-26 29.5t-8 31.5t21.5 34.5q9 8 27.5 24.5t42 38t49.5 44.5t49 44.5t41.5 38t27.5 24.5q5 2 14 0t16.5 -6.5t10 -11.5t-5.5 -16l-215 -214q-11 -11 2 -29t34 -36t41.5 -32t24.5 -17q13 -9 46.5 -31.5t71.5 -47.5
t71.5 -47.5t47.5 -30.5q10 -13 12 -25.5t-3.5 -20.5t-16.5 -9t-26 9zM594 38q-80 54 -162 107.5t-154 119.5q-16 14 -32.5 28.5t-25.5 29.5t-7.5 31t21.5 34q9 8 27.5 25t41.5 38.5t49 44.5t49 44.5t41.5 38t27.5 24.5q5 2 14 0t16.5 -6.5t10 -11.5t-5.5 -15l-215 -216
q-7 -7 -3 -17.5t14.5 -22.5t25 -24t28 -22t24 -17.5t12.5 -8.5q9 -6 27.5 -18.5t41.5 -28.5t49 -33.5t49.5 -33t42 -27.5t27.5 -18q10 -13 12 -25.5t-3 -20t-16 -8.5t-27 9z" />
    <glyph glyph-name="logicalnot" unicode="&#xac;" horiz-adv-x="515" 
d="M470 165q-11 -21 -22 -12t-20 35.5t-13.5 64t-2.5 74.5q-15 1 -43 -2.5t-62 -7t-71 -6.5t-70 -2t-58 7.5t-35 21.5q-6 8 20.5 18.5t69.5 19t95 13t98 1.5t78 -15t35 -37z" />
    <glyph glyph-name="registered" unicode="&#xae;" horiz-adv-x="682" 
d="M99 22q-51 36 -72.5 94.5t-18.5 128t28 143.5t65.5 141t95 121t116.5 83.5t129.5 28.5t135.5 -45q51 -31 70 -85t13 -121t-33.5 -139.5t-70.5 -139.5t-98 -122.5t-115.5 -88t-123 -35t-121.5 35.5zM114 62q40 -29 83.5 -28.5t88 21.5t87 59.5t79.5 86.5t66.5 102
t47.5 105t23 96.5t-8 76.5q-15 69 -54 93t-90 14.5t-108.5 -47.5t-109.5 -93t-93 -121.5t-60 -132.5t-10 -127t58 -105zM136 159q-4 10 5.5 33.5t26 54t36.5 63.5t37 61.5t28 48.5t9 25q-6 2 -13 -1t-13.5 -6t-13 -3.5t-11.5 5.5t1.5 11.5t9.5 7.5q82 53 151 74.5t114 19.5
t60.5 -24t-9.5 -56.5t-96 -78.5t-199 -89q-4 -8 15 -20t47.5 -25t60 -27.5t52 -28t23.5 -25.5t-25 -20q-1 0 -15 6t-31 14.5t-32 15.5t-16 8q-42 31 -70.5 37.5t-47 -1.5t-29.5 -24.5t-19.5 -31.5t-16.5 -23.5t-19 -0.5zM262 353q84 22 134.5 47t74.5 48t25 41.5t-13.5 28
t-40.5 7.5t-57.5 -20t-64 -55t-58.5 -97z" />
    <glyph glyph-name="degree" unicode="&#xb0;" horiz-adv-x="328" 
d="M66 425q-25 10 -31.5 27.5t0 37.5t22 41t35 39t39.5 29.5t35 13.5q50 6 72 -9.5t22.5 -40.5t-16.5 -55t-44.5 -52.5t-63 -33t-70.5 2.5zM73 470q5 -19 19.5 -23t33.5 2t39 19.5t36 29.5t25.5 33t7 29.5t-20 18.5t-54.5 1q-13 -11 -30 -20.5t-31.5 -21.5t-22.5 -28t-2 -40
z" />
    <glyph glyph-name="plusminus" unicode="&#xb1;" horiz-adv-x="380" 
d="M45 42q-4 4 5.5 9t28 11t43.5 11.5t52 10.5q-8 29 -10.5 59.5t-5.5 55.5h-113l-23 28q2 2 11 6.5t12 4.5q6 1 22 4.5t34 7.5t34.5 7t22.5 5l22 157q1 6 6.5 9.5t11.5 3.5t11 -3t5 -10v-146q6 0 20.5 -1.5t31 -3.5t30.5 -3.5t20 -2.5l11 -5.5t11 -6.5q-11 -17 -28.5 -22.5
t-36.5 -8t-35.5 -6.5t-23.5 -19q-13 -26 -8 -52.5t8 -51.5q33 4 62.5 5.5t47.5 -2t21 -12.5t-16 -25q-54 -6 -97.5 -16.5t-79 -16t-62 -3t-45.5 21.5z" />
    <glyph glyph-name="twosuperior" unicode="&#xb2;" horiz-adv-x="309" 
d="M20.7305 139.306q-6.88867 4.30566 -5.65918 9.00293q1.23047 4.69629 5.65918 9.00195q18.6982 17.6143 37.3965 33.8584q18.6992 16.2432 35.9209 33.0742q17.2227 16.8311 32.7227 35.0322t27.8018 39.3379q6.39648 10.959 5.16602 16.4395
q-1.22949 5.47949 -7.38086 6.84961q-6.15039 1.37012 -15.5 -0.391602q-9.34863 -1.76074 -19.4365 -4.69727q-10.0869 -2.93555 -19.4365 -6.06641q-9.34961 -3.13184 -15.0078 -4.69727q-5.65918 -1.56543 -6.64258 -0.586914q-0.984375 0.978516 5.9043 6.45801
q8.85742 8.21973 21.8975 14.4824q13.0391 6.2627 26.5713 9.19824q13.5312 2.93555 25.5869 2.15332q12.0557 -0.783203 19.6826 -6.06738t8.36523 -15.4609t-8.11914 -26.2246q-10.333 -18.7881 -26.3252 -35.0322t-32.7227 -31.9004q-16.7295 -15.6572 -32.4756 -31.5098
t-25.0957 -34.249q7.87305 -1.95703 24.3574 1.56641q16.4844 3.52246 37.1504 9.39355q20.667 5.87109 43.0557 12.1338q22.3896 6.2627 42.8096 9.78613q20.4209 3.52246 36.167 2.73926q15.7461 -0.782227 22.6357 -9.00195q0.983398 -0.783203 0.983398 -4.50195
t-0.983398 -4.50098q-14.7627 1.95703 -35.4297 -1.76172q-20.666 -3.71777 -44.0391 -9.98145q-23.373 -6.26172 -47.7305 -13.5039q-24.3574 -7.24121 -46.5 -11.9375q-22.1436 -4.69727 -40.8418 -5.08887t-30.5078 6.6543z" />
    <glyph glyph-name="threesuperior" unicode="&#xb3;" horiz-adv-x="226" 
d="M13.0576 201.32q-1.14453 2.14258 -2.28809 4.82031t-1.71582 5.08887q-0.572266 2.41016 0.19043 4.55273t3.81348 3.74902q4.19434 1.60742 8.95996 0.803711t9.91309 -2.67773q5.14746 -1.875 10.1045 -3.48145q4.95703 -1.60742 9.53223 -1.07227
q8.00684 1.07227 23.0674 10.7129q15.0615 9.64258 32.0283 23.8369q16.9678 14.1943 33.1719 31.335q16.2051 17.1406 26.1182 33.7461q9.91406 16.6045 10.6758 30.2637q0.762695 13.6582 -12.9629 21.6934q-6.86328 1.60742 -17.9209 -1.875
q-11.0576 -3.48145 -23.2588 -8.57031q-12.2012 -5.08789 -24.4023 -10.1768t-21.3516 -6.42773q-9.15137 -1.33887 -13.917 2.94629q-4.7666 4.28516 -2.47852 17.6758q4.95703 8.03516 13.5352 20.8906q8.5791 12.8555 17.54 27.585q8.95996 14.7305 16.9668 30.2646
q8.00684 15.5332 12.2012 29.9961l-5.91016 -2.14258t-14.4883 -5.08887q-8.5791 -2.94629 -17.9209 -5.08887t-16.5859 -2.14258t-10.4854 3.21387t0.953125 11.249q0.762695 1.60645 7.81641 7.7666q7.05371 6.15918 17.5391 13.123t22.4961 13.6592t22.4961 9.37305
q10.4854 2.67871 17.3486 0q6.86328 -2.67773 7.24414 -13.9258q0.381836 -11.249 -7.43457 -32.9424q-7.81641 -21.6943 -27.2627 -57.0459v-18.2129q30.5029 3.21484 47.6611 -4.0166t23.4492 -21.4258t3.0498 -32.9424q-3.24023 -18.748 -14.1074 -38.5664
q-10.8662 -19.8184 -27.834 -38.834q-16.9668 -19.0156 -38.1289 -32.9424q-21.1611 -13.9268 -44.9912 -21.1582t-48.2324 -4.0166q-0.762695 0.535156 -2.28809 2.94531t-1.90625 3.48242z" />
    <glyph glyph-name="acute" unicode="&#xb4;" horiz-adv-x="233" 
d="M85 430q-33 -24 -46.5 -24t-12 14.5t15 37.5t34 45t45.5 37t49 14q6 -30 -0.5 -44t-20 -23.5t-31.5 -21t-33 -35.5z" />
    <glyph glyph-name="mu" unicode="&#xb5;" horiz-adv-x="401" 
d="M197 -192q-16 90 -38.5 166.5t-46 140t-44 114t-32.5 88t-13 61t15 34.5q9 -10 29.5 -41t47.5 -70.5t57.5 -82.5t60 -76.5t55 -52t42.5 -9.5q5 23 -5 53.5t-27 63.5t-36 66.5t-31 62.5t-14 52t16 34q7 -7 21.5 -30t31.5 -54.5t34.5 -68.5t30.5 -71.5t20 -63.5t3 -44
q-11 -45 -32 -53t-46 5t-51.5 40.5t-50.5 54t-42 44t-25 11.5q-3 -17 7.5 -49.5t26.5 -71t34 -80t30 -77t14.5 -61t-11.5 -32.5z" />
    <glyph glyph-name="paragraph" unicode="&#xb6;" horiz-adv-x="559" 
d="M191 -38q-1 1 -1 4.5t1 5.5q6 12 22 41t34 61t34 61t23 41q10 19 19.5 35t22 41t32 65t51.5 107q-47 -5 -70 4q-10 -29 -32 -78.5t-49.5 -105t-57.5 -111t-57 -97.5t-47.5 -64t-29.5 -10q-3 17 2.5 38.5t15 44t20 43.5l18.5 37q6 11 20 40t30.5 62.5t30.5 65t20 46.5
q-26 9 -53.5 4.5t-51 -6t-39.5 6.5t-19 42q-4 58 37 93t107.5 46.5t148 0t157.5 -44.5q-6 -14 -21.5 -47.5t-37 -78t-47 -96t-53 -101t-54.5 -93t-51.5 -72.5t-43.5 -39t-31 8z" />
    <glyph glyph-name="periodcentered" unicode="&#xb7;" horiz-adv-x="322" 
d="M156 218q-13 20 -13 41t9 38.5t23.5 29t30.5 14t31 -7t24 -33.5q8 -22 -2.5 -45.5t-29 -38.5t-39.5 -17t-34 19z" />
    <glyph glyph-name="cedilla" unicode="&#xb8;" horiz-adv-x="242" 
d="M52 -158q-5 14 9.5 19.5t35 8.5t40.5 7.5t26 16.5q6 13 2 18.5t-14 8.5t-22.5 4t-23.5 4t-18 9.5t-5 19.5q-4 22 -3 41t5.5 27t12 0.5t16.5 -37.5q6 -19 27 -26t41.5 -12t33.5 -14t4 -31q-2 -8 -19 -25t-41 -32t-50.5 -22t-45.5 4q-2 1 -6 5t-5 6z" />
    <glyph glyph-name="onesuperior" unicode="&#xb9;" horiz-adv-x="198" 
d="M13.0527 165.264q-10.4688 8.54199 -9.07324 23.3477q1.39551 14.8066 7.67676 30.751q6.28223 15.9453 13.959 29.6123q7.67773 13.667 11.167 19.3613q2.09375 4.55566 8.72461 17.9375q6.62988 13.3828 15.7031 31.3203q9.07324 17.9385 18.8447 37.8691
q9.77051 19.9316 18.8438 37.8691t15.7041 31.3203q6.62988 13.3818 8.72363 17.9375q1.39648 3.41699 3.83887 11.1045q2.44336 7.6875 5.93262 15.9453q3.49023 8.25684 7.67773 15.9443t9.77051 11.3896q5.58398 3.70117 12.5635 1.99316
q6.97852 -1.70898 15.3545 -11.959q0.697266 -0.569336 -5.23438 -14.5215q-5.93262 -13.9512 -16.0527 -37.0146q-10.1201 -23.0625 -23.0322 -52.3896t-26.8701 -59.793q-13.959 -30.4668 -27.5693 -59.7939q-13.6094 -29.3271 -24.4277 -52.3896
q-10.8174 -23.0635 -18.1455 -37.2998q-7.3291 -14.2363 -8.72461 -14.8057t-7.32812 1.70801q-5.93262 2.27832 -8.02637 4.55566z" />
    <glyph glyph-name="ordmasculine" unicode="&#xba;" horiz-adv-x="328" 
d="M66 425q-25 10 -31.5 27.5t0 37.5t22 41t35 39t39.5 29.5t35 13.5q50 6 72 -9.5t22.5 -40.5t-16.5 -55t-44.5 -52.5t-63 -33t-70.5 2.5zM73 470q5 -19 19.5 -23t33.5 2t39 19.5t36 29.5t25.5 33t7 29.5t-20 18.5t-54.5 1q-13 -11 -30 -20.5t-31.5 -21.5t-22.5 -28t-2 -40
z" />
    <glyph glyph-name="guillemotright" unicode="&#xbb;" horiz-adv-x="589" 
d="M39 23q-10 19 4 43t40 51t58 56t59 57.5t43.5 56t10.5 52.5q-1 2 -19 16.5t-43.5 35.5t-55.5 45.5t-54.5 47.5t-40 42t-13.5 28q1 4 9.5 12.5t12.5 9.5q21 -16 54.5 -37.5t68.5 -46t67 -52t51 -57t20.5 -61t-24.5 -62.5q-8 -10 -23 -28.5t-33.5 -40.5t-38 -45t-37 -43.5
t-30.5 -36t-18 -21.5q-2 -3 -8.5 -9.5l-13.5 -13.5l-13.5 -13.5t-9.5 -8.5q-3 2 -12 10.5t-11 12.5zM258 29q-10 19 3.5 43t39.5 51t58.5 55.5t59.5 57.5t43 56.5t10 52.5q-1 2 -18.5 16.5t-43.5 35t-55.5 45t-54.5 47.5t-40.5 42t-13.5 28q0 5 9 13.5t14 9.5q21 -17 54 -38
t68 -45.5t67 -52.5t51.5 -57.5t21 -60.5t-24.5 -62q-8 -10 -23.5 -28t-33.5 -40t-38 -46t-37 -44.5t-30 -36t-18 -21.5q-3 -3 -9.5 -9t-14 -13t-14 -13.5t-9.5 -8.5q-3 2 -11 10.5t-10 12.5z" />
    <glyph glyph-name="onequarter" unicode="&#xbc;" horiz-adv-x="674" 
d="M40.1641 168.417q-9.2373 7.38574 -8.00586 20.1895q1.23242 12.8037 6.77441 26.5908q5.54297 13.7891 12.3174 25.6074q6.77344 11.8184 9.85352 16.7422q1.84766 3.93945 7.69727 15.5117q5.85059 11.5723 13.8574 27.084q8.00586 15.5117 16.627 32.7461
q8.62207 17.2354 16.6279 32.7471t13.8564 27.084q5.85059 11.5713 7.69824 15.5107q1.23145 2.95508 3.3877 9.60254q2.15527 6.64844 5.23438 13.7881q3.0791 7.14062 6.77441 13.7881q3.69434 6.64844 8.62207 9.84863q4.92578 3.20117 11.085 1.72363
q6.1582 -1.47754 13.5479 -10.3408q0.616211 -0.492188 -4.61816 -12.5566q-5.23535 -12.0645 -14.165 -32.0088q-8.92969 -19.9434 -20.3223 -45.3037q-11.3936 -25.3594 -23.71 -51.7051q-12.3174 -26.3447 -24.3262 -51.7051t-21.5547 -45.3037t-16.0117 -32.2549
q-6.4668 -12.3105 -7.69824 -12.8027t-6.46582 1.47754q-5.23535 1.96973 -7.08301 3.93945zM127.864 30.8447q-4.9209 37.4648 2.87109 90.21q7.79199 52.7461 24.1953 112.393q16.4033 59.6475 38.5488 122.745t45.5205 122.252q23.376 59.1533 45.1104 110.913
q21.7354 51.7598 38.1396 88.2383q9.02148 6.90137 14.7627 2.95801t9.02246 -12.3242q3.28027 -8.37988 4.10059 -18.7314q0.820312 -10.3525 0 -16.2676q-4.9209 -12.8164 -16.8135 -44.3652t-25.0156 -67.042q-13.123 -35.4922 -25.0166 -67.041
q-11.8926 -31.5488 -15.9932 -44.3652q-4.10156 -9.85938 -11.8926 -34.0137q-7.79199 -24.1543 -16.8145 -50.7744q-9.02148 -26.6191 -16.8135 -50.2803q-7.79199 -23.6621 -10.2529 -32.5352q-4.10059 -13.8027 -9.8418 -41.9004q-5.74121 -28.0986 -13.123 -60.1406
q-7.38184 -32.041 -15.584 -62.1113q-8.20117 -30.0703 -17.2236 -47.8164q-2.46094 -2.95801 -6.56152 -6.4082q-4.10156 -3.4502 -8.20215 -4.92969q-4.10059 -1.47852 -8.20215 0.986328q-4.10059 2.46484 -4.9209 10.3516zM319.869 22.7529
q-4.0752 15.8965 2.3291 32.0264q6.4043 16.1289 14.5547 32.0254q8.15137 15.8965 14.2646 31.5586t1.45508 31.0898q-11.6436 1.40332 -26.7812 -1.63574t-31.1484 -7.71387q-16.0107 -4.67578 -32.3135 -9.35156q-16.3018 -4.6748 -31.4395 -6.31152
q-15.1377 -1.63574 -27.6553 1.16895q-12.5176 2.80566 -21.251 13.0908q-7.56836 9.35059 -6.11328 21.2725q1.45605 11.9219 8.7334 25.7148q7.27832 13.792 18.3398 28.7529q11.0625 14.9609 22.415 29.4541q11.3535 14.4932 20.96 28.0518t14.2646 25.2471
q13.3906 2.80469 19.5039 0.233398t6.98633 -8.41602q0.874023 -5.84375 -2.32812 -13.792q-3.20215 -7.94727 -7.86035 -15.8955t-9.31543 -14.9609t-6.98633 -10.7529q-2.91113 -3.74023 -9.31543 -13.5586t-13.6826 -20.5713q-7.27734 -10.7529 -13.9727 -20.5713
t-9.02441 -13.5586v-10.7529q13.9727 -1.40332 29.6934 0.701172q15.7197 2.10352 31.1484 5.61035q15.4277 3.50586 30.2744 7.71387t27.0732 7.0127q28.5283 6.5459 45.7041 19.6367q17.1748 13.0908 28.5283 30.623t19.5039 38.5713q8.15137 21.0391 18.6309 43.4805
q13.3906 3.27246 16.8848 -3.03906q3.49316 -6.31152 1.16406 -18t-9.02441 -26.8828t-13.3906 -29.2207t-11.6445 -25.0127q-4.94922 -10.9873 -4.36621 -14.2598q9.89746 2.80469 19.5039 0.233398t13.6816 -10.5186q-3.49316 -6.5459 -11.3525 -8.88379
q-7.86035 -2.33691 -16.5938 -4.20801q-8.7334 -1.86914 -17.1748 -4.44141q-8.44238 -2.57129 -13.6826 -9.11621q-12.2266 -15.4287 -20.959 -32.2598q-8.7334 -16.8311 -15.7197 -34.5967q-6.9873 -17.7666 -12.2266 -35.7666q-5.24023 -18 -10.4805 -34.8311
q-4.0752 -0.93457 -11.3525 -0.233398q-7.27832 0.701172 -8.44238 5.84375z" />
    <glyph glyph-name="onehalf" unicode="&#xbd;" horiz-adv-x="569" 
d="M8.4668 167.694q-7.47852 7.76562 -6.48145 21.2256q0.99707 13.4609 5.4834 27.9561q4.4873 14.4961 9.9707 26.9209q5.48438 12.4248 7.97656 17.6016q1.49609 4.1416 6.23242 16.3076t11.2168 28.4736t13.4609 34.4268q6.97852 18.1201 13.46 34.4268
q6.48145 16.3076 11.2168 28.4736q4.73633 12.166 6.23145 16.3076q0.998047 3.10645 2.74219 10.0957q1.74512 6.98828 4.23828 14.4951q2.49219 7.50684 5.4834 14.4961q2.99121 6.98828 6.97949 10.3535t8.97363 1.8125q4.98535 -1.55371 10.9678 -10.8721
q0.498047 -0.517578 -3.73926 -13.2012t-11.4658 -33.6504t-16.4521 -47.6289q-9.22266 -26.6611 -19.1934 -54.3584t-19.6924 -54.3584q-9.7207 -26.6621 -17.4482 -47.6289t-12.9619 -33.9092t-6.23242 -13.46q-0.996094 -0.517578 -5.23438 1.55273
q-4.2373 2.07129 -5.73242 4.1416zM64.9873 7.15527q-4.69238 38.5352 2.7373 92.79q7.42871 54.2539 23.0703 115.607q15.6406 61.3525 36.7559 126.255t43.4033 125.748q22.2881 60.8467 43.0117 114.087q20.7246 53.2402 36.3652 90.7617
q8.60254 7.09863 14.0771 3.04199t8.60254 -12.6758q3.12793 -8.62012 3.91016 -19.2686q0.782227 -10.6475 0 -16.7324q-4.69238 -13.1836 -16.0322 -45.6348t-23.8525 -68.958q-12.5127 -36.5078 -23.8516 -68.959q-11.3398 -32.4512 -15.25 -45.6348
q-3.91016 -10.1406 -11.3398 -34.9863t-16.0322 -52.2256q-8.60254 -27.3809 -16.0312 -51.7197q-7.42969 -24.3379 -9.77539 -33.4648q-3.91016 -14.1973 -9.38477 -43.0996q-5.47461 -28.9014 -12.5127 -61.8594q-7.03809 -32.959 -14.8594 -63.8887
q-7.82031 -30.9297 -16.4229 -49.1836q-2.3457 -3.04199 -6.25586 -6.5918t-7.82031 -5.07031q-3.91016 -1.52148 -7.82031 1.01367t-4.69238 10.6484zM157.26 45.7217q-7.93066 5.72168 -6.51465 11.9629q1.41699 6.24219 6.51465 11.9639q21.5254 23.4062 43.0518 44.9922
q21.5254 21.5859 41.3516 43.9512q19.8271 22.3662 37.6709 46.5527q17.8438 24.1875 32.0049 52.2744q7.36426 14.5645 5.94824 21.8467q-1.41602 7.28125 -8.49707 9.10156q-7.08105 1.82129 -17.8438 -0.519531t-22.376 -6.24219q-11.6123 -3.90039 -22.375 -8.06152
t-17.2773 -6.24219q-6.51465 -2.08008 -7.64746 -0.780273q-1.13281 1.30078 6.79785 8.58203q10.1963 10.9238 25.208 19.2461q15.0107 8.32227 30.5889 12.2227q15.5781 3.90137 29.4561 2.86133q13.8789 -1.04102 22.6592 -8.0625t9.62988 -20.5459
q0.849609 -13.5234 -9.34668 -34.8486q-11.8955 -24.9668 -30.3057 -46.5527q-18.4111 -21.5859 -37.6709 -42.3916t-37.3867 -41.8721q-18.127 -21.0654 -28.8896 -45.5117q9.06348 -2.60156 28.04 2.08008t42.7686 12.4834t49.5654 16.124
q25.7744 8.32227 49.2832 13.0039q23.5078 4.68164 41.6348 3.64062q18.127 -1.04004 26.0576 -11.9629q1.13281 -1.04004 1.13281 -5.98145t-1.13281 -5.98145q-16.9941 2.60059 -40.7852 -2.34082q-23.792 -4.94141 -50.6992 -13.2637t-54.9473 -17.9453
q-28.04 -9.62207 -53.5312 -15.8643q-25.4912 -6.24121 -47.0166 -6.76172q-21.5254 -0.519531 -35.1211 8.84277z" />
    <glyph glyph-name="threequarters" unicode="&#xbe;" horiz-adv-x="674" 
d="M14.5479 196.55q-1.29785 2.35645 -2.59668 5.30176q-1.29785 2.94531 -1.94629 5.59668q-0.649414 2.65137 0.21582 5.00684q0.865234 2.35742 4.32715 4.12402q4.75879 1.76758 10.168 0.883789q5.4082 -0.883789 11.249 -2.94531q5.8418 -2.0625 11.4668 -3.8291
q5.62402 -1.76758 10.8164 -1.17871q9.08594 1.17871 26.1768 11.7822q17.0908 10.6045 36.3457 26.2158q19.2539 15.6113 37.6426 34.4629t29.6387 37.1143q11.249 18.2627 12.1152 33.2842q0.865234 15.0225 -14.7119 23.8594q-7.78809 1.76758 -20.335 -2.06152
q-12.5479 -3.8291 -26.3936 -9.42578l-27.6914 -11.1934t-24.2305 -7.06934q-10.3838 -1.47266 -15.793 3.24023q-5.4082 4.71289 -2.81152 19.4404q5.62402 8.83691 15.3594 22.9756t19.9033 30.3389t19.2539 33.2852q9.08691 17.084 13.8457 32.9902l-6.70605 -2.35645
t-16.4414 -5.59668t-20.3359 -5.59668t-18.8223 -2.35645q-8.2207 0 -11.8984 3.53418q-3.67773 3.53516 1.08203 12.3721q0.865234 1.7666 8.87012 8.54199q8.00391 6.77441 19.9033 14.4336q11.8984 7.6582 25.5273 15.0215q13.6299 7.36426 25.5283 10.3096
q11.8984 2.94629 19.6865 0q7.78809 -2.94531 8.2207 -15.3164q0.432617 -12.3721 -8.43652 -36.2305q-8.87012 -23.8594 -30.9365 -62.7402v-20.0303q34.6143 3.53516 54.085 -4.41797q19.4697 -7.95312 26.6094 -23.5645q7.13867 -15.6113 3.46094 -36.2305
t-16.0088 -42.416t-31.585 -42.7109q-19.2549 -20.9131 -43.2686 -36.2305q-24.0137 -15.3164 -51.0557 -23.2695q-27.043 -7.95312 -54.7344 -4.41797q-0.865234 0.588867 -2.5957 3.24023q-1.73047 2.65039 -2.16309 3.8291zM138.668 17.2588
q-4.08691 38.8926 2.38379 93.6494q6.47168 54.7578 20.0967 116.68q13.624 61.9209 32.0166 127.425t37.8076 126.914q19.4141 61.4102 37.4668 115.144q18.0518 53.7334 31.6758 91.6035q7.49316 7.16406 12.2617 3.07031t7.49414 -12.7939
q2.72461 -8.69922 3.40527 -19.4463q0.681641 -10.7471 0 -16.8877q-4.08691 -13.3057 -13.9648 -46.0576q-9.87695 -32.752 -20.7764 -69.5977t-20.7773 -69.5977t-13.2832 -46.0576q-3.40625 -10.2354 -9.87793 -35.3105q-6.47168 -25.0762 -13.9648 -52.7109
q-7.49316 -27.6338 -13.9648 -52.1982q-6.47168 -24.5635 -8.51562 -33.7754q-3.40527 -14.3291 -8.17383 -43.499q-4.76855 -29.1689 -10.8994 -62.4326t-12.9434 -64.4805t-14.3057 -49.6396q-2.04395 -3.07129 -5.44922 -6.65332q-3.40625 -3.58203 -6.8125 -5.11719
t-6.8125 1.02344q-3.40527 2.55859 -4.08691 10.7471zM326.579 21.4834q-3.88379 19.9326 2.21973 40.1582q6.10254 20.2246 13.8701 40.1572t13.5928 39.5713q5.8252 19.6396 1.38672 38.9854q-11.0957 1.75879 -25.5215 -2.05176q-14.4248 -3.81055 -29.6816 -9.67285
q-15.2578 -5.86328 -30.792 -11.7256q-15.5352 -5.8623 -29.96 -7.91406t-26.3535 1.46582q-11.9277 3.51758 -20.25 16.415q-7.21289 11.7246 -5.82617 26.6738q1.3877 14.9492 8.32227 32.2432q6.93555 17.2939 17.4766 36.0537t21.3604 36.9336
q10.8184 18.1738 19.9727 35.1748q9.15527 17.001 13.5928 31.6572q12.7607 3.5166 18.5869 0.292969q5.8252 -3.22461 6.65723 -10.5527t-2.21875 -17.2939q-3.05176 -9.96582 -7.49023 -19.9326q-4.43848 -9.96582 -8.87695 -18.7598q-4.43848 -8.79297 -6.6582 -13.4834
q-2.77344 -4.68945 -8.87695 -17.001q-6.10254 -12.3115 -13.0371 -25.7949q-6.93555 -13.4834 -13.3154 -25.7939q-6.38086 -12.3115 -8.59961 -17.002v-13.4834q13.3154 -1.75879 28.2949 0.879883q14.9795 2.6377 29.6826 7.03516q14.7021 4.39648 28.8496 9.67285
t25.7988 8.79297q27.1855 8.20801 43.5527 24.6221q16.3672 16.415 27.1855 38.3994t18.5859 48.3652t17.7539 54.5205q12.7607 4.10352 16.0898 -3.81055q3.32812 -7.91406 1.10938 -22.5703t-8.59961 -33.709q-6.37988 -19.0527 -12.7607 -36.6406
q-6.37988 -17.5869 -11.0957 -31.3633q-4.71582 -13.7773 -4.16113 -17.8809q9.43164 3.51758 18.5859 0.292969t13.0381 -13.1904q-3.3291 -8.20703 -10.8193 -11.1387q-7.48926 -2.93066 -15.8115 -5.27637q-8.32227 -2.34473 -16.3672 -5.56934
q-8.04492 -3.22363 -13.0381 -11.4316q-11.6504 -19.3457 -19.9727 -40.4502q-8.32227 -21.1055 -14.9805 -43.3818q-6.65723 -22.2773 -11.6504 -44.8477t-9.98633 -43.6758q-3.88379 -1.17188 -10.8193 -0.292969q-6.93457 0.879883 -8.04492 7.32812z" />
    <glyph glyph-name="questiondown" unicode="&#xbf;" horiz-adv-x="406" 
d="M135.748 626.685q4.12793 -9.44043 6.4502 -18.8818t-0.257812 -20.5986q-3.6123 -18.8818 -7.48242 -18.8818t-6.9668 9.87012t-4.64453 25.3193q-1.54785 15.4482 -1.03223 26.1768t3.87012 12.4453t10.0635 -15.4492zM142.973 414.69
q3.6123 -22.3154 -9.80469 -51.4961q-13.418 -29.1816 -35.6074 -61.3672q-22.1904 -32.1855 -49.541 -65.6582q-27.3516 -33.4727 -52.6377 -65.2285q-25.2871 -31.7568 -44.6387 -59.6504q-19.3516 -27.8945 -25.0283 -48.9219q-5.67676 -21.0283 5.93457 -33.0439
t48.251 -12.0156h139.85q4.12891 -13.7324 1.03223 -26.1777q-3.0957 -12.4443 -12.9014 -12.4443h-145.526q-12.9014 0 -28.3828 12.0156t-26.3193 31.3271q-10.8369 19.3105 -13.417 43.7715t9.80469 48.4932q23.2227 45.4883 53.9277 78.9609
q30.7051 33.4736 61.668 65.2295q30.9639 31.7559 59.0889 68.2324q28.124 36.4775 46.7021 87.9736q1.54785 3.43359 4.12891 6.4375q2.58008 3.00391 5.16016 3.8623q2.58008 0.857422 4.90234 -1.28809t3.35449 -9.01172z" />
    <glyph glyph-name="Agrave" unicode="&#xc0;" horiz-adv-x="847" 
d="M-78 -185q-3 2 -9.5 9.5t-10.5 15.5t-3.5 14t11.5 6q21 -29 59 -22t82 34.5t89.5 69t82 82.5t60 74t23.5 44q0 3 -8 9.5t-18.5 13.5l-19.5 13t-11 9q3 10 19 15.5t36 10t39.5 9t29.5 11.5q53 77 92.5 138.5t75 121t72.5 122.5t85 142q13 22 21 15t12 -34t5 -68.5t0 -89.5
t-3.5 -98t-5 -92t-4 -72.5t-0.5 -39.5q4 -51 5.5 -88.5t9.5 -69t27.5 -61t59.5 -64.5q-33 -11 -54.5 1.5t-35 38t-22 59t-16 65t-17 55t-25.5 30.5q-1 0 -5.5 0.5t-10 0.5t-10.5 -0.5t-7 -0.5q-9 -2 -33.5 -8t-53.5 -13t-55.5 -14t-38.5 -10q-25 -7 -52.5 -32t-58 -60.5
t-63 -77.5t-66.5 -82t-69 -74t-70 -55t-70.5 -23.5t-69.5 20.5zM464 255q2 -1 10.5 -1t11.5 1q18 3 45 7t54 9.5t50 13t32 16.5l3 21t7 53.5t8.5 72t8.5 77.5t6.5 70.5t3.5 50.5q-11 5 -29 -25.5t-46.5 -83.5t-69 -123.5t-95.5 -146.5v-12zM756 781q-14 24 -29 34t-26.5 18
t-17 21t0.5 43q22 2 44 -13t40.5 -36t30 -43.5t12.5 -36t-12 -13t-43 25.5z" />
    <glyph glyph-name="Aacute" unicode="&#xc1;" horiz-adv-x="847" 
d="M-78 -185q-3 2 -9.5 9.5t-10.5 15.5t-3.5 14t11.5 6q21 -29 59 -22t82 34.5t89.5 69t82 82.5t60 74t23.5 44q0 3 -8 9.5t-18.5 13.5l-19.5 13t-11 9q3 10 19 15.5t36 10t39.5 9t29.5 11.5q53 77 92.5 138.5t75 121t72.5 122.5t85 142q13 22 21 15t12 -34t5 -68.5t0 -89.5
t-3.5 -98t-5 -92t-4 -72.5t-0.5 -39.5q4 -51 5.5 -88.5t9.5 -69t27.5 -61t59.5 -64.5q-33 -11 -54.5 1.5t-35 38t-22 59t-16 65t-17 55t-25.5 30.5q-1 0 -5.5 0.5t-10 0.5t-10.5 -0.5t-7 -0.5q-9 -2 -33.5 -8t-53.5 -13t-55.5 -14t-38.5 -10q-25 -7 -52.5 -32t-58 -60.5
t-63 -77.5t-66.5 -82t-69 -74t-70 -55t-70.5 -23.5t-69.5 20.5zM464 255q2 -1 10.5 -1t11.5 1q18 3 45 7t54 9.5t50 13t32 16.5l3 21t7 53.5t8.5 72t8.5 77.5t6.5 70.5t3.5 50.5q-11 5 -29 -25.5t-46.5 -83.5t-69 -123.5t-95.5 -146.5v-12zM665 749q-33 -24 -46.5 -24
t-12 14.5t15 37.5t34 45t45.5 37t49 14q6 -30 -0.5 -44t-20 -23.5t-31.5 -21t-33 -35.5z" />
    <glyph glyph-name="Acircumflex" unicode="&#xc2;" horiz-adv-x="847" 
d="M-78 -185q-3 2 -9.5 9.5t-10.5 15.5t-3.5 14t11.5 6q21 -29 59 -22t82 34.5t89.5 69t82 82.5t60 74t23.5 44q0 3 -8 9.5t-18.5 13.5l-19.5 13t-11 9q3 10 19 15.5t36 10t39.5 9t29.5 11.5q53 77 92.5 138.5t75 121t72.5 122.5t85 142q13 22 21 15t12 -34t5 -68.5t0 -89.5
t-3.5 -98t-5 -92t-4 -72.5t-0.5 -39.5q4 -51 5.5 -88.5t9.5 -69t27.5 -61t59.5 -64.5q-33 -11 -54.5 1.5t-35 38t-22 59t-16 65t-17 55t-25.5 30.5q-1 0 -5.5 0.5t-10 0.5t-10.5 -0.5t-7 -0.5q-9 -2 -33.5 -8t-53.5 -13t-55.5 -14t-38.5 -10q-25 -7 -52.5 -32t-58 -60.5
t-63 -77.5t-66.5 -82t-69 -74t-70 -55t-70.5 -23.5t-69.5 20.5zM464 255q2 -1 10.5 -1t11.5 1q18 3 45 7t54 9.5t50 13t32 16.5l3 21t7 53.5t8.5 72t8.5 77.5t6.5 70.5t3.5 50.5q-11 5 -29 -25.5t-46.5 -83.5t-69 -123.5t-95.5 -146.5v-12zM761 756q-2 3 -7.5 18.5t-12.5 32
t-14.5 26.5t-14.5 3q-4 -6 -16.5 -27t-30.5 -41t-38 -31.5t-39 0.5q-5 3 -10.5 8.5t-1.5 13.5q5 9 18 19.5t27 21t26.5 21t17.5 19.5q22 47 40.5 64.5t33 14.5t25 -22t16.5 -43.5t8.5 -50t0 -42.5t-9.5 -20.5t-18 15.5z" />
    <glyph glyph-name="Atilde" unicode="&#xc3;" horiz-adv-x="847" 
d="M-78 -185q-3 2 -9.5 9.5t-10.5 15.5t-3.5 14t11.5 6q21 -29 59 -22t82 34.5t89.5 69t82 82.5t60 74t23.5 44q0 3 -8 9.5t-18.5 13.5l-19.5 13t-11 9q3 10 19 15.5t36 10t39.5 9t29.5 11.5q53 77 92.5 138.5t75 121t72.5 122.5t85 142q13 22 21 15t12 -34t5 -68.5t0 -89.5
t-3.5 -98t-5 -92t-4 -72.5t-0.5 -39.5q4 -51 5.5 -88.5t9.5 -69t27.5 -61t59.5 -64.5q-33 -11 -54.5 1.5t-35 38t-22 59t-16 65t-17 55t-25.5 30.5q-1 0 -5.5 0.5t-10 0.5t-10.5 -0.5t-7 -0.5q-9 -2 -33.5 -8t-53.5 -13t-55.5 -14t-38.5 -10q-25 -7 -52.5 -32t-58 -60.5
t-63 -77.5t-66.5 -82t-69 -74t-70 -55t-70.5 -23.5t-69.5 20.5zM464 255q2 -1 10.5 -1t11.5 1q18 3 45 7t54 9.5t50 13t32 16.5l3 21t7 53.5t8.5 72t8.5 77.5t6.5 70.5t3.5 50.5q-11 5 -29 -25.5t-46.5 -83.5t-69 -123.5t-95.5 -146.5v-12zM798 695q-29 5 -43.5 23.5t-23 39
t-14.5 36.5t-17.5 16t-33.5 -23t-61 -80q-20 -12 -26.5 -6t-3.5 22.5t14.5 39.5t28.5 45t38.5 38.5t44 20.5t45 -9t41.5 -50q9 -43 25.5 -59t38 -14.5t46.5 16t52 33.5t55 38.5t54 30.5q6 -10 -6 -28.5t-34.5 -40t-52 -42.5t-60.5 -35.5t-59.5 -19t-47.5 7.5z" />
    <glyph glyph-name="Adieresis" unicode="&#xc4;" horiz-adv-x="847" 
d="M-78 -185q-3 2 -9.5 9.5t-10.5 15.5t-3.5 14t11.5 6q21 -29 59 -22t82 34.5t89.5 69t82 82.5t60 74t23.5 44q0 3 -8 9.5t-18.5 13.5l-19.5 13t-11 9q3 10 19 15.5t36 10t39.5 9t29.5 11.5q53 77 92.5 138.5t75 121t72.5 122.5t85 142q13 22 21 15t12 -34t5 -68.5t0 -89.5
t-3.5 -98t-5 -92t-4 -72.5t-0.5 -39.5q4 -51 5.5 -88.5t9.5 -69t27.5 -61t59.5 -64.5q-33 -11 -54.5 1.5t-35 38t-22 59t-16 65t-17 55t-25.5 30.5q-1 0 -5.5 0.5t-10 0.5t-10.5 -0.5t-7 -0.5q-9 -2 -33.5 -8t-53.5 -13t-55.5 -14t-38.5 -10q-25 -7 -52.5 -32t-58 -60.5
t-63 -77.5t-66.5 -82t-69 -74t-70 -55t-70.5 -23.5t-69.5 20.5zM464 255q2 -1 10.5 -1t11.5 1q18 3 45 7t54 9.5t50 13t32 16.5l3 21t7 53.5t8.5 72t8.5 77.5t6.5 70.5t3.5 50.5q-11 5 -29 -25.5t-46.5 -83.5t-69 -123.5t-95.5 -146.5v-12zM614 800q-14 21 -7.5 42
t22.5 32.5t35 9t30 -27.5q6 -15 -2 -31.5t-22 -27t-30 -11.5t-26 14zM758 805q-15 21 -8 42t23 32.5t35 9t29 -27.5q6 -15 -2 -31.5t-22 -27t-29.5 -11.5t-25.5 14z" />
    <glyph glyph-name="Aring" unicode="&#xc5;" horiz-adv-x="847" 
d="M-78 -185q-3 2 -9.5 9.5t-10.5 15.5t-3.5 14t11.5 6q21 -29 59 -22t82 34.5t89.5 69t82 82.5t60 74t23.5 44q0 3 -8 9.5t-18.5 13.5l-19.5 13t-11 9q3 10 19 15.5t36 10t39.5 9t29.5 11.5q53 77 92.5 138.5t75 121t72.5 122.5t85 142q13 22 21 15t12 -34t5 -68.5t0 -89.5
t-3.5 -98t-5 -92t-4 -72.5t-0.5 -39.5q4 -51 5.5 -88.5t9.5 -69t27.5 -61t59.5 -64.5q-33 -11 -54.5 1.5t-35 38t-22 59t-16 65t-17 55t-25.5 30.5q-1 0 -5.5 0.5t-10 0.5t-10.5 -0.5t-7 -0.5q-9 -2 -33.5 -8t-53.5 -13t-55.5 -14t-38.5 -10q-25 -7 -52.5 -32t-58 -60.5
t-63 -77.5t-66.5 -82t-69 -74t-70 -55t-70.5 -23.5t-69.5 20.5zM464 255q2 -1 10.5 -1t11.5 1q18 3 45 7t54 9.5t50 13t32 16.5l3 21t7 53.5t8.5 72t8.5 77.5t6.5 70.5t3.5 50.5q-11 5 -29 -25.5t-46.5 -83.5t-69 -123.5t-95.5 -146.5v-12zM643 755q-25 10 -31 26.5t0.5 36
t23 40t36 37t40 27.5t35.5 13q50 6 71.5 -8.5t21.5 -39t-17.5 -53.5t-45.5 -51t-63.5 -31.5t-70.5 3.5zM657 815q5 -27 25 -29t44 9.5t45.5 30.5t28.5 36t-6 26t-58 0q-13 -11 -25.5 -18.5t-23 -15t-18.5 -16.5t-12 -23z" />
    <glyph glyph-name="AE" unicode="&#xc6;" horiz-adv-x="1593" 
d="M550 -97q-5 5 4 11q9 36 20 68.5t23 64.5q6 24 10 45t5 37.5t-1 28t-9 16.5q-1 0 -5.5 1t-10 2t-10.5 2t-7 1q-9 0 -31 8.5t-47.5 18.5t-49.5 18t-36 7q-25 -2 -57.5 -21t-69 -48t-76.5 -64t-81 -68t-82 -60t-80 -40t-74 -9t-64 33q-3 3 -7.5 11t-7 17t-1 15t12.5 4
q12 -25 36.5 -31t57.5 1t71 24.5t76.5 40.5t74 49t63.5 49t45.5 41.5t19.5 26.5q0 3 -6.5 10.5t-15.5 16.5l-17 17t-9 11q5 9 21.5 11.5t37 3t40.5 0.5t31 5q45 43 80.5 76t67 60.5t60.5 53t60 53.5t65.5 61.5t77.5 78.5q27 28 41.5 32.5t20.5 -8.5t4 -41.5t-9 -65.5
q34 13 81.5 26.5t101 25.5t110 22.5t108.5 17.5t96 9.5t73.5 -1.5t39.5 -14.5t-5 -30.5q-9 -2 -18.5 -0.5t-19.5 4.5t-20.5 5.5t-20.5 1.5q-48 -4 -94.5 -14t-92.5 -22t-92 -23.5t-94 -19.5q-75 -13 -114 -37t-56.5 -57.5t-21.5 -77t-8 -95.5q11 -3 41.5 4t70 17.5t83 21
t82.5 15t68 0t39 -23.5q1 -2 1 -6t-1 -5q-53 -8 -109.5 -14.5t-112 -16.5t-108.5 -26.5t-100 -44.5q-1 -1 -3 -5q-2 -7 -3 -13.5t-3 -11.5q-11 -57 -31.5 -119.5t-40.5 -119.5q30 8 62.5 15.5t60.5 13.5t47.5 9.5t24.5 4.5q85 13 163.5 20.5t163.5 2.5q7 -2 10 -8t3.5 -13.5
t0 -14.5t-1.5 -10q-110 6 -217 -8t-213 -37q-12 -3 -27 -8.5t-31.5 -11.5t-34 -11.5t-33.5 -8.5q-20 -57 -27.5 -97t6.5 -51q-23 -3 -34 8.5t-14 33.5t0.5 51.5t10.5 62.5q-7 3 -8 10zM438 283q2 -1 10.5 -3t10.5 -1q18 -2 41.5 -13t45 -24t36.5 -23l15 -10l27 18q1 1 1 2
q0 3 1 5q-4 7 -4.5 14.5t8.5 15.5q0 2 8 2q9 27 21 64.5t24.5 76.5t22.5 73t15 54q-4 -8 -14.5 -22t-39.5 -41t-82.5 -69.5t-144.5 -107.5z" />
    <glyph glyph-name="Ccedilla" unicode="&#xc7;" horiz-adv-x="633" 
d="M107 11q-61 24 -84 65t-18.5 91.5t32 108t68 115.5t89.5 113t97 101t90 80t68 50q36 22 60 21.5t38.5 -15t20 -40t5 -54t-6 -57t-14 -49.5t-18 -31t-18.5 -1q-1 8 2 24.5t7.5 37.5t8.5 43t5.5 40.5t-1 31.5t-11.5 15q-35 9 -83.5 -16.5t-101 -73t-104 -110t-93.5 -128.5
t-69 -128.5t-30.5 -110t21 -73t86.5 -16.5q57 8 105.5 40.5t94 72t90.5 78t94 58.5q18 7 28.5 -5t5.5 -29q-6 -17 -35.5 -45t-73 -58.5t-95.5 -61t-101.5 -52.5t-92 -32t-66.5 0zM218 -128q-5 14 9.5 19.5t35 8.5t40.5 7.5t26 16.5q6 13 2 18.5t-14 8.5t-22.5 4t-23.5 4
t-18 9.5t-5 19.5q-4 22 -3 41t5.5 27t12 0.5t16.5 -37.5q6 -19 27 -26t41.5 -12t33.5 -14t4 -31q-2 -8 -19 -25t-41 -32t-50.5 -22t-45.5 4q-2 1 -6 5t-5 6z" />
    <glyph glyph-name="Egrave" unicode="&#xc8;" horiz-adv-x="746" 
d="M18 23q-6 5 3 11q10 36 20.5 69t22.5 65.5t25.5 66t28.5 70.5q5 9 -1.5 18.5t-15 19t-12 20t7.5 21.5q1 1 7.5 3t14.5 3.5t14.5 3t8.5 2.5q3 2 11.5 10.5t10.5 11.5q16 27 30.5 48t27 42t22.5 44t18 54q3 12 -5.5 15.5t-19.5 6.5t-18 9.5t-1 24.5q4 11 38.5 24t87.5 25
t119 22t132 16t126 7.5t102 -4t60 -19t-1 -37.5q-9 -2 -18.5 -0.5t-19.5 4.5t-21 5.5t-21 1.5q-48 -4 -94 -3t-92 1t-92 -3.5t-92 -16.5q-32 -9 -57 -31.5t-47.5 -57t-45 -79.5t-50.5 -99q11 -3 41.5 4t70 17.5t83.5 21t82.5 15t67.5 0t39 -23.5q1 -2 1 -6t-1 -5
q-53 -8 -109.5 -14.5t-112 -16.5t-108.5 -26.5t-100 -44.5q-38 -67 -68 -138t-53 -144q29 10 67.5 19.5t74 17.5t62 13t31.5 6q85 13 163.5 20.5t163.5 2.5q7 -2 10 -8t4 -13.5t0 -14.5t-2 -10q-109 6 -216.5 -8t-213.5 -37q-17 -4 -41.5 -14t-50 -18t-49 -11t-39.5 8
q-4 2 -7 5t-4 8zM415 788q-14 24 -29 34t-26.5 18t-17 21t0.5 43q22 2 44 -13t40.5 -36t30 -43.5t12.5 -36t-12 -13t-43 25.5z" />
    <glyph glyph-name="Eacute" unicode="&#xc9;" horiz-adv-x="746" 
d="M18 23q-6 5 3 11q10 36 20.5 69t22.5 65.5t25.5 66t28.5 70.5q5 9 -1.5 18.5t-15 19t-12 20t7.5 21.5q1 1 7.5 3t14.5 3.5t14.5 3t8.5 2.5q3 2 11.5 10.5t10.5 11.5q16 27 30.5 48t27 42t22.5 44t18 54q3 12 -5.5 15.5t-19.5 6.5t-18 9.5t-1 24.5q4 11 38.5 24t87.5 25
t119 22t132 16t126 7.5t102 -4t60 -19t-1 -37.5q-9 -2 -18.5 -0.5t-19.5 4.5t-21 5.5t-21 1.5q-48 -4 -94 -3t-92 1t-92 -3.5t-92 -16.5q-32 -9 -57 -31.5t-47.5 -57t-45 -79.5t-50.5 -99q11 -3 41.5 4t70 17.5t83.5 21t82.5 15t67.5 0t39 -23.5q1 -2 1 -6t-1 -5
q-53 -8 -109.5 -14.5t-112 -16.5t-108.5 -26.5t-100 -44.5q-38 -67 -68 -138t-53 -144q29 10 67.5 19.5t74 17.5t62 13t31.5 6q85 13 163.5 20.5t163.5 2.5q7 -2 10 -8t4 -13.5t0 -14.5t-2 -10q-109 6 -216.5 -8t-213.5 -37q-17 -4 -41.5 -14t-50 -18t-49 -11t-39.5 8
q-4 2 -7 5t-4 8zM404 770q-33 -24 -46.5 -24t-12 14.5t15 37.5t34 45t45.5 37t49 14q6 -30 -0.5 -44t-20 -23.5t-31.5 -21t-33 -35.5z" />
    <glyph glyph-name="Ecircumflex" unicode="&#xca;" horiz-adv-x="746" 
d="M18 23q-6 5 3 11q10 36 20.5 69t22.5 65.5t25.5 66t28.5 70.5q5 9 -1.5 18.5t-15 19t-12 20t7.5 21.5q1 1 7.5 3t14.5 3.5t14.5 3t8.5 2.5q3 2 11.5 10.5t10.5 11.5q16 27 30.5 48t27 42t22.5 44t18 54q3 12 -5.5 15.5t-19.5 6.5t-18 9.5t-1 24.5q4 11 38.5 24t87.5 25
t119 22t132 16t126 7.5t102 -4t60 -19t-1 -37.5q-9 -2 -18.5 -0.5t-19.5 4.5t-21 5.5t-21 1.5q-48 -4 -94 -3t-92 1t-92 -3.5t-92 -16.5q-32 -9 -57 -31.5t-47.5 -57t-45 -79.5t-50.5 -99q11 -3 41.5 4t70 17.5t83.5 21t82.5 15t67.5 0t39 -23.5q1 -2 1 -6t-1 -5
q-53 -8 -109.5 -14.5t-112 -16.5t-108.5 -26.5t-100 -44.5q-38 -67 -68 -138t-53 -144q29 10 67.5 19.5t74 17.5t62 13t31.5 6q85 13 163.5 20.5t163.5 2.5q7 -2 10 -8t4 -13.5t0 -14.5t-2 -10q-109 6 -216.5 -8t-213.5 -37q-17 -4 -41.5 -14t-50 -18t-49 -11t-39.5 8
q-4 2 -7 5t-4 8zM472 796q-2 3 -7.5 18.5t-12.5 32t-14.5 26.5t-14.5 3q-4 -6 -16.5 -27t-30.5 -41t-38 -31.5t-39 0.5q-5 3 -10.5 8.5t-1.5 13.5q5 9 18 19.5t27 21t26.5 21t17.5 19.5q22 47 40.5 64.5t33 14.5t25 -22t16.5 -43.5t8.5 -50t0 -42.5t-9.5 -20.5t-18 15.5z
" />
    <glyph glyph-name="Edieresis" unicode="&#xcb;" horiz-adv-x="746" 
d="M18 23q-6 5 3 11q10 36 20.5 69t22.5 65.5t25.5 66t28.5 70.5q5 9 -1.5 18.5t-15 19t-12 20t7.5 21.5q1 1 7.5 3t14.5 3.5t14.5 3t8.5 2.5q3 2 11.5 10.5t10.5 11.5q16 27 30.5 48t27 42t22.5 44t18 54q3 12 -5.5 15.5t-19.5 6.5t-18 9.5t-1 24.5q4 11 38.5 24t87.5 25
t119 22t132 16t126 7.5t102 -4t60 -19t-1 -37.5q-9 -2 -18.5 -0.5t-19.5 4.5t-21 5.5t-21 1.5q-48 -4 -94 -3t-92 1t-92 -3.5t-92 -16.5q-32 -9 -57 -31.5t-47.5 -57t-45 -79.5t-50.5 -99q11 -3 41.5 4t70 17.5t83.5 21t82.5 15t67.5 0t39 -23.5q1 -2 1 -6t-1 -5
q-53 -8 -109.5 -14.5t-112 -16.5t-108.5 -26.5t-100 -44.5q-38 -67 -68 -138t-53 -144q29 10 67.5 19.5t74 17.5t62 13t31.5 6q85 13 163.5 20.5t163.5 2.5q7 -2 10 -8t4 -13.5t0 -14.5t-2 -10q-109 6 -216.5 -8t-213.5 -37q-17 -4 -41.5 -14t-50 -18t-49 -11t-39.5 8
q-4 2 -7 5t-4 8zM368 774q-14 21 -7.5 42t22.5 32.5t35 9t30 -27.5q6 -15 -2 -31.5t-22 -27t-30 -11.5t-26 14zM512 779q-15 21 -8 42t23 32.5t35 9t29 -27.5q6 -15 -2 -31.5t-22 -27t-29.5 -11.5t-25.5 14z" />
    <glyph glyph-name="Igrave" unicode="&#xcc;" horiz-adv-x="220" 
d="M11 34q-2 7 -0.5 19.5t4 25.5t5.5 23t3 11l226 588q7 18 13 13.5t9.5 -19t3.5 -33t-4 -29.5q-32 -76 -64.5 -152.5t-62 -154t-55.5 -156t-44 -159.5q-8 -5 -13.5 -4t-10 5.5t-7 10.5t-3.5 11zM215 772q-14 24 -29 34t-26.5 18t-17 21t0.5 43q22 2 44 -13t40.5 -36
t30 -43.5t12.5 -36t-12 -13t-43 25.5z" />
    <glyph glyph-name="Iacute" unicode="&#xcd;" horiz-adv-x="220" 
d="M11 34q-2 7 -0.5 19.5t4 25.5t5.5 23t3 11l226 588q7 18 13 13.5t9.5 -19t3.5 -33t-4 -29.5q-32 -76 -64.5 -152.5t-62 -154t-55.5 -156t-44 -159.5q-8 -5 -13.5 -4t-10 5.5t-7 10.5t-3.5 11zM176 744q-33 -24 -46.5 -24t-12 14.5t15 37.5t34 45t45.5 37t49 14
q6 -30 -0.5 -44t-20 -23.5t-31.5 -21t-33 -35.5z" />
    <glyph glyph-name="Icircumflex" unicode="&#xce;" horiz-adv-x="220" 
d="M11 34q-2 7 -0.5 19.5t4 25.5t5.5 23t3 11l226 588q7 18 13 13.5t9.5 -19t3.5 -33t-4 -29.5q-32 -76 -64.5 -152.5t-62 -154t-55.5 -156t-44 -159.5q-8 -5 -13.5 -4t-10 5.5t-7 10.5t-3.5 11zM331 748q-2 3 -7.5 18.5t-12.5 32t-14.5 26.5t-14.5 3q-4 -6 -16.5 -27
t-30.5 -41t-38 -31.5t-39 0.5q-5 3 -10.5 8.5t-1.5 13.5q5 9 18 19.5t27 21t26.5 21t17.5 19.5q22 47 40.5 64.5t33 14.5t25 -22t16.5 -43.5t8.5 -50t0 -42.5t-9.5 -20.5t-18 15.5z" />
    <glyph glyph-name="Idieresis" unicode="&#xcf;" horiz-adv-x="220" 
d="M11 34q-2 7 -0.5 19.5t4 25.5t5.5 23t3 11l226 588q7 18 13 13.5t9.5 -19t3.5 -33t-4 -29.5q-32 -76 -64.5 -152.5t-62 -154t-55.5 -156t-44 -159.5q-8 -5 -13.5 -4t-10 5.5t-7 10.5t-3.5 11zM144 787q-14 21 -7.5 42t22.5 32.5t35 9t30 -27.5q6 -15 -2 -31.5t-22 -27
t-30 -11.5t-26 14zM288 792q-15 21 -8 42t23 32.5t35 9t29 -27.5q6 -15 -2 -31.5t-22 -27t-29.5 -11.5t-25.5 14z" />
    <glyph glyph-name="Eth" unicode="&#xd0;" horiz-adv-x="823" 
d="M-23 342q-12 12 -0.5 23t38 20.5t65 16.5t81.5 12q16 35 30.5 67t22.5 52q-9 29 -3.5 51.5t19.5 41t34 34t40 30.5q57 42 123 65t134.5 25.5t136.5 -17.5t128 -65q48 -40 56.5 -87t-13.5 -96.5t-68.5 -100.5t-108.5 -100t-134.5 -94.5t-145 -84t-141 -68t-122 -46.5
t-87.5 -20.5t-39 10.5q-5 15 2 26.5t21 19.5q62 31 121 52.5t116.5 43t114.5 48t116 68.5q131 76 201 142t93 119.5t6 94t-59 65.5t-102.5 33.5t-125.5 -1.5t-127 -39.5t-107 -81.5q-1 -2 -3 -7t-3.5 -10.5l-3 -11t-1.5 -6.5q-11 -45 -21 -81t-21 -66q40 1 75.5 -1t61 -8.5
t37.5 -18t4 -27.5q-11 0 -36.5 -1.5t-54.5 -3.5t-55 -3.5t-36 -1.5q-5 -1 -11.5 -2t-13.5 -2q-15 -31 -30 -57.5t-30 -53.5t-30 -57t-30 -69q-18 -6 -25.5 1t-8.5 21.5t3.5 33.5t10.5 37t12 33t8 21q5 13 12.5 31t17.5 38q-21 -4 -42.5 -7t-40 -2t-34.5 6t-27 16z" />
    <glyph glyph-name="Ntilde" unicode="&#xd1;" horiz-adv-x="830" 
d="M11 23q7 31 24.5 69t38.5 75t41 70.5t32 56.5q6 12 18.5 36.5t28 56t33 65.5t33 65.5t28 56t18.5 36.5q31 32 51.5 18t36.5 -57t29 -106t28 -129t34 -126t46 -97q13 -6 31.5 13t40.5 55.5t46 85.5t48.5 103t47.5 109t43 101.5t34.5 81.5t22.5 49q7 13 14.5 12.5t12.5 -8
t7.5 -19t-0.5 -20.5q-32 -87 -60 -157t-57.5 -135t-63 -132.5t-76.5 -149.5q-32 -39 -62 -43.5t-62 43.5q-33 58 -52 110t-32.5 102.5t-24.5 103t-27 113.5q-9 6 -30 -21t-48.5 -72t-57.5 -101t-57 -108t-48 -93t-30 -57q-5 -9 -12.5 -22l-15 -26t-13 -22l-5.5 -9h-34
q-1 2 -1 11t1 12zM513 684q-29 5 -43.5 23.5t-23 39t-14.5 36.5t-17.5 16t-33.5 -23t-61 -80q-20 -12 -26.5 -6t-3.5 22.5t14.5 39.5t28.5 45t38.5 38.5t44 20.5t45 -9t41.5 -50q9 -43 25.5 -59t38 -14.5t46.5 16t52 33.5t55 38.5t54 30.5q6 -10 -6 -28.5t-34.5 -40
t-52 -42.5t-60.5 -35.5t-59.5 -19t-47.5 7.5z" />
    <glyph glyph-name="Ograve" unicode="&#xd2;" horiz-adv-x="527" 
d="M97 11q-50 21 -66 58.5t-11 81t24.5 87.5t40.5 78q7 12 26 41t40.5 61.5t41 61t27.5 39.5q12 77 48 122.5t81.5 62.5t93.5 7.5t84 -43t52 -89.5t-2.5 -131t-78.5 -168t-176 -201q-20 -19 -47.5 -36.5t-58 -28.5t-61.5 -13t-58 10zM62 90q10 -45 38 -56t66 4t83 51
t90 84.5t86 105.5t71.5 113t46.5 107t10.5 88.5t-36 56.5t-93.5 11q-23 -20 -61 -58.5t-81 -87.5t-86 -105.5t-76 -112.5t-50 -108t-8 -93zM397 779q-14 24 -29 34t-26.5 18t-17 21t0.5 43q22 2 44 -13t40.5 -36t30 -43.5t12.5 -36t-12 -13t-43 25.5z" />
    <glyph glyph-name="Oacute" unicode="&#xd3;" horiz-adv-x="527" 
d="M97 11q-50 21 -66 58.5t-11 81t24.5 87.5t40.5 78q7 12 26 41t40.5 61.5t41 61t27.5 39.5q12 77 48 122.5t81.5 62.5t93.5 7.5t84 -43t52 -89.5t-2.5 -131t-78.5 -168t-176 -201q-20 -19 -47.5 -36.5t-58 -28.5t-61.5 -13t-58 10zM62 90q10 -45 38 -56t66 4t83 51
t90 84.5t86 105.5t71.5 113t46.5 107t10.5 88.5t-36 56.5t-93.5 11q-23 -20 -61 -58.5t-81 -87.5t-86 -105.5t-76 -112.5t-50 -108t-8 -93zM351 736q-33 -24 -46.5 -24t-12 14.5t15 37.5t34 45t45.5 37t49 14q6 -30 -0.5 -44t-20 -23.5t-31.5 -21t-33 -35.5z" />
    <glyph glyph-name="Ocircumflex" unicode="&#xd4;" horiz-adv-x="527" 
d="M97 11q-50 21 -66 58.5t-11 81t24.5 87.5t40.5 78q7 12 26 41t40.5 61.5t41 61t27.5 39.5q12 77 48 122.5t81.5 62.5t93.5 7.5t84 -43t52 -89.5t-2.5 -131t-78.5 -168t-176 -201q-20 -19 -47.5 -36.5t-58 -28.5t-61.5 -13t-58 10zM62 90q10 -45 38 -56t66 4t83 51
t90 84.5t86 105.5t71.5 113t46.5 107t10.5 88.5t-36 56.5t-93.5 11q-23 -20 -61 -58.5t-81 -87.5t-86 -105.5t-76 -112.5t-50 -108t-8 -93zM545 765q-2 3 -7.5 18.5t-12.5 32t-14.5 26.5t-14.5 3q-4 -6 -16.5 -27t-30.5 -41t-38 -31.5t-39 0.5q-5 3 -10.5 8.5t-1.5 13.5
q5 9 18 19.5t27 21t26.5 21t17.5 19.5q22 47 40.5 64.5t33 14.5t25 -22t16.5 -43.5t8.5 -50t0 -42.5t-9.5 -20.5t-18 15.5z" />
    <glyph glyph-name="Otilde" unicode="&#xd5;" horiz-adv-x="527" 
d="M97 11q-50 21 -66 58.5t-11 81t24.5 87.5t40.5 78q7 12 26 41t40.5 61.5t41 61t27.5 39.5q12 77 48 122.5t81.5 62.5t93.5 7.5t84 -43t52 -89.5t-2.5 -131t-78.5 -168t-176 -201q-20 -19 -47.5 -36.5t-58 -28.5t-61.5 -13t-58 10zM62 90q10 -45 38 -56t66 4t83 51
t90 84.5t86 105.5t71.5 113t46.5 107t10.5 88.5t-36 56.5t-93.5 11q-23 -20 -61 -58.5t-81 -87.5t-86 -105.5t-76 -112.5t-50 -108t-8 -93zM504 704q-29 5 -43.5 23.5t-23 39t-14.5 36.5t-17.5 16t-33.5 -23t-61 -80q-20 -12 -26.5 -6t-3.5 22.5t14.5 39.5t28.5 45
t38.5 38.5t44 20.5t45 -9t41.5 -50q9 -43 25.5 -59t38 -14.5t46.5 16t52 33.5t55 38.5t54 30.5q6 -10 -6 -28.5t-34.5 -40t-52 -42.5t-60.5 -35.5t-59.5 -19t-47.5 7.5z" />
    <glyph glyph-name="Odieresis" unicode="&#xd6;" horiz-adv-x="527" 
d="M97 11q-50 21 -66 58.5t-11 81t24.5 87.5t40.5 78q7 12 26 41t40.5 61.5t41 61t27.5 39.5q12 77 48 122.5t81.5 62.5t93.5 7.5t84 -43t52 -89.5t-2.5 -131t-78.5 -168t-176 -201q-20 -19 -47.5 -36.5t-58 -28.5t-61.5 -13t-58 10zM62 90q10 -45 38 -56t66 4t83 51
t90 84.5t86 105.5t71.5 113t46.5 107t10.5 88.5t-36 56.5t-93.5 11q-23 -20 -61 -58.5t-81 -87.5t-86 -105.5t-76 -112.5t-50 -108t-8 -93zM339 765q-14 21 -7.5 42t22.5 32.5t35 9t30 -27.5q6 -15 -2 -31.5t-22 -27t-30 -11.5t-26 14zM483 770q-15 21 -8 42t23 32.5t35 9
t29 -27.5q6 -15 -2 -31.5t-22 -27t-29.5 -11.5t-25.5 14z" />
    <glyph glyph-name="multiply" unicode="&#xd7;" horiz-adv-x="682" 
d="M86 90q-9 13 -1 26.5t25.5 26.5t40 26.5t42 28t31.5 30t8 32.5q-1 4 -6 22.5t-11 39.5t-11 39t-6 23v23q13 10 25.5 -6t24 -40.5t22 -48.5t18.5 -30q18 12 38.5 28.5t40.5 34t38 34t30 28.5q21 11 29.5 9.5t8.5 -10.5t-5.5 -22t-12.5 -25.5t-13.5 -21.5l-6.5 -9
q-59 -39 -86 -60.5t-33 -35.5t3.5 -25.5t23 -29.5t25 -49t10.5 -83q-29 -9 -44 1.5t-21.5 30.5t-8 45t-5 45.5t-12 31.5t-29 3t-56.5 -39.5t-93 -95.5q-3 2 -12 11t-11 12z" />
    <glyph glyph-name="Oslash" unicode="&#xd8;" horiz-adv-x="527" 
d="M97 11q-50 21 -66 58.5t-11 81t24.5 87.5t40.5 78q7 12 26 41t40.5 61.5t41 61t27.5 39.5q12 77 48 122.5t81.5 62.5t93.5 7.5t84 -43t52 -89.5t-2.5 -131t-78.5 -168t-176 -201q-20 -19 -47.5 -36.5t-58 -28.5t-61.5 -13t-58 10zM62 90q10 -45 38 -56t66 4t83 51
t90 84.5t86 105.5t71.5 113t46.5 107t10.5 88.5t-36 56.5t-93.5 11q-23 -20 -61 -58.5t-81 -87.5t-86 -105.5t-76 -112.5t-50 -108t-8 -93zM185.822 -93.7334q-6.99707 49.2832 4.08203 118.669q11.0791 69.3867 34.4023 147.852q23.3242 78.4639 54.8115 161.468
t64.7246 160.82q33.2363 77.8164 64.1406 145.905t54.2285 116.076q12.8281 9.07812 20.9912 3.89062t12.8281 -16.2119q4.66504 -11.0234 5.83105 -24.6416t0 -21.3994q-6.99707 -16.8604 -23.9072 -58.3623q-16.9092 -41.502 -35.5684 -88.1914t-35.5693 -88.1914
t-22.7412 -58.3623q-5.83105 -12.9697 -16.9102 -44.7441q-11.0781 -31.7754 -23.9062 -66.793q-12.8281 -35.0166 -23.9072 -66.1436q-11.0791 -31.126 -14.5781 -42.7988q-5.83105 -18.1572 -13.9941 -55.1201q-8.16309 -36.9619 -18.6592 -79.1123t-22.1572 -81.707
q-11.6621 -39.5566 -24.4902 -62.9014q-3.49902 -3.8916 -9.33008 -8.43066t-11.6621 -6.48438t-11.6621 1.29688t-6.99707 13.6182z" />
    <glyph glyph-name="Ugrave" unicode="&#xd9;" 
d="M91 11q-36 29 -49 75t-9 102t21 117.5t40.5 121t50 113.5t49 95t38 65t17.5 23q8 -4 11 -10.5t3.5 -14.5t-0.5 -16t-2 -15q-1 -2 -6 -11.5t-6 -11.5q-78 -171 -117 -286.5t-48 -184.5t8.5 -96.5t53 -22t85 39t105 86.5t112.5 121t108.5 142t92 149t63.5 143q2 2 5.5 6.5
t5.5 4.5q28 -19 21 -64.5t-38.5 -106.5t-83 -132t-112 -140t-124.5 -130.5t-122 -103.5t-103.5 -59.5t-69.5 1.5zM400 738q-14 24 -29 34t-26.5 18t-17 21t0.5 43q22 2 44 -13t40.5 -36t30 -43.5t12.5 -36t-12 -13t-43 25.5z" />
    <glyph glyph-name="Uacute" unicode="&#xda;" 
d="M91 11q-36 29 -49 75t-9 102t21 117.5t40.5 121t50 113.5t49 95t38 65t17.5 23q8 -4 11 -10.5t3.5 -14.5t-0.5 -16t-2 -15q-1 -2 -6 -11.5t-6 -11.5q-78 -171 -117 -286.5t-48 -184.5t8.5 -96.5t53 -22t85 39t105 86.5t112.5 121t108.5 142t92 149t63.5 143q2 2 5.5 6.5
t5.5 4.5q28 -19 21 -64.5t-38.5 -106.5t-83 -132t-112 -140t-124.5 -130.5t-122 -103.5t-103.5 -59.5t-69.5 1.5zM415 736q-33 -24 -46.5 -24t-12 14.5t15 37.5t34 45t45.5 37t49 14q6 -30 -0.5 -44t-20 -23.5t-31.5 -21t-33 -35.5z" />
    <glyph glyph-name="Ucircumflex" unicode="&#xdb;" 
d="M91 11q-36 29 -49 75t-9 102t21 117.5t40.5 121t50 113.5t49 95t38 65t17.5 23q8 -4 11 -10.5t3.5 -14.5t-0.5 -16t-2 -15q-1 -2 -6 -11.5t-6 -11.5q-78 -171 -117 -286.5t-48 -184.5t8.5 -96.5t53 -22t85 39t105 86.5t112.5 121t108.5 142t92 149t63.5 143q2 2 5.5 6.5
t5.5 4.5q28 -19 21 -64.5t-38.5 -106.5t-83 -132t-112 -140t-124.5 -130.5t-122 -103.5t-103.5 -59.5t-69.5 1.5zM540 777q-2 3 -7.5 18.5t-12.5 32t-14.5 26.5t-14.5 3q-4 -6 -16.5 -27t-30.5 -41t-38 -31.5t-39 0.5q-5 3 -10.5 8.5t-1.5 13.5q5 9 18 19.5t27 21t26.5 21
t17.5 19.5q22 47 40.5 64.5t33 14.5t25 -22t16.5 -43.5t8.5 -50t0 -42.5t-9.5 -20.5t-18 15.5z" />
    <glyph glyph-name="Udieresis" unicode="&#xdc;" 
d="M91 11q-36 29 -49 75t-9 102t21 117.5t40.5 121t50 113.5t49 95t38 65t17.5 23q8 -4 11 -10.5t3.5 -14.5t-0.5 -16t-2 -15q-1 -2 -6 -11.5t-6 -11.5q-78 -171 -117 -286.5t-48 -184.5t8.5 -96.5t53 -22t85 39t105 86.5t112.5 121t108.5 142t92 149t63.5 143q2 2 5.5 6.5
t5.5 4.5q28 -19 21 -64.5t-38.5 -106.5t-83 -132t-112 -140t-124.5 -130.5t-122 -103.5t-103.5 -59.5t-69.5 1.5zM367 807q-14 21 -7.5 42t22.5 32.5t35 9t30 -27.5q6 -15 -2 -31.5t-22 -27t-30 -11.5t-26 14zM511 812q-15 21 -8 42t23 32.5t35 9t29 -27.5q6 -15 -2 -31.5
t-22 -27t-29.5 -11.5t-25.5 14z" />
    <glyph glyph-name="Yacute" unicode="&#xdd;" horiz-adv-x="402" 
d="M56 -128q-12 30 -3 63t29 69.5t47 75.5t51 80.5t40 85.5t16 89q-4 9 -18 30.5t-33 50l-41 61.5t-42.5 64.5t-37 60t-24.5 47.5t-5 26.5t21 -1.5q14 -13 35 -41.5t43.5 -64t46 -73t43.5 -67t35 -47t22 -12.5q10 20 29.5 63.5t42.5 95t47.5 103t46 87.5t38 48.5t22.5 -13.5
q4 -15 -9 -52.5t-37 -90t-56.5 -117t-68 -133.5t-71 -138.5t-66.5 -133t-54 -116.5t-33 -89q-3 -10 -9.5 -19.5t-14.5 -13.5t-16.5 0.5t-15.5 21.5zM246 757q-33 -24 -46.5 -24t-12 14.5t15 37.5t34 45t45.5 37t49 14q6 -30 -0.5 -44t-20 -23.5t-31.5 -21t-33 -35.5z" />
    <glyph glyph-name="Thorn" unicode="&#xde;" horiz-adv-x="601" 
d="M13 -161q0 1 -13 3t-28.5 4.5t-28.5 5l-13 2.5q13 26 34.5 83t48 132t56 160.5t59.5 168t59 155t53 122.5t42.5 69.5t28.5 -4.5q15 -14 15.5 -31t-8 -38t-23.5 -45.5t-30 -53.5t-27.5 -63.5t-16.5 -73.5q105 80 179 109t118 22t59 -42t3.5 -83t-49 -101.5t-99 -96
t-147 -67.5t-191.5 -17q-1 1 -7 -22.5t-15 -59.5t-19 -78t-19 -78t-15 -59.5t-6 -22.5zM142 242q-2 -3 -2 -16t2 -17q50 -2 99.5 8.5t94 30.5t81 49t60 64t31.5 73.5t-4 79.5q-1 2 -13.5 1t-14.5 -1q-50 7 -103 -17.5t-99.5 -66.5t-81.5 -92.5t-50 -95.5z" />
    <glyph glyph-name="germandbls" unicode="&#xdf;" horiz-adv-x="664" 
d="M235 633q-35 -77 -68.5 -169.5t-57 -191t-32.5 -199t6 -193.5q-26 1 -39.5 30.5t-17.5 71t1 85.5t18 75q3 7 8 29.5t11.5 53.5t13.5 66t13 66t11 54t8 30q13 30 11.5 53t-4.5 43t-2 40t19 45q2 3 12 14.5t21.5 25t21.5 25t13 14.5q5 7 29 24t58.5 39t76.5 46t84.5 44
t81 33t66 14t40.5 -13.5t4 -50.5q-9 -35 -29 -66.5t-47 -61.5t-58 -58.5t-61 -57t-55.5 -57t-41.5 -57.5q115 -4 177.5 -25.5t84.5 -53.5t10 -71.5t-47 -78.5t-87 -74t-109 -59.5t-113 -34.5t-99 1l8 31q96 0 168.5 22.5t121.5 56t74.5 73.5t27 75.5t-21 61t-69.5 30
t-118 -17.5t-167 -81l20 109q32 27 74 63t86 75.5t86 79.5t73 76t47 65t9 45q-44 7 -94 -14.5t-98.5 -56t-90 -74.5t-68.5 -69z" />
    <glyph glyph-name="agrave" unicode="&#xe0;" horiz-adv-x="702" 
d="M57 23q-24 20 -26.5 59t11 88t40 102.5t61.5 102t76 87t82 57t80 13t71 -45.5q20 -25 24 -50.5t-1 -52t-16 -54t-21.5 -55.5t-17 -57t-2.5 -59q5 -38 34 -45t69.5 4t85.5 35t83.5 48t64 42l25.5 18q28 6 31.5 -3.5t-11 -28t-43.5 -42t-66 -45.5t-79 -40t-82 -24.5
t-75.5 1t-58.5 35.5q-11 12 -16.5 24t-17.5 21q-15 -14 -36 -36.5t-45.5 -45t-52 -42.5t-56.5 -30t-58.5 -7t-56.5 26zM68 57q9 -32 40 -29.5t72 30.5t85 76.5t79 108t53.5 125.5t9.5 130q-24 19 -60 1.5t-76.5 -57t-80 -94t-69.5 -110t-45.5 -104.5t-7.5 -77zM404 599
q-14 24 -29 34t-26.5 18t-17 21t0.5 43q22 2 44 -13t40.5 -36t30 -43.5t12.5 -36t-12 -13t-43 25.5z" />
    <glyph glyph-name="aacute" unicode="&#xe1;" horiz-adv-x="702" 
d="M57 23q-24 20 -26.5 59t11 88t40 102.5t61.5 102t76 87t82 57t80 13t71 -45.5q20 -25 24 -50.5t-1 -52t-16 -54t-21.5 -55.5t-17 -57t-2.5 -59q5 -38 34 -45t69.5 4t85.5 35t83.5 48t64 42l25.5 18q28 6 31.5 -3.5t-11 -28t-43.5 -42t-66 -45.5t-79 -40t-82 -24.5
t-75.5 1t-58.5 35.5q-11 12 -16.5 24t-17.5 21q-15 -14 -36 -36.5t-45.5 -45t-52 -42.5t-56.5 -30t-58.5 -7t-56.5 26zM68 57q9 -32 40 -29.5t72 30.5t85 76.5t79 108t53.5 125.5t9.5 130q-24 19 -60 1.5t-76.5 -57t-80 -94t-69.5 -110t-45.5 -104.5t-7.5 -77zM266 564
q-33 -24 -46.5 -24t-12 14.5t15 37.5t34 45t45.5 37t49 14q6 -30 -0.5 -44t-20 -23.5t-31.5 -21t-33 -35.5z" />
    <glyph glyph-name="acircumflex" unicode="&#xe2;" horiz-adv-x="702" 
d="M57 23q-24 20 -26.5 59t11 88t40 102.5t61.5 102t76 87t82 57t80 13t71 -45.5q20 -25 24 -50.5t-1 -52t-16 -54t-21.5 -55.5t-17 -57t-2.5 -59q5 -38 34 -45t69.5 4t85.5 35t83.5 48t64 42l25.5 18q28 6 31.5 -3.5t-11 -28t-43.5 -42t-66 -45.5t-79 -40t-82 -24.5
t-75.5 1t-58.5 35.5q-11 12 -16.5 24t-17.5 21q-15 -14 -36 -36.5t-45.5 -45t-52 -42.5t-56.5 -30t-58.5 -7t-56.5 26zM68 57q9 -32 40 -29.5t72 30.5t85 76.5t79 108t53.5 125.5t9.5 130q-24 19 -60 1.5t-76.5 -57t-80 -94t-69.5 -110t-45.5 -104.5t-7.5 -77zM412 661
q-2 3 -7.5 18.5t-12.5 32t-14.5 26.5t-14.5 3q-4 -6 -16.5 -27t-30.5 -41t-38 -31.5t-39 0.5q-5 3 -10.5 8.5t-1.5 13.5q5 9 18 19.5t27 21t26.5 21t17.5 19.5q22 47 40.5 64.5t33 14.5t25 -22t16.5 -43.5t8.5 -50t0 -42.5t-9.5 -20.5t-18 15.5z" />
    <glyph glyph-name="atilde" unicode="&#xe3;" horiz-adv-x="702" 
d="M57 23q-24 20 -26.5 59t11 88t40 102.5t61.5 102t76 87t82 57t80 13t71 -45.5q20 -25 24 -50.5t-1 -52t-16 -54t-21.5 -55.5t-17 -57t-2.5 -59q5 -38 34 -45t69.5 4t85.5 35t83.5 48t64 42l25.5 18q28 6 31.5 -3.5t-11 -28t-43.5 -42t-66 -45.5t-79 -40t-82 -24.5
t-75.5 1t-58.5 35.5q-11 12 -16.5 24t-17.5 21q-15 -14 -36 -36.5t-45.5 -45t-52 -42.5t-56.5 -30t-58.5 -7t-56.5 26zM68 57q9 -32 40 -29.5t72 30.5t85 76.5t79 108t53.5 125.5t9.5 130q-24 19 -60 1.5t-76.5 -57t-80 -94t-69.5 -110t-45.5 -104.5t-7.5 -77zM382 582
q-29 5 -43.5 23.5t-23 39t-14.5 36.5t-17.5 16t-33.5 -23t-61 -80q-20 -12 -26.5 -6t-3.5 22.5t14.5 39.5t28.5 45t38.5 38.5t44 20.5t45 -9t41.5 -50q9 -43 25.5 -59t38 -14.5t46.5 16t52 33.5t55 38.5t54 30.5q6 -10 -6 -28.5t-34.5 -40t-52 -42.5t-60.5 -35.5t-59.5 -19
t-47.5 7.5z" />
    <glyph glyph-name="adieresis" unicode="&#xe4;" horiz-adv-x="702" 
d="M57 23q-24 20 -26.5 59t11 88t40 102.5t61.5 102t76 87t82 57t80 13t71 -45.5q20 -25 24 -50.5t-1 -52t-16 -54t-21.5 -55.5t-17 -57t-2.5 -59q5 -38 34 -45t69.5 4t85.5 35t83.5 48t64 42l25.5 18q28 6 31.5 -3.5t-11 -28t-43.5 -42t-66 -45.5t-79 -40t-82 -24.5
t-75.5 1t-58.5 35.5q-11 12 -16.5 24t-17.5 21q-15 -14 -36 -36.5t-45.5 -45t-52 -42.5t-56.5 -30t-58.5 -7t-56.5 26zM68 57q9 -32 40 -29.5t72 30.5t85 76.5t79 108t53.5 125.5t9.5 130q-24 19 -60 1.5t-76.5 -57t-80 -94t-69.5 -110t-45.5 -104.5t-7.5 -77zM234 564
q-14 21 -7.5 42t22.5 32.5t35 9t30 -27.5q6 -15 -2 -31.5t-22 -27t-30 -11.5t-26 14zM378 569q-15 21 -8 42t23 32.5t35 9t29 -27.5q6 -15 -2 -31.5t-22 -27t-29.5 -11.5t-25.5 14z" />
    <glyph glyph-name="aring" unicode="&#xe5;" horiz-adv-x="702" 
d="M57 23q-24 20 -26.5 59t11 88t40 102.5t61.5 102t76 87t82 57t80 13t71 -45.5q20 -25 24 -50.5t-1 -52t-16 -54t-21.5 -55.5t-17 -57t-2.5 -59q5 -38 34 -45t69.5 4t85.5 35t83.5 48t64 42l25.5 18q28 6 31.5 -3.5t-11 -28t-43.5 -42t-66 -45.5t-79 -40t-82 -24.5
t-75.5 1t-58.5 35.5q-11 12 -16.5 24t-17.5 21q-15 -14 -36 -36.5t-45.5 -45t-52 -42.5t-56.5 -30t-58.5 -7t-56.5 26zM68 57q9 -32 40 -29.5t72 30.5t85 76.5t79 108t53.5 125.5t9.5 130q-24 19 -60 1.5t-76.5 -57t-80 -94t-69.5 -110t-45.5 -104.5t-7.5 -77zM266 524
q-25 10 -31 26.5t0.5 36t23 40t36 37t40 27.5t35.5 13q50 6 71.5 -8.5t21.5 -39t-17.5 -53.5t-45.5 -51t-63.5 -31.5t-70.5 3.5zM280 584q5 -27 25 -29t44 9.5t45.5 30.5t28.5 36t-6 26t-58 0q-13 -11 -25.5 -18.5t-23 -15t-18.5 -16.5t-12 -23z" />
    <glyph glyph-name="ae" unicode="&#xe6;" horiz-adv-x="1136" 
d="M57 23q-24 20 -26.5 59t11 88t40 102.5t61.5 102t76 87t82 57t80 13t71 -45.5q20 -25 24 -50.5t-1 -52t-16 -54t-21.5 -55.5t-17 -57t-2.5 -59q4 -29 23.5 -41.5t48 -14t63.5 6.5t71 21q84 30 190 87q12 -4 -7 -24t-56 -44.5t-87 -48t-100.5 -33.5t-95.5 -1.5t-72 47.5
q-9 13 -15.5 24.5t-18.5 20.5q-15 -14 -36 -36.5t-45.5 -45t-52 -42.5t-56.5 -30t-58.5 -7t-56.5 26zM68 57q9 -32 40 -29.5t72 30.5t85 76.5t79 108t53.5 125.5t9.5 130q-24 19 -60 1.5t-76.5 -57t-80 -94t-69.5 -110t-45.5 -104.5t-7.5 -77zM444 94q-30 10 -45.5 30.5
t-20.5 45.5t-1.5 52.5t11.5 52.5q30 32 67.5 73.5t79.5 81.5t87.5 74.5t92.5 52.5q16 7 25.5 -0.5t13.5 -23.5t3.5 -37t-3.5 -41t-8 -36t-10 -22q-12 -14 -46.5 -33t-76.5 -41.5t-84 -46.5t-69 -47.5t-32 -46.5t28 -42q34 -4 82.5 3.5t99 20t97.5 26t77 21.5l12 -11
q-22 -29 -72 -53t-108 -39.5t-113 -20t-87 6.5zM683 476q-1 2 -15 -8t-34.5 -25.5t-44 -34t-43 -34.5t-32.5 -27.5t-11 -11.5q16 -3 41.5 4.5t53 21.5t52.5 31.5t39.5 34.5t15 30t-21.5 19z" />
    <glyph glyph-name="ccedilla" unicode="&#xe7;" horiz-adv-x="559" 
d="M102 11q-51 17 -67.5 53t-9 81.5t34.5 96t64 96.5t78 83t77.5 56t62.5 15t32 -40q3 -16 -3.5 -35t-18 -36.5t-26 -32t-28 -21.5t-24 -5t-13.5 17q12 20 27 40.5t29 38.5q-6 11 -23 5t-41 -24t-50.5 -45.5t-51.5 -59.5t-44.5 -66.5t-28.5 -66.5t-4.5 -59.5t28.5 -44.5
q33 -3 76 6.5t88 24.5t89.5 32.5t81 32.5t62 23.5t33.5 4.5q19 -10 2.5 -29t-55.5 -41t-92.5 -43.5t-107.5 -37t-102 -22t-75 2.5zM190 -158q-5 14 9.5 19.5t35 8.5t40.5 7.5t26 16.5q6 13 2 18.5t-14 8.5t-22.5 4t-23.5 4t-18 9.5t-5 19.5q-4 22 -3 41t5.5 27t12 0.5
t16.5 -37.5q6 -19 27 -26t41.5 -12t33.5 -14t4 -31q-2 -8 -19 -25t-41 -32t-50.5 -22t-45.5 4q-2 1 -6 5t-5 6z" />
    <glyph glyph-name="egrave" unicode="&#xe8;" horiz-adv-x="435" 
d="M85 11q-30 10 -45.5 30.5t-20.5 45.5t-1.5 52.5t11.5 52.5q30 32 67.5 73.5t79.5 81.5t87.5 74.5t92.5 52.5q16 7 25.5 -0.5t13.5 -23.5t3.5 -37t-3.5 -41t-8 -36t-10 -22q-12 -14 -46.5 -33t-76.5 -41.5t-84 -46.5t-69 -47.5t-32 -46.5t28 -42q34 -4 82.5 3.5t99 20
t97.5 26t77 21.5l12 -11q-22 -29 -72 -53t-108 -39.5t-113 -20t-87 6.5zM324 393q-1 1 -15 -8.5t-34.5 -25t-44 -34t-43 -34.5t-32.5 -27.5t-11 -11.5q16 -3 41.5 4.5t53 21.5t52.5 31.5t39.5 34.5t15 30t-21.5 19zM209 533q-14 24 -29 34t-26.5 18t-17 21t0.5 43
q22 2 44 -13t40.5 -36t30 -43.5t12.5 -36t-12 -13t-43 25.5z" />
    <glyph glyph-name="eacute" unicode="&#xe9;" horiz-adv-x="435" 
d="M85 11q-30 10 -45.5 30.5t-20.5 45.5t-1.5 52.5t11.5 52.5q30 32 67.5 73.5t79.5 81.5t87.5 74.5t92.5 52.5q16 7 25.5 -0.5t13.5 -23.5t3.5 -37t-3.5 -41t-8 -36t-10 -22q-12 -14 -46.5 -33t-76.5 -41.5t-84 -46.5t-69 -47.5t-32 -46.5t28 -42q34 -4 82.5 3.5t99 20
t97.5 26t77 21.5l12 -11q-22 -29 -72 -53t-108 -39.5t-113 -20t-87 6.5zM324 393q-1 1 -15 -8.5t-34.5 -25t-44 -34t-43 -34.5t-32.5 -27.5t-11 -11.5q16 -3 41.5 4.5t53 21.5t52.5 31.5t39.5 34.5t15 30t-21.5 19zM216 430q-33 -24 -46.5 -24t-12 14.5t15 37.5t34 45
t45.5 37t49 14q6 -30 -0.5 -44t-20 -23.5t-31.5 -21t-33 -35.5z" />
    <glyph glyph-name="ecircumflex" unicode="&#xea;" horiz-adv-x="435" 
d="M85 11q-30 10 -45.5 30.5t-20.5 45.5t-1.5 52.5t11.5 52.5q30 32 67.5 73.5t79.5 81.5t87.5 74.5t92.5 52.5q16 7 25.5 -0.5t13.5 -23.5t3.5 -37t-3.5 -41t-8 -36t-10 -22q-12 -14 -46.5 -33t-76.5 -41.5t-84 -46.5t-69 -47.5t-32 -46.5t28 -42q34 -4 82.5 3.5t99 20
t97.5 26t77 21.5l12 -11q-22 -29 -72 -53t-108 -39.5t-113 -20t-87 6.5zM324 393q-1 1 -15 -8.5t-34.5 -25t-44 -34t-43 -34.5t-32.5 -27.5t-11 -11.5q16 -3 41.5 4.5t53 21.5t52.5 31.5t39.5 34.5t15 30t-21.5 19zM282 606q-2 3 -7.5 18.5t-12.5 32t-14.5 26.5t-14.5 3
q-4 -6 -16.5 -27t-30.5 -41t-38 -31.5t-39 0.5q-5 3 -10.5 8.5t-1.5 13.5q5 9 18 19.5t27 21t26.5 21t17.5 19.5q22 47 40.5 64.5t33 14.5t25 -22t16.5 -43.5t8.5 -50t0 -42.5t-9.5 -20.5t-18 15.5z" />
    <glyph glyph-name="edieresis" unicode="&#xeb;" horiz-adv-x="435" 
d="M85 11q-30 10 -45.5 30.5t-20.5 45.5t-1.5 52.5t11.5 52.5q30 32 67.5 73.5t79.5 81.5t87.5 74.5t92.5 52.5q16 7 25.5 -0.5t13.5 -23.5t3.5 -37t-3.5 -41t-8 -36t-10 -22q-12 -14 -46.5 -33t-76.5 -41.5t-84 -46.5t-69 -47.5t-32 -46.5t28 -42q34 -4 82.5 3.5t99 20
t97.5 26t77 21.5l12 -11q-22 -29 -72 -53t-108 -39.5t-113 -20t-87 6.5zM324 393q-1 1 -15 -8.5t-34.5 -25t-44 -34t-43 -34.5t-32.5 -27.5t-11 -11.5q16 -3 41.5 4.5t53 21.5t52.5 31.5t39.5 34.5t15 30t-21.5 19zM124 492q-14 21 -7.5 42t22.5 32.5t35 9t30 -27.5
q6 -15 -2 -31.5t-22 -27t-30 -11.5t-26 14zM268 497q-15 21 -8 42t23 32.5t35 9t29 -27.5q6 -15 -2 -31.5t-22 -27t-29.5 -11.5t-25.5 14z" />
    <glyph glyph-name="igrave" unicode="&#xec;" horiz-adv-x="254" 
d="M11 11q41 132 74.5 209.5t56 108.5t30.5 20t-1.5 -56t-40 -120.5t-85.5 -172.5q-8 -3 -19 -1t-15 12zM127 428q-14 24 -29 34t-26.5 18t-17 21t0.5 43q22 2 44 -13t40.5 -36t30 -43.5t12.5 -36t-12 -13t-43 25.5z" />
    <glyph glyph-name="iacute" unicode="&#xed;" horiz-adv-x="254" 
d="M11 11q4 -10 15 -12t19 1q55 97 85.5 172.5t40 120.5t1.5 56t-30.5 -20t-56 -108.5t-74.5 -209.5zM126 430q-33 -24 -46.5 -24t-12 14.5t15 37.5t34 45t45.5 37t49 14q6 -30 -0.5 -44t-20 -23.5t-31.5 -21t-33 -35.5z" />
    <glyph glyph-name="icircumflex" unicode="&#xee;" horiz-adv-x="254" 
d="M11 11q41 132 74.5 209.5t56 108.5t30.5 20t-1.5 -56t-40 -120.5t-85.5 -172.5q-8 -3 -19 -1t-15 12zM184 494q-2 3 -7.5 18.5t-12.5 32t-14.5 26.5t-14.5 3q-4 -6 -16.5 -27t-30.5 -41t-38 -31.5t-39 0.5q-5 3 -10.5 8.5t-1.5 13.5q5 9 18 19.5t27 21t26.5 21t17.5 19.5
q22 47 40.5 64.5t33 14.5t25 -22t16.5 -43.5t8.5 -50t0 -42.5t-9.5 -20.5t-18 15.5z" />
    <glyph glyph-name="idieresis" unicode="&#xef;" horiz-adv-x="254" 
d="M11 11q41 132 74.5 209.5t56 108.5t30.5 20t-1.5 -56t-40 -120.5t-85.5 -172.5q-8 -3 -19 -1t-15 12zM27 426q-14 21 -7.5 42t22.5 32.5t35 9t30 -27.5q6 -15 -2 -31.5t-22 -27t-30 -11.5t-26 14zM171 431q-15 21 -8 42t23 32.5t35 9t29 -27.5q6 -15 -2 -31.5t-22 -27
t-29.5 -11.5t-25.5 14z" />
    <glyph glyph-name="eth" unicode="&#xf0;" horiz-adv-x="314" 
d="M239 423q13 -9 18.5 -13.5t2 -11t-16.5 -19t-37 -37.5q25 -30 48 -71t37 -83t17.5 -80.5t-10.5 -62.5q-25 -36 -53.5 -49.5t-58 -10.5t-57.5 19.5t-51.5 41t-40.5 54.5t-24.5 60t-4 57t21.5 45q24 18 51.5 14t56 -20t57.5 -37t55 -37q4 11 -1 27t-15 34.5t-24.5 37.5
t-29.5 37q-11 -11 -22 -18.5t-19 -12.5q-14 -7 -8.5 11t22.5 48q-24 24 -39 32q-26 24 -29 38t6 18.5t25 -1t30 -21.5q7 -8 18 -21.5t18 -21.5zM241 45q6 17 1.5 38.5t-17 43t-31.5 40.5t-42.5 32.5t-50 19t-53.5 -1.5q-5 -20 3.5 -47.5t25 -54.5t39 -50t45.5 -35.5
t44 -10.5t36 26z" />
    <glyph glyph-name="ntilde" unicode="&#xf1;" horiz-adv-x="576" 
d="M390 11q-3 33 5.5 65.5t23 64t31 63t28.5 62t17 60t-4 58.5q-25 9 -57.5 -4t-68.5 -39.5t-74.5 -62t-75 -72l-69.5 -69.5t-59.5 -54.5t-44.5 -27t-24 12.5q-1 1 11.5 25.5t31 61.5t41 80t42.5 80.5t35 63.5t19 28q21 -14 21.5 -30.5t-5.5 -34t-13.5 -35.5t-2.5 -36
q16 11 44.5 30.5t62 40.5t70 41t68.5 31.5t57.5 12.5t37.5 -15t7.5 -52.5t-31.5 -99.5q-3 -7 -14.5 -33.5t-25 -57t-25 -57t-14.5 -33.5q-1 -4 -2.5 -14.5t-3.5 -23t-6 -24t-10 -17.5t-14 1.5t-9 9.5zM300 465q-29 5 -43.5 23.5t-23 39t-14.5 36.5t-17.5 16t-33.5 -23
t-61 -80q-20 -12 -26.5 -6t-3.5 22.5t14.5 39.5t28.5 45t38.5 38.5t44 20.5t45 -9t41.5 -50q9 -43 25.5 -59t38 -14.5t46.5 16t52 33.5t55 38.5t54 30.5q6 -10 -6 -28.5t-34.5 -40t-52 -42.5t-60.5 -35.5t-59.5 -19t-47.5 7.5z" />
    <glyph glyph-name="ograve" unicode="&#xf2;" horiz-adv-x="430" 
d="M79 11q-42 17 -52.5 51t0.5 75.5t38 86t60 81.5t66.5 62.5t57.5 28.5q62 8 97.5 -8.5t48.5 -47.5t7 -72.5t-26.5 -83.5t-53 -81t-72 -65.5t-83.5 -35t-88 8.5zM68 68q8 -32 34 -35.5t60.5 13t72.5 48t69.5 68.5t52 74.5t20 65.5t-27 42.5t-88.5 5.5q-14 -13 -36 -31.5
t-45.5 -40.5t-46.5 -47.5t-40 -52.5t-24.5 -55t-0.5 -55zM277 482q-14 24 -29 34t-26.5 18t-17 21t0.5 43q22 2 44 -13t40.5 -36t30 -43.5t12.5 -36t-12 -13t-43 25.5z" />
    <glyph glyph-name="oacute" unicode="&#xf3;" horiz-adv-x="430" 
d="M79 11q-42 17 -52.5 51t0.5 75.5t38 86t60 81.5t66.5 62.5t57.5 28.5q62 8 97.5 -8.5t48.5 -47.5t7 -72.5t-26.5 -83.5t-53 -81t-72 -65.5t-83.5 -35t-88 8.5zM68 68q8 -32 34 -35.5t60.5 13t72.5 48t69.5 68.5t52 74.5t20 65.5t-27 42.5t-88.5 5.5q-14 -13 -36 -31.5
t-45.5 -40.5t-46.5 -47.5t-40 -52.5t-24.5 -55t-0.5 -55zM214 430q-33 -24 -46.5 -24t-12 14.5t15 37.5t34 45t45.5 37t49 14q6 -30 -0.5 -44t-20 -23.5t-31.5 -21t-33 -35.5z" />
    <glyph glyph-name="ocircumflex" unicode="&#xf4;" horiz-adv-x="430" 
d="M79 11q-42 17 -52.5 51t0.5 75.5t38 86t60 81.5t66.5 62.5t57.5 28.5q62 8 97.5 -8.5t48.5 -47.5t7 -72.5t-26.5 -83.5t-53 -81t-72 -65.5t-83.5 -35t-88 8.5zM68 68q8 -32 34 -35.5t60.5 13t72.5 48t69.5 68.5t52 74.5t20 65.5t-27 42.5t-88.5 5.5q-14 -13 -36 -31.5
t-45.5 -40.5t-46.5 -47.5t-40 -52.5t-24.5 -55t-0.5 -55zM334 549q-2 3 -7.5 18.5t-12.5 32t-14.5 26.5t-14.5 3q-4 -6 -16.5 -27t-30.5 -41t-38 -31.5t-39 0.5q-5 3 -10.5 8.5t-1.5 13.5q5 9 18 19.5t27 21t26.5 21t17.5 19.5q22 47 40.5 64.5t33 14.5t25 -22t16.5 -43.5
t8.5 -50t0 -42.5t-9.5 -20.5t-18 15.5z" />
    <glyph glyph-name="otilde" unicode="&#xf5;" horiz-adv-x="430" 
d="M79 11q-42 17 -52.5 51t0.5 75.5t38 86t60 81.5t66.5 62.5t57.5 28.5q62 8 97.5 -8.5t48.5 -47.5t7 -72.5t-26.5 -83.5t-53 -81t-72 -65.5t-83.5 -35t-88 8.5zM68 68q8 -32 34 -35.5t60.5 13t72.5 48t69.5 68.5t52 74.5t20 65.5t-27 42.5t-88.5 5.5q-14 -13 -36 -31.5
t-45.5 -40.5t-46.5 -47.5t-40 -52.5t-24.5 -55t-0.5 -55zM307 436q-29 5 -43.5 23.5t-23 39t-14.5 36.5t-17.5 16t-33.5 -23t-61 -80q-20 -12 -26.5 -6t-3.5 22.5t14.5 39.5t28.5 45t38.5 38.5t44 20.5t45 -9t41.5 -50q9 -43 25.5 -59t38 -14.5t46.5 16t52 33.5t55 38.5
t54 30.5q6 -10 -6 -28.5t-34.5 -40t-52 -42.5t-60.5 -35.5t-59.5 -19t-47.5 7.5z" />
    <glyph glyph-name="odieresis" unicode="&#xf6;" horiz-adv-x="430" 
d="M79 11q-42 17 -52.5 51t0.5 75.5t38 86t60 81.5t66.5 62.5t57.5 28.5q62 8 97.5 -8.5t48.5 -47.5t7 -72.5t-26.5 -83.5t-53 -81t-72 -65.5t-83.5 -35t-88 8.5zM68 68q8 -32 34 -35.5t60.5 13t72.5 48t69.5 68.5t52 74.5t20 65.5t-27 42.5t-88.5 5.5q-14 -13 -36 -31.5
t-45.5 -40.5t-46.5 -47.5t-40 -52.5t-24.5 -55t-0.5 -55zM160 448q-14 21 -7.5 42t22.5 32.5t35 9t30 -27.5q6 -15 -2 -31.5t-22 -27t-30 -11.5t-26 14zM304 453q-15 21 -8 42t23 32.5t35 9t29 -27.5q6 -15 -2 -31.5t-22 -27t-29.5 -11.5t-25.5 14z" />
    <glyph glyph-name="divide" unicode="&#xf7;" horiz-adv-x="615" 
d="M85 206q-32 -5 -42 2t12 34q1 4 36.5 11t88 13.5t114.5 11t116 5.5t91.5 -3.5t41.5 -17.5q2 -2 2 -11t-2 -12q-18 -1 -54 -3.5t-81 -6t-94 -7t-93.5 -7t-80.5 -6t-55 -3.5zM221 91q-7 14 -0.5 22.5t17.5 11.5t23 0t17 -12q9 -17 4 -28.5t-16 -15t-24.5 1.5t-20.5 20z
M233 362q-11 10 -12 21.5t4.5 20t16.5 10.5t24 -7t14.5 -22t-4.5 -22.5t-17.5 -12t-25.5 11.5z" />
    <glyph glyph-name="oslash" unicode="&#xf8;" horiz-adv-x="430" 
d="M79 11q-42 17 -52.5 51t0.5 75.5t38 86t60 81.5t66.5 62.5t57.5 28.5q62 8 97.5 -8.5t48.5 -47.5t7 -72.5t-26.5 -83.5t-53 -81t-72 -65.5t-83.5 -35t-88 8.5zM68 68q8 -32 34 -35.5t60.5 13t72.5 48t69.5 68.5t52 74.5t20 65.5t-27 42.5t-88.5 5.5q-14 -13 -36 -31.5
t-45.5 -40.5t-46.5 -47.5t-40 -52.5t-24.5 -55t-0.5 -55zM93 -105q-6 38 3.5 91.5t29.5 114t47 124.5t55.5 124t55 112.5t46.5 89.5q11 7 18 3t11 -12.5t5 -19t0 -16.5q-6 -13 -20.5 -45t-30.5 -68t-30.5 -68t-19.5 -45q-5 -10 -14.5 -34.5t-20.5 -51.5t-20.5 -51t-12.5 -33
q-5 -14 -12 -42.5t-16 -61t-19 -63t-21 -48.5q-3 -3 -8 -6.5t-10 -5t-10 1t-6 10.5z" />
    <glyph glyph-name="ugrave" unicode="&#xf9;" horiz-adv-x="576" 
d="M430 11q-27 11 -43 29t-25 41t-14 48.5t-9 51.5q-9 6 -32 -11.5t-53 -43.5t-64.5 -53.5t-66.5 -40.5t-58.5 -5t-41.5 52q-5 15 3.5 43.5t25.5 62.5t39.5 70.5t44 68t40 54t28.5 29.5q23 -11 20.5 -33.5t-18 -51.5t-40 -62t-46 -65.5t-34.5 -62.5t-7 -53q22 -9 54.5 9.5
t70 51.5t77 75.5t73.5 82t60 69.5t38 40q21 -10 21 -32.5t-11.5 -51.5t-28 -62.5t-28.5 -66.5t-14 -63t16 -52l34 -40h101q7 0 3 -6t-11.5 -13t-15.5 -13.5t-9 -6.5q-26 -5 -42 -1.5t-37 12.5zM288 428q-14 24 -29 34t-26.5 18t-17 21t0.5 43q22 2 44 -13t40.5 -36t30 -43.5
t12.5 -36t-12 -13t-43 25.5z" />
    <glyph glyph-name="uacute" unicode="&#xfa;" horiz-adv-x="576" 
d="M430 11q-27 11 -43 29t-25 41t-14 48.5t-9 51.5q-9 6 -32 -11.5t-53 -43.5t-64.5 -53.5t-66.5 -40.5t-58.5 -5t-41.5 52q-5 15 3.5 43.5t25.5 62.5t39.5 70.5t44 68t40 54t28.5 29.5q23 -11 20.5 -33.5t-18 -51.5t-40 -62t-46 -65.5t-34.5 -62.5t-7 -53q22 -9 54.5 9.5
t70 51.5t77 75.5t73.5 82t60 69.5t38 40q21 -10 21 -32.5t-11.5 -51.5t-28 -62.5t-28.5 -66.5t-14 -63t16 -52l34 -40h101q7 0 3 -6t-11.5 -13t-15.5 -13.5t-9 -6.5q-26 -5 -42 -1.5t-37 12.5zM328 427q-33 -24 -46.5 -24t-12 14.5t15 37.5t34 45t45.5 37t49 14
q6 -30 -0.5 -44t-20 -23.5t-31.5 -21t-33 -35.5z" />
    <glyph glyph-name="ucircumflex" unicode="&#xfb;" horiz-adv-x="576" 
d="M430 11q-27 11 -43 29t-25 41t-14 48.5t-9 51.5q-9 6 -32 -11.5t-53 -43.5t-64.5 -53.5t-66.5 -40.5t-58.5 -5t-41.5 52q-5 15 3.5 43.5t25.5 62.5t39.5 70.5t44 68t40 54t28.5 29.5q23 -11 20.5 -33.5t-18 -51.5t-40 -62t-46 -65.5t-34.5 -62.5t-7 -53q22 -9 54.5 9.5
t70 51.5t77 75.5t73.5 82t60 69.5t38 40q21 -10 21 -32.5t-11.5 -51.5t-28 -62.5t-28.5 -66.5t-14 -63t16 -52l34 -40h101q7 0 3 -6t-11.5 -13t-15.5 -13.5t-9 -6.5q-26 -5 -42 -1.5t-37 12.5zM394 552q-2 3 -7.5 18.5t-12.5 32t-14.5 26.5t-14.5 3q-4 -6 -16.5 -27
t-30.5 -41t-38 -31.5t-39 0.5q-5 3 -10.5 8.5t-1.5 13.5q5 9 18 19.5t27 21t26.5 21t17.5 19.5q22 47 40.5 64.5t33 14.5t25 -22t16.5 -43.5t8.5 -50t0 -42.5t-9.5 -20.5t-18 15.5z" />
    <glyph glyph-name="udieresis" unicode="&#xfc;" horiz-adv-x="576" 
d="M430 11q-27 11 -43 29t-25 41t-14 48.5t-9 51.5q-9 6 -32 -11.5t-53 -43.5t-64.5 -53.5t-66.5 -40.5t-58.5 -5t-41.5 52q-5 15 3.5 43.5t25.5 62.5t39.5 70.5t44 68t40 54t28.5 29.5q23 -11 20.5 -33.5t-18 -51.5t-40 -62t-46 -65.5t-34.5 -62.5t-7 -53q22 -9 54.5 9.5
t70 51.5t77 75.5t73.5 82t60 69.5t38 40q21 -10 21 -32.5t-11.5 -51.5t-28 -62.5t-28.5 -66.5t-14 -63t16 -52l34 -40h101q7 0 3 -6t-11.5 -13t-15.5 -13.5t-9 -6.5q-26 -5 -42 -1.5t-37 12.5zM212 468q-14 21 -7.5 42t22.5 32.5t35 9t30 -27.5q6 -15 -2 -31.5t-22 -27
t-30 -11.5t-26 14zM356 473q-15 21 -8 42t23 32.5t35 9t29 -27.5q6 -15 -2 -31.5t-22 -27t-29.5 -11.5t-25.5 14z" />
    <glyph glyph-name="yacute" unicode="&#xfd;" horiz-adv-x="441" 
d="M-170 -384q-9 14 0.5 43.5t27 61t36 59t27.5 39.5q8 11 24.5 33l37.5 50t44.5 59t44.5 58.5t38 49.5t25 33q8 9 0 28t-24.5 44.5t-37 56t-37 62t-25 62.5t-0.5 58q11 8 24 -9.5t27.5 -48t30.5 -67t31 -66t29.5 -46.5t27.5 -7q26 19 51 48.5t48 61.5t43.5 62.5t38.5 53.5
q7 9 13.5 12.5t20.5 -1.5q11 -4 -4 -35t-47 -80t-76.5 -111.5t-94 -130t-99 -134.5t-91 -124.5t-71 -101t-38.5 -63.5q-4 -9 -8.5 -18t-12.5 -15q-2 1 -5.5 4t-7 6.5l-7 7t-4.5 5.5zM219 430q-33 -24 -46.5 -24t-12 14.5t15 37.5t34 45t45.5 37t49 14q6 -30 -0.5 -44
t-20 -23.5t-31.5 -21t-33 -35.5z" />
    <glyph glyph-name="thorn" unicode="&#xfe;" horiz-adv-x="542" 
d="M-47 -376q5 88 25.5 187.5t49 205.5t61.5 216t62.5 218t51 212.5t28.5 199.5q17 2 31.5 0.5t23.5 -12.5t11.5 -34.5t-4.5 -64.5t-24.5 -101.5t-48.5 -146.5q82 28 138.5 31t92 -12.5t51 -46.5t14.5 -70t-17.5 -83t-44.5 -86.5t-66 -79t-83 -61.5t-95.5 -34t-102.5 4
q-27 -77 -40 -129.5t-19 -89.5t-7 -63.5t-3 -50.5t-7.5 -50t-20.5 -63q-2 -4 -10.5 -7t-18.5 -3.5t-18.5 3t-9.5 11.5zM142 113q45 -16 95.5 2.5t96.5 57t81.5 89.5t51 99t6 86t-54.5 51q-69 -7 -112.5 -26t-69.5 -48t-39 -65t-20.5 -76.5t-14.5 -84t-20 -85.5z" />
    <glyph glyph-name="ydieresis" unicode="&#xff;" horiz-adv-x="441" 
d="M-170 -384q-9 14 0.5 43.5t27 61t36 59t27.5 39.5q8 11 24.5 33l37.5 50t44.5 59t44.5 58.5t38 49.5t25 33q8 9 0 28t-24.5 44.5t-37 56t-37 62t-25 62.5t-0.5 58q11 8 24 -9.5t27.5 -48t30.5 -67t31 -66t29.5 -46.5t27.5 -7q26 19 51 48.5t48 61.5t43.5 62.5t38.5 53.5
q7 9 13.5 12.5t20.5 -1.5q11 -4 -4 -35t-47 -80t-76.5 -111.5t-94 -130t-99 -134.5t-91 -124.5t-71 -101t-38.5 -63.5q-4 -9 -8.5 -18t-12.5 -15q-2 1 -5.5 4t-7 6.5l-7 7t-4.5 5.5zM120 426q-14 21 -7.5 42t22.5 32.5t35 9t30 -27.5q6 -15 -2 -31.5t-22 -27t-30 -11.5
t-26 14zM264 431q-15 21 -8 42t23 32.5t35 9t29 -27.5q6 -15 -2 -31.5t-22 -27t-29.5 -11.5t-25.5 14z" />
    <glyph glyph-name="Abreve" unicode="&#x102;" horiz-adv-x="847" 
d="M-78 -185q-3 2 -9.5 9.5t-10.5 15.5t-3.5 14t11.5 6q21 -29 59 -22t82 34.5t89.5 69t82 82.5t60 74t23.5 44q0 3 -8 9.5t-18.5 13.5l-19.5 13t-11 9q3 10 19 15.5t36 10t39.5 9t29.5 11.5q53 77 92.5 138.5t75 121t72.5 122.5t85 142q13 22 21 15t12 -34t5 -68.5t0 -89.5
t-3.5 -98t-5 -92t-4 -72.5t-0.5 -39.5q4 -51 5.5 -88.5t9.5 -69t27.5 -61t59.5 -64.5q-33 -11 -54.5 1.5t-35 38t-22 59t-16 65t-17 55t-25.5 30.5q-1 0 -5.5 0.5t-10 0.5t-10.5 -0.5t-7 -0.5q-9 -2 -33.5 -8t-53.5 -13t-55.5 -14t-38.5 -10q-25 -7 -52.5 -32t-58 -60.5
t-63 -77.5t-66.5 -82t-69 -74t-70 -55t-70.5 -23.5t-69.5 20.5zM464 255q2 -1 10.5 -1t11.5 1q18 3 45 7t54 9.5t50 13t32 16.5l3 21t7 53.5t8.5 72t8.5 77.5t6.5 70.5t3.5 50.5q-11 5 -29 -25.5t-46.5 -83.5t-69 -123.5t-95.5 -146.5v-12zM780 901q23 -15 24 -33.5
t-12 -34.5t-36.5 -26t-48.5 -6.5t-48 23.5t-35 64q-2 1 1 4t7 6t8.5 5.5t6.5 2.5q10 -15 26.5 -34t35.5 -26.5t37.5 3t33.5 52.5z" />
    <glyph glyph-name="abreve" unicode="&#x103;" horiz-adv-x="702" 
d="M57 23q-24 20 -26.5 59t11 88t40 102.5t61.5 102t76 87t82 57t80 13t71 -45.5q20 -25 24 -50.5t-1 -52t-16 -54t-21.5 -55.5t-17 -57t-2.5 -59q5 -38 34 -45t69.5 4t85.5 35t83.5 48t64 42l25.5 18q28 6 31.5 -3.5t-11 -28t-43.5 -42t-66 -45.5t-79 -40t-82 -24.5
t-75.5 1t-58.5 35.5q-11 12 -16.5 24t-17.5 21q-15 -14 -36 -36.5t-45.5 -45t-52 -42.5t-56.5 -30t-58.5 -7t-56.5 26zM68 57q9 -32 40 -29.5t72 30.5t85 76.5t79 108t53.5 125.5t9.5 130q-24 19 -60 1.5t-76.5 -57t-80 -94t-69.5 -110t-45.5 -104.5t-7.5 -77zM442 716
q23 -15 24 -33.5t-12 -34.5t-36.5 -26t-48.5 -6.5t-48 23.5t-35 64q-2 1 1 4t7 6t8.5 5.5t6.5 2.5q10 -15 26.5 -34t35.5 -26.5t37.5 3t33.5 52.5z" />
    <glyph glyph-name="Cacute" unicode="&#x106;" horiz-adv-x="633" 
d="M107 11q-61 24 -84 65t-18.5 91.5t32 108t68 115.5t89.5 113t97 101t90 80t68 50q36 22 60 21.5t38.5 -15t20 -40t5 -54t-6 -57t-14 -49.5t-18 -31t-18.5 -1q-1 8 2 24.5t7.5 37.5t8.5 43t5.5 40.5t-1 31.5t-11.5 15q-35 9 -83.5 -16.5t-101 -73t-104 -110t-93.5 -128.5
t-69 -128.5t-30.5 -110t21 -73t86.5 -16.5q57 8 105.5 40.5t94 72t90.5 78t94 58.5q18 7 28.5 -5t5.5 -29q-6 -17 -35.5 -45t-73 -58.5t-95.5 -61t-101.5 -52.5t-92 -32t-66.5 0zM372 750q-33 -24 -46.5 -24t-12 14.5t15 37.5t34 45t45.5 37t49 14q6 -30 -0.5 -44t-20 -23.5
t-31.5 -21t-33 -35.5z" />
    <glyph glyph-name="cacute" unicode="&#x107;" horiz-adv-x="559" 
d="M102 11q-51 17 -67.5 53t-9 81.5t34.5 96t64 96.5t78 83t77.5 56t62.5 15t32 -40q3 -16 -3.5 -35t-18 -36.5t-26 -32t-28 -21.5t-24 -5t-13.5 17q12 20 27 40.5t29 38.5q-6 11 -23 5t-41 -24t-50.5 -45.5t-51.5 -59.5t-44.5 -66.5t-28.5 -66.5t-4.5 -59.5t28.5 -44.5
q33 -3 76 6.5t88 24.5t89.5 32.5t81 32.5t62 23.5t33.5 4.5q19 -10 2.5 -29t-55.5 -41t-92.5 -43.5t-107.5 -37t-102 -22t-75 2.5zM316 582q-33 -24 -46.5 -24t-12 14.5t15 37.5t34 45t45.5 37t49 14q6 -30 -0.5 -44t-20 -23.5t-31.5 -21t-33 -35.5z" />
    <glyph glyph-name="Ccircumflex" unicode="&#x108;" horiz-adv-x="633" 
d="M107 11q-61 24 -84 65t-18.5 91.5t32 108t68 115.5t89.5 113t97 101t90 80t68 50q36 22 60 21.5t38.5 -15t20 -40t5 -54t-6 -57t-14 -49.5t-18 -31t-18.5 -1q-1 8 2 24.5t7.5 37.5t8.5 43t5.5 40.5t-1 31.5t-11.5 15q-35 9 -83.5 -16.5t-101 -73t-104 -110t-93.5 -128.5
t-69 -128.5t-30.5 -110t21 -73t86.5 -16.5q57 8 105.5 40.5t94 72t90.5 78t94 58.5q18 7 28.5 -5t5.5 -29q-6 -17 -35.5 -45t-73 -58.5t-95.5 -61t-101.5 -52.5t-92 -32t-66.5 0zM554 757q-2 3 -7.5 18.5t-12.5 32t-14.5 26.5t-14.5 3q-4 -6 -16.5 -27t-30.5 -41t-38 -31.5
t-39 0.5q-5 3 -10.5 8.5t-1.5 13.5q5 9 18 19.5t27 21t26.5 21t17.5 19.5q22 47 40.5 64.5t33 14.5t25 -22t16.5 -43.5t8.5 -50t0 -42.5t-9.5 -20.5t-18 15.5z" />
    <glyph glyph-name="ccircumflex" unicode="&#x109;" horiz-adv-x="559" 
d="M102 11q-51 17 -67.5 53t-9 81.5t34.5 96t64 96.5t78 83t77.5 56t62.5 15t32 -40q3 -16 -3.5 -35t-18 -36.5t-26 -32t-28 -21.5t-24 -5t-13.5 17q12 20 27 40.5t29 38.5q-6 11 -23 5t-41 -24t-50.5 -45.5t-51.5 -59.5t-44.5 -66.5t-28.5 -66.5t-4.5 -59.5t28.5 -44.5
q33 -3 76 6.5t88 24.5t89.5 32.5t81 32.5t62 23.5t33.5 4.5q19 -10 2.5 -29t-55.5 -41t-92.5 -43.5t-107.5 -37t-102 -22t-75 2.5zM366 653q-2 3 -7.5 18.5t-12.5 32t-14.5 26.5t-14.5 3q-4 -6 -16.5 -27t-30.5 -41t-38 -31.5t-39 0.5q-5 3 -10.5 8.5t-1.5 13.5q5 9 18 19.5
t27 21t26.5 21t17.5 19.5q22 47 40.5 64.5t33 14.5t25 -22t16.5 -43.5t8.5 -50t0 -42.5t-9.5 -20.5t-18 15.5z" />
    <glyph glyph-name="Cdotaccent" unicode="&#x10a;" horiz-adv-x="633" 
d="M107 11q-61 24 -84 65t-18.5 91.5t32 108t68 115.5t89.5 113t97 101t90 80t68 50q36 22 60 21.5t38.5 -15t20 -40t5 -54t-6 -57t-14 -49.5t-18 -31t-18.5 -1q-1 8 2 24.5t7.5 37.5t8.5 43t5.5 40.5t-1 31.5t-11.5 15q-35 9 -83.5 -16.5t-101 -73t-104 -110t-93.5 -128.5
t-69 -128.5t-30.5 -110t21 -73t86.5 -16.5q57 8 105.5 40.5t94 72t90.5 78t94 58.5q18 7 28.5 -5t5.5 -29q-6 -17 -35.5 -45t-73 -58.5t-95.5 -61t-101.5 -52.5t-92 -32t-66.5 0zM352 786q-15 20 -15.5 37t8 29t23.5 17.5t30.5 3t29 -13.5t19.5 -32q9 -22 1.5 -39.5t-24 -25
t-36.5 -2.5t-36 26z" />
    <glyph glyph-name="cdotaccent" unicode="&#x10b;" horiz-adv-x="559" 
d="M102 11q-51 17 -67.5 53t-9 81.5t34.5 96t64 96.5t78 83t77.5 56t62.5 15t32 -40q3 -16 -3.5 -35t-18 -36.5t-26 -32t-28 -21.5t-24 -5t-13.5 17q12 20 27 40.5t29 38.5q-6 11 -23 5t-41 -24t-50.5 -45.5t-51.5 -59.5t-44.5 -66.5t-28.5 -66.5t-4.5 -59.5t28.5 -44.5
q33 -3 76 6.5t88 24.5t89.5 32.5t81 32.5t62 23.5t33.5 4.5q19 -10 2.5 -29t-55.5 -41t-92.5 -43.5t-107.5 -37t-102 -22t-75 2.5zM228 581q-15 20 -15.5 37t8 29t23.5 17.5t30.5 3t29 -13.5t19.5 -32q9 -22 1.5 -39.5t-24 -25t-36.5 -2.5t-36 26z" />
    <glyph glyph-name="Ccaron" unicode="&#x10c;" horiz-adv-x="633" 
d="M107 11q-61 24 -84 65t-18.5 91.5t32 108t68 115.5t89.5 113t97 101t90 80t68 50q36 22 60 21.5t38.5 -15t20 -40t5 -54t-6 -57t-14 -49.5t-18 -31t-18.5 -1q-1 8 2 24.5t7.5 37.5t8.5 43t5.5 40.5t-1 31.5t-11.5 15q-35 9 -83.5 -16.5t-101 -73t-104 -110t-93.5 -128.5
t-69 -128.5t-30.5 -110t21 -73t86.5 -16.5q57 8 105.5 40.5t94 72t90.5 78t94 58.5q18 7 28.5 -5t5.5 -29q-6 -17 -35.5 -45t-73 -58.5t-95.5 -61t-101.5 -52.5t-92 -32t-66.5 0zM495 869q13 10 18.5 1.5t4 -24.5t-9.5 -34.5t-22 -30t-34 -10.5t-45 25q-3 4 -12.5 12.5
t-20.5 18t-21 18t-14 11.5q-3 3 2 5.5t10 2.5q15 5 30.5 -2t29 -18t23 -21.5t13.5 -13.5q6 -3 13.5 6t14.5 20.5t12.5 22t7.5 11.5z" />
    <glyph glyph-name="ccaron" unicode="&#x10d;" horiz-adv-x="559" 
d="M102 11q-51 17 -67.5 53t-9 81.5t34.5 96t64 96.5t78 83t77.5 56t62.5 15t32 -40q3 -16 -3.5 -35t-18 -36.5t-26 -32t-28 -21.5t-24 -5t-13.5 17q12 20 27 40.5t29 38.5q-6 11 -23 5t-41 -24t-50.5 -45.5t-51.5 -59.5t-44.5 -66.5t-28.5 -66.5t-4.5 -59.5t28.5 -44.5
q33 -3 76 6.5t88 24.5t89.5 32.5t81 32.5t62 23.5t33.5 4.5q19 -10 2.5 -29t-55.5 -41t-92.5 -43.5t-107.5 -37t-102 -22t-75 2.5zM381 681q13 10 18.5 1.5t4 -24.5t-9.5 -34.5t-22 -30t-34 -10.5t-45 25q-3 4 -12.5 12.5t-20.5 18t-21 18t-14 11.5q-3 3 2 5.5t10 2.5
q15 5 30.5 -2t29 -18t23 -21.5t13.5 -13.5q6 -3 13.5 6t14.5 20.5t12.5 22t7.5 11.5z" />
    <glyph glyph-name="Dcaron" unicode="&#x10e;" horiz-adv-x="823" 
d="M23 11q-5 15 2 26.5t21 19.5q62 31 121 52.5t116.5 43t114.5 48t116 68.5q131 76 201 142t93 119.5t6 94t-59 65.5t-102.5 33.5t-125.5 -1.5t-127 -39.5t-107 -81.5q-1 -2 -3 -7t-3.5 -10.5l-3 -11t-1.5 -6.5q-30 -72 -56.5 -123.5t-50 -99t-44.5 -101t-40 -129.5
q-18 -6 -25.5 1t-8.5 21.5t3.5 33.5t10.5 37t12 33t8 21q8 23 25 59.5t36 76.5t36 77t26 60q-9 29 -3.5 51.5t19.5 41t34 34t40 30.5q57 42 123 65t134.5 25.5t136.5 -17.5t128 -65q48 -40 56.5 -87t-13.5 -96.5t-68.5 -100.5t-108.5 -100t-134.5 -94.5t-145 -84t-141 -68
t-122 -46.5t-87.5 -20.5t-39 10.5zM606 891q13 10 18.5 1.5t4 -24.5t-9.5 -34.5t-22 -30t-34 -10.5t-45 25q-3 4 -12.5 12.5t-20.5 18t-21 18t-14 11.5q-3 3 2 5.5t10 2.5q15 5 30.5 -2t29 -18t23 -21.5t13.5 -13.5q6 -3 13.5 6t14.5 20.5t12.5 22t7.5 11.5z" />
    <glyph glyph-name="Edotaccent" unicode="&#x116;" horiz-adv-x="746" 
d="M18 23q-6 5 3 11q10 36 20.5 69t22.5 65.5t25.5 66t28.5 70.5q5 9 -1.5 18.5t-15 19t-12 20t7.5 21.5q1 1 7.5 3t14.5 3.5t14.5 3t8.5 2.5q3 2 11.5 10.5t10.5 11.5q16 27 30.5 48t27 42t22.5 44t18 54q3 12 -5.5 15.5t-19.5 6.5t-18 9.5t-1 24.5q4 11 38.5 24t87.5 25
t119 22t132 16t126 7.5t102 -4t60 -19t-1 -37.5q-9 -2 -18.5 -0.5t-19.5 4.5t-21 5.5t-21 1.5q-48 -4 -94 -3t-92 1t-92 -3.5t-92 -16.5q-32 -9 -57 -31.5t-47.5 -57t-45 -79.5t-50.5 -99q11 -3 41.5 4t70 17.5t83.5 21t82.5 15t67.5 0t39 -23.5q1 -2 1 -6t-1 -5
q-53 -8 -109.5 -14.5t-112 -16.5t-108.5 -26.5t-100 -44.5q-38 -67 -68 -138t-53 -144q29 10 67.5 19.5t74 17.5t62 13t31.5 6q85 13 163.5 20.5t163.5 2.5q7 -2 10 -8t4 -13.5t0 -14.5t-2 -10q-109 6 -216.5 -8t-213.5 -37q-17 -4 -41.5 -14t-50 -18t-49 -11t-39.5 8
q-4 2 -7 5t-4 8zM467 789q-15 20 -15.5 37t8 29t23.5 17.5t30.5 3t29 -13.5t19.5 -32q9 -22 1.5 -39.5t-24 -25t-36.5 -2.5t-36 26z" />
    <glyph glyph-name="edotaccent" unicode="&#x117;" horiz-adv-x="435" 
d="M85 11q-30 10 -45.5 30.5t-20.5 45.5t-1.5 52.5t11.5 52.5q30 32 67.5 73.5t79.5 81.5t87.5 74.5t92.5 52.5q16 7 25.5 -0.5t13.5 -23.5t3.5 -37t-3.5 -41t-8 -36t-10 -22q-12 -14 -46.5 -33t-76.5 -41.5t-84 -46.5t-69 -47.5t-32 -46.5t28 -42q34 -4 82.5 3.5t99 20
t97.5 26t77 21.5l12 -11q-22 -29 -72 -53t-108 -39.5t-113 -20t-87 6.5zM324 393q-1 1 -15 -8.5t-34.5 -25t-44 -34t-43 -34.5t-32.5 -27.5t-11 -11.5q16 -3 41.5 4.5t53 21.5t52.5 31.5t39.5 34.5t15 30t-21.5 19zM221 559q-15 20 -15.5 37t8 29t23.5 17.5t30.5 3t29 -13.5
t19.5 -32q9 -22 1.5 -39.5t-24 -25t-36.5 -2.5t-36 26z" />
    <glyph glyph-name="Ecaron" unicode="&#x11a;" horiz-adv-x="746" 
d="M18 23q-6 5 3 11q10 36 20.5 69t22.5 65.5t25.5 66t28.5 70.5q5 9 -1.5 18.5t-15 19t-12 20t7.5 21.5q1 1 7.5 3t14.5 3.5t14.5 3t8.5 2.5q3 2 11.5 10.5t10.5 11.5q16 27 30.5 48t27 42t22.5 44t18 54q3 12 -5.5 15.5t-19.5 6.5t-18 9.5t-1 24.5q4 11 38.5 24t87.5 25
t119 22t132 16t126 7.5t102 -4t60 -19t-1 -37.5q-9 -2 -18.5 -0.5t-19.5 4.5t-21 5.5t-21 1.5q-48 -4 -94 -3t-92 1t-92 -3.5t-92 -16.5q-32 -9 -57 -31.5t-47.5 -57t-45 -79.5t-50.5 -99q11 -3 41.5 4t70 17.5t83.5 21t82.5 15t67.5 0t39 -23.5q1 -2 1 -6t-1 -5
q-53 -8 -109.5 -14.5t-112 -16.5t-108.5 -26.5t-100 -44.5q-38 -67 -68 -138t-53 -144q29 10 67.5 19.5t74 17.5t62 13t31.5 6q85 13 163.5 20.5t163.5 2.5q7 -2 10 -8t4 -13.5t0 -14.5t-2 -10q-109 6 -216.5 -8t-213.5 -37q-17 -4 -41.5 -14t-50 -18t-49 -11t-39.5 8
q-4 2 -7 5t-4 8zM513 854q13 10 18.5 1.5t4 -24.5t-9.5 -34.5t-22 -30t-34 -10.5t-45 25q-3 4 -12.5 12.5t-20.5 18t-21 18t-14 11.5q-3 3 2 5.5t10 2.5q15 5 30.5 -2t29 -18t23 -21.5t13.5 -13.5q6 -3 13.5 6t14.5 20.5t12.5 22t7.5 11.5z" />
    <glyph glyph-name="ecaron" unicode="&#x11b;" horiz-adv-x="435" 
d="M85 11q-30 10 -45.5 30.5t-20.5 45.5t-1.5 52.5t11.5 52.5q30 32 67.5 73.5t79.5 81.5t87.5 74.5t92.5 52.5q16 7 25.5 -0.5t13.5 -23.5t3.5 -37t-3.5 -41t-8 -36t-10 -22q-12 -14 -46.5 -33t-76.5 -41.5t-84 -46.5t-69 -47.5t-32 -46.5t28 -42q34 -4 82.5 3.5t99 20
t97.5 26t77 21.5l12 -11q-22 -29 -72 -53t-108 -39.5t-113 -20t-87 6.5zM324 393q-1 1 -15 -8.5t-34.5 -25t-44 -34t-43 -34.5t-32.5 -27.5t-11 -11.5q16 -3 41.5 4.5t53 21.5t52.5 31.5t39.5 34.5t15 30t-21.5 19zM302 593q13 10 18.5 1.5t4 -24.5t-9.5 -34.5t-22 -30
t-34 -10.5t-45 25q-3 4 -12.5 12.5t-20.5 18t-21 18t-14 11.5q-3 3 2 5.5t10 2.5q15 5 30.5 -2t29 -18t23 -21.5t13.5 -13.5q6 -3 13.5 6t14.5 20.5t12.5 22t7.5 11.5z" />
    <glyph glyph-name="Gcircumflex" unicode="&#x11c;" 
d="M74 11q-44 33 -60 81t-10 104.5t30 118t59.5 120.5t80 112.5t91 94t92 65t83.5 26.5q18 5 36.5 -1t33.5 -18.5t25 -29.5t13 -33.5t-4 -31t-26 -21.5q-3 -2 -9.5 -2t-6.5 2v79q0 2 -5 4.5t-11.5 4t-13 2.5t-10.5 0q-99 -25 -169.5 -84t-117.5 -140q-67 -117 -97.5 -195
t-34 -124t16.5 -64.5t54 -16.5t79 20.5t91.5 46t90.5 61t77 64.5t50.5 56.5t11.5 37.5q-16 3 -35 -1.5t-33 -9.5q-9 -3 -33.5 -11t-51.5 -17l-51 -17t-33 -12q-14 -5 -23.5 2.5t-13 19t-0.5 22t14 13.5q16 3 56.5 17.5t91.5 32t105 34.5t95 25t62.5 2.5t8.5 -32.5
q-9 -10 -33 -34.5t-51 -51.5t-51.5 -51t-34.5 -33q-4 -3 -22.5 -19t-42 -35.5t-46.5 -39t-36 -29.5q-13 -11 -33 -28t-44.5 -34.5t-51.5 -33t-54 -24.5t-52.5 -9t-46.5 15zM503 757q-2 3 -7.5 18.5t-12.5 32t-14.5 26.5t-14.5 3q-4 -6 -16.5 -27t-30.5 -41t-38 -31.5
t-39 0.5q-5 3 -10.5 8.5t-1.5 13.5q5 9 18 19.5t27 21t26.5 21t17.5 19.5q22 47 40.5 64.5t33 14.5t25 -22t16.5 -43.5t8.5 -50t0 -42.5t-9.5 -20.5t-18 15.5z" />
    <glyph glyph-name="gcircumflex" unicode="&#x11d;" horiz-adv-x="362" 
d="M-136 -282q-31 11 -50.5 33t-30 47.5t-13 51.5t1 46t12 30.5t19.5 5.5q-1 -87 20.5 -131.5t56 -56t78 5.5t88 52.5t85 85t68.5 103t40 106t-1 95.5q-90 -65 -140 -82t-69.5 -1.5t-12.5 55.5t30 88t58 96.5t72 81.5t71.5 42t57.5 -21q23 -31 29 -83.5t-3 -116.5
t-31.5 -134t-55.5 -136.5t-75.5 -123.5t-91.5 -95t-103 -51.5t-110 7.5zM68 214q-1 -3 -1.5 -11t-0.5 -17t0.5 -17t1.5 -11q32 -8 66 15t62.5 59t48 76t24 67t-10.5 30.5t-55 -32.5q-12 -11 -32 -30t-40.5 -41t-38 -45.5t-24.5 -42.5zM353 645q-2 3 -7.5 18.5t-12.5 32
t-14.5 26.5t-14.5 3q-4 -6 -16.5 -27t-30.5 -41t-38 -31.5t-39 0.5q-5 3 -10.5 8.5t-1.5 13.5q5 9 18 19.5t27 21t26.5 21t17.5 19.5q22 47 40.5 64.5t33 14.5t25 -22t16.5 -43.5t8.5 -50t0 -42.5t-9.5 -20.5t-18 15.5z" />
    <glyph glyph-name="Gbreve" unicode="&#x11e;" 
d="M74 11q-44 33 -60 81t-10 104.5t30 118t59.5 120.5t80 112.5t91 94t92 65t83.5 26.5q18 5 36.5 -1t33.5 -18.5t25 -29.5t13 -33.5t-4 -31t-26 -21.5q-3 -2 -9.5 -2t-6.5 2v79q0 2 -5 4.5t-11.5 4t-13 2.5t-10.5 0q-99 -25 -169.5 -84t-117.5 -140q-67 -117 -97.5 -195
t-34 -124t16.5 -64.5t54 -16.5t79 20.5t91.5 46t90.5 61t77 64.5t50.5 56.5t11.5 37.5q-16 3 -35 -1.5t-33 -9.5q-9 -3 -33.5 -11t-51.5 -17l-51 -17t-33 -12q-14 -5 -23.5 2.5t-13 19t-0.5 22t14 13.5q16 3 56.5 17.5t91.5 32t105 34.5t95 25t62.5 2.5t8.5 -32.5
q-9 -10 -33 -34.5t-51 -51.5t-51.5 -51t-34.5 -33q-4 -3 -22.5 -19t-42 -35.5t-46.5 -39t-36 -29.5q-13 -11 -33 -28t-44.5 -34.5t-51.5 -33t-54 -24.5t-52.5 -9t-46.5 15zM412 851q23 -15 24 -33.5t-12 -34.5t-36.5 -26t-48.5 -6.5t-48 23.5t-35 64q-2 1 1 4t7 6t8.5 5.5
t6.5 2.5q10 -15 26.5 -34t35.5 -26.5t37.5 3t33.5 52.5z" />
    <glyph glyph-name="gbreve" unicode="&#x11f;" horiz-adv-x="362" 
d="M-136 -282q-31 11 -50.5 33t-30 47.5t-13 51.5t1 46t12 30.5t19.5 5.5q-1 -87 20.5 -131.5t56 -56t78 5.5t88 52.5t85 85t68.5 103t40 106t-1 95.5q-90 -65 -140 -82t-69.5 -1.5t-12.5 55.5t30 88t58 96.5t72 81.5t71.5 42t57.5 -21q23 -31 29 -83.5t-3 -116.5
t-31.5 -134t-55.5 -136.5t-75.5 -123.5t-91.5 -95t-103 -51.5t-110 7.5zM68 214q-1 -3 -1.5 -11t-0.5 -17t0.5 -17t1.5 -11q32 -8 66 15t62.5 59t48 76t24 67t-10.5 30.5t-55 -32.5q-12 -11 -32 -30t-40.5 -41t-38 -45.5t-24.5 -42.5zM272 629q23 -15 24 -33.5t-12 -34.5
t-36.5 -26t-48.5 -6.5t-48 23.5t-35 64q-2 1 1 4t7 6t8.5 5.5t6.5 2.5q10 -15 26.5 -34t35.5 -26.5t37.5 3t33.5 52.5z" />
    <glyph glyph-name="Gdotaccent" unicode="&#x120;" 
d="M74 11q-44 33 -60 81t-10 104.5t30 118t59.5 120.5t80 112.5t91 94t92 65t83.5 26.5q18 5 36.5 -1t33.5 -18.5t25 -29.5t13 -33.5t-4 -31t-26 -21.5q-3 -2 -9.5 -2t-6.5 2v79q0 2 -5 4.5t-11.5 4t-13 2.5t-10.5 0q-99 -25 -169.5 -84t-117.5 -140q-67 -117 -97.5 -195
t-34 -124t16.5 -64.5t54 -16.5t79 20.5t91.5 46t90.5 61t77 64.5t50.5 56.5t11.5 37.5q-16 3 -35 -1.5t-33 -9.5q-9 -3 -33.5 -11t-51.5 -17l-51 -17t-33 -12q-14 -5 -23.5 2.5t-13 19t-0.5 22t14 13.5q16 3 56.5 17.5t91.5 32t105 34.5t95 25t62.5 2.5t8.5 -32.5
q-9 -10 -33 -34.5t-51 -51.5t-51.5 -51t-34.5 -33q-4 -3 -22.5 -19t-42 -35.5t-46.5 -39t-36 -29.5q-13 -11 -33 -28t-44.5 -34.5t-51.5 -33t-54 -24.5t-52.5 -9t-46.5 15zM327 771q-15 20 -15.5 37t8 29t23.5 17.5t30.5 3t29 -13.5t19.5 -32q9 -22 1.5 -39.5t-24 -25
t-36.5 -2.5t-36 26z" />
    <glyph glyph-name="gdotaccent" unicode="&#x121;" horiz-adv-x="362" 
d="M-136 -282q-31 11 -50.5 33t-30 47.5t-13 51.5t1 46t12 30.5t19.5 5.5q-1 -87 20.5 -131.5t56 -56t78 5.5t88 52.5t85 85t68.5 103t40 106t-1 95.5q-90 -65 -140 -82t-69.5 -1.5t-12.5 55.5t30 88t58 96.5t72 81.5t71.5 42t57.5 -21q23 -31 29 -83.5t-3 -116.5
t-31.5 -134t-55.5 -136.5t-75.5 -123.5t-91.5 -95t-103 -51.5t-110 7.5zM68 214q-1 -3 -1.5 -11t-0.5 -17t0.5 -17t1.5 -11q32 -8 66 15t62.5 59t48 76t24 67t-10.5 30.5t-55 -32.5q-12 -11 -32 -30t-40.5 -41t-38 -45.5t-24.5 -42.5zM188 539q-15 20 -15.5 37t8 29
t23.5 17.5t30.5 3t29 -13.5t19.5 -32q9 -22 1.5 -39.5t-24 -25t-36.5 -2.5t-36 26z" />
    <glyph glyph-name="Hcircumflex" unicode="&#x124;" horiz-adv-x="709" 
d="M34 11q-10 15 -7.5 48t13 74.5t26.5 87t32 87t29.5 74.5t19.5 48q7 15 18.5 42.5t25 60t28.5 68.5t28.5 69t25 60t18.5 43q22 7 29 -1.5t4 -28.5t-14 -48.5t-25.5 -61t-30 -66.5t-28 -64.5t-19 -55.5t-3.5 -40q18 -2 41.5 0t48 6t48.5 9t42 8q91 15 145.5 43t91 71.5
t63.5 104.5t62 142q9 17 16 14.5t11.5 -14t6.5 -25.5t0 -20q-1 -3 -6 -13t-11 -21.5t-11 -21t-6 -12.5q-2 -4 -5 -13.5t-7 -20.5t-7 -20.5t-4 -13.5q5 -1 13.5 -9.5t9.5 -13.5q3 -17 -11 -38.5t-34.5 -44.5t-40 -45t-26.5 -41q-41 -100 -70.5 -200t-43.5 -207q-3 -5 -9 -10
t-13 -1q-2 22 3.5 60.5t14.5 84t20 92.5t20.5 86.5t15.5 65.5t5 29q-21 4 -54 1.5t-72 -9t-81 -15.5t-81.5 -19.5t-73.5 -20t-56 -16.5q-17 -38 -28 -83.5t-22.5 -91.5t-25.5 -88.5t-37 -75.5q-2 1 -6.5 5t-5.5 6zM605 796q-2 3 -7.5 18.5t-12.5 32t-14.5 26.5t-14.5 3
q-4 -6 -16.5 -27t-30.5 -41t-38 -31.5t-39 0.5q-5 3 -10.5 8.5t-1.5 13.5q5 9 18 19.5t27 21t26.5 21t17.5 19.5q22 47 40.5 64.5t33 14.5t25 -22t16.5 -43.5t8.5 -50t0 -42.5t-9.5 -20.5t-18 15.5z" />
    <glyph glyph-name="hcircumflex" unicode="&#x125;" horiz-adv-x="554" 
d="M11 23q-1 2 -1 5.5t1 5.5q4 8 13.5 27.5t20 41t20.5 40.5t14 27q2 3 10.5 17t21 34.5t27 45.5t29 49t27 45t20.5 35q20 33 46.5 78t54.5 91t55.5 89t50.5 71t39 37t22 -12v-32q-7 -11 -19 -28.5t-24.5 -37t-24.5 -37.5t-18 -28q-9 -14 -29 -45t-45 -70t-51 -81.5
t-47 -79.5t-33.5 -63.5t-9.5 -33.5q24 7 51.5 25.5t55.5 39.5t56 40.5t52 30.5q24 -3 42 -18t26 -38q-1 -9 -1.5 -33.5t-0.5 -51.5t0.5 -51t1.5 -33q1 -11 10 -27.5t19.5 -33t19 -28.5t7.5 -13q-20 -7 -38 -0.5t-31.5 21t-22 33t-10.5 36.5q-1 9 -3 33.5t-3.5 51.5t-3 51
t-1.5 33l-23 12q-6 3 -20.5 -5t-33.5 -22t-40 -32t-39.5 -34t-31.5 -28t-16 -15q-8 -8 -29 -28.5t-44.5 -44t-44 -44.5t-28.5 -30q-14 -3 -26.5 -2.5t-19.5 14.5zM517 749q-2 3 -7.5 18.5t-12.5 32t-14.5 26.5t-14.5 3q-4 -6 -16.5 -27t-30.5 -41t-38 -31.5t-39 0.5
q-5 3 -10.5 8.5t-1.5 13.5q5 9 18 19.5t27 21t26.5 21t17.5 19.5q22 47 40.5 64.5t33 14.5t25 -22t16.5 -43.5t8.5 -50t0 -42.5t-9.5 -20.5t-18 15.5z" />
    <glyph glyph-name="hbar" unicode="&#x127;" horiz-adv-x="554" 
d="M21 6q-1 2 -1 5.5t1 5.5q4 8 13.5 27.5t20 41t20.5 40.5t14 27q2 3 10.5 17t21 34.5t27 45.5t29 49t27 45t20.5 35q20 33 46.5 78t54.5 91t55.5 89t50.5 71t39 37t22 -12v-32q-7 -11 -19 -28.5t-24.5 -37t-24.5 -37.5t-18 -28q-9 -14 -29 -45t-45 -70t-51 -81.5
t-47 -79.5t-33.5 -63.5t-9.5 -33.5q24 7 51.5 25.5t55.5 39.5t56 40.5t52 30.5q24 -3 42 -18t26 -38q-1 -9 -1.5 -33.5t-0.5 -51.5t0.5 -51t1.5 -33q1 -11 10 -27.5t19.5 -33t19 -28.5t7.5 -13q-20 -7 -38 -0.5t-31.5 21t-22 33t-10.5 36.5q-1 9 -3 33.5t-3.5 51.5t-3 51
t-1.5 33l-23 12q-6 3 -20.5 -5t-33.5 -22t-40 -32t-39.5 -34t-31.5 -28t-16 -15q-8 -8 -29 -28.5t-44.5 -44t-44 -44.5t-28.5 -30q-14 -3 -26.5 -2.5t-19.5 14.5zM75 452q-13 13 1.5 25t46 22t75.5 17t91 11t91.5 3.5t78 -6.5t50 -18t7.5 -31q-11 0 -36.5 -1.5t-54.5 -3.5
t-55 -3.5t-36 -2.5q-25 -2 -61 -11.5t-73.5 -16t-71.5 -5.5t-53 21z" />
    <glyph glyph-name="Itilde" unicode="&#x128;" horiz-adv-x="220" 
d="M11 34q-2 7 -0.5 19.5t4 25.5t5.5 23t3 11l226 588q7 18 13 13.5t9.5 -19t3.5 -33t-4 -29.5q-32 -76 -64.5 -152.5t-62 -154t-55.5 -156t-44 -159.5q-8 -5 -13.5 -4t-10 5.5t-7 10.5t-3.5 11zM249 740q-29 5 -43.5 23.5t-23 39t-14.5 36.5t-17.5 16t-33.5 -23t-61 -80
q-20 -12 -26.5 -6t-3.5 22.5t14.5 39.5t28.5 45t38.5 38.5t44 20.5t45 -9t41.5 -50q9 -43 25.5 -59t38 -14.5t46.5 16t52 33.5t55 38.5t54 30.5q6 -10 -6 -28.5t-34.5 -40t-52 -42.5t-60.5 -35.5t-59.5 -19t-47.5 7.5z" />
    <glyph glyph-name="Idotaccent" unicode="&#x130;" horiz-adv-x="220" 
d="M11 34q-2 7 -0.5 19.5t4 25.5t5.5 23t3 11l226 588q7 18 13 13.5t9.5 -19t3.5 -33t-4 -29.5q-32 -76 -64.5 -152.5t-62 -154t-55.5 -156t-44 -159.5q-8 -5 -13.5 -4t-10 5.5t-7 10.5t-3.5 11zM208 787q-15 20 -15.5 37t8 29t23.5 17.5t30.5 3t29 -13.5t19.5 -32
q9 -22 1.5 -39.5t-24 -25t-36.5 -2.5t-36 26z" />
    <glyph glyph-name="Jcircumflex" unicode="&#x134;" horiz-adv-x="622" 
d="M85 11q-10 5 -23.5 20t-25.5 34t-21.5 40.5t-12 40t3 31t23.5 15.5q1 -14 3 -36t9 -43t20 -37.5t36 -18.5q65 -5 112.5 21.5t82.5 72.5t59 105.5t42.5 121.5t33.5 120t31 101q10 37 -1 49.5t-35 10.5t-56.5 -13.5t-64.5 -23t-60 -17t-43 4.5q-21 14 -14 27.5t33 26
t67.5 23.5t89 21t97 18.5t92.5 14.5t75.5 10t45.5 6q17 2 47 5.5t61 7.5t55 6.5t29 2.5q19 1 47.5 2t55.5 1t47 -1t20 -2l11 -33q-27 -2 -73 -3.5t-101 -4.5t-114 -8.5t-110 -15t-90 -24t-55 -35.5q-8 -23 -19 -68t-27 -102.5t-36.5 -122t-46 -125.5t-56.5 -113.5t-68.5 -86
t-81 -43t-94.5 16.5zM602 782q-2 3 -7.5 18.5t-12.5 32t-14.5 26.5t-14.5 3q-4 -6 -16.5 -27t-30.5 -41t-38 -31.5t-39 0.5q-5 3 -10.5 8.5t-1.5 13.5q5 9 18 19.5t27 21t26.5 21t17.5 19.5q22 47 40.5 64.5t33 14.5t25 -22t16.5 -43.5t8.5 -50t0 -42.5t-9.5 -20.5t-18 15.5
z" />
    <glyph glyph-name="jcircumflex" unicode="&#x135;" horiz-adv-x="186" 
d="M-243 -350q-25 11 -50.5 30t-40 42t-12 48.5t34.5 49.5q7 -1 10 -10t4.5 -22t3 -28t7 -29t15.5 -24t28 -12q46 -7 83 14.5t66.5 61.5t53.5 93.5t44 110.5t36 114t31 103t29 77t30 37q13 -5 12.5 -39t-12 -86.5t-32.5 -117t-49 -129t-62.5 -123.5t-72 -100.5t-77.5 -59.5
t-80 -1zM178 494q-2 3 -7.5 18.5t-12.5 32t-14.5 26.5t-14.5 3q-4 -6 -16.5 -27t-30.5 -41t-38 -31.5t-39 0.5q-5 3 -10.5 8.5t-1.5 13.5q5 9 18 19.5t27 21t26.5 21t17.5 19.5q22 47 40.5 64.5t33 14.5t25 -22t16.5 -43.5t8.5 -50t0 -42.5t-9.5 -20.5t-18 15.5z" />
    <glyph glyph-name="Lacute" unicode="&#x139;" horiz-adv-x="701" 
d="M29 11q-16 11 -13 33t14 45q11 26 32 57q32 61 57.5 109.5t47.5 91.5t42 83t40.5 84t42.5 94t49 114q2 4 6.5 11.5t11 12t13.5 3t14 -14.5q10 -20 1.5 -55t-29.5 -80.5t-50 -98t-61 -106.5t-63 -107t-54.5 -99t-36 -83.5t-8.5 -59.5q71 -7 143 1t144 19.5t144.5 20.5
t144.5 4q13 2 22 -9t1 -24q-2 0 -8.5 0.5t-13.5 0.5t-13.5 -0.5t-9.5 -0.5q-56 -5 -131 -17.5t-155 -23.5t-159.5 -17t-143.5 1q-1 0 -9.5 4.5t-11.5 6.5zM526 629q-33 -24 -46.5 -24t-12 14.5t15 37.5t34 45t45.5 37t49 14q6 -30 -0.5 -44t-20 -23.5t-31.5 -21t-33 -35.5z
" />
    <glyph glyph-name="lacute" unicode="&#x13a;" horiz-adv-x="328" 
d="M57 11q-29 21 -37.5 53t-2.5 69.5t21.5 77.5t34 77t36 68t27.5 51l14.5 29t24.5 50t24.5 50.5t14.5 29.5q3 5 8.5 19.5t12.5 31.5t15.5 32.5t18 22.5t19 2t18.5 -30q-4 -10 -19.5 -40t-36.5 -72l-46.5 -93t-49.5 -103t-45 -101.5t-34.5 -90t-16 -67t9.5 -32.5
q14 -7 36.5 -5.5t46.5 5.5t47 8.5t40 3.5q4 -9 -6 -17.5t-28 -15t-41.5 -11t-45 -6.5t-38 -1t-22.5 5zM250 724q-33 -24 -46.5 -24t-12 14.5t15 37.5t34 45t45.5 37t49 14q6 -30 -0.5 -44t-20 -23.5t-31.5 -21t-33 -35.5z" />
    <glyph glyph-name="Lslash" unicode="&#x141;" horiz-adv-x="701" 
d="M29 11q-16 11 -13 33t14 45q11 26 32 57q32 61 57.5 109.5t47.5 91.5t42 83t40.5 84t42.5 94t49 114q2 4 6.5 11.5t11 12t13.5 3t14 -14.5q10 -20 1.5 -55t-29.5 -80.5t-50 -98t-61 -106.5t-63 -107t-54.5 -99t-36 -83.5t-8.5 -59.5q71 -7 143 1t144 19.5t144.5 20.5
t144.5 4q13 2 22 -9t1 -24q-2 0 -8.5 0.5t-13.5 0.5t-13.5 -0.5t-9.5 -0.5q-56 -5 -131 -17.5t-155 -23.5t-159.5 -17t-143.5 1q-1 0 -9.5 4.5t-11.5 6.5zM-11 275q-13 13 1.5 25t46 22t75.5 17t91 11t91.5 3.5t78 -6.5t50 -18t7.5 -31q-11 0 -36.5 -1.5t-54.5 -3.5
t-55 -3.5t-36 -2.5q-25 -2 -61 -11.5t-73.5 -16t-71.5 -5.5t-53 21z" />
    <glyph glyph-name="lslash" unicode="&#x142;" horiz-adv-x="328" 
d="M57 11q-29 21 -37.5 53t-2.5 69.5t21.5 77.5t34 77t36 68t27.5 51l14.5 29t24.5 50t24.5 50.5t14.5 29.5q3 5 8.5 19.5t12.5 31.5t15.5 32.5t18 22.5t19 2t18.5 -30q-4 -10 -19.5 -40t-36.5 -72l-46.5 -93t-49.5 -103t-45 -101.5t-34.5 -90t-16 -67t9.5 -32.5
q14 -7 36.5 -5.5t46.5 5.5t47 8.5t40 3.5q4 -9 -6 -17.5t-28 -15t-41.5 -11t-45 -6.5t-38 -1t-22.5 5zM-46 282q-13 13 1.5 25t46 22t75.5 17t91 11t91.5 3.5t78 -6.5t50 -18t7.5 -31q-11 0 -36.5 -1.5t-54.5 -3.5t-55 -3.5t-36 -2.5q-25 -2 -61 -11.5t-73.5 -16t-71.5 -5.5
t-53 21z" />
    <glyph glyph-name="Nacute" unicode="&#x143;" horiz-adv-x="830" 
d="M11 23q7 31 24.5 69t38.5 75t41 70.5t32 56.5q6 12 18.5 36.5t28 56t33 65.5t33 65.5t28 56t18.5 36.5q31 32 51.5 18t36.5 -57t29 -106t28 -129t34 -126t46 -97q13 -6 31.5 13t40.5 55.5t46 85.5t48.5 103t47.5 109t43 101.5t34.5 81.5t22.5 49q7 13 14.5 12.5t12.5 -8
t7.5 -19t-0.5 -20.5q-32 -87 -60 -157t-57.5 -135t-63 -132.5t-76.5 -149.5q-32 -39 -62 -43.5t-62 43.5q-33 58 -52 110t-32.5 102.5t-24.5 103t-27 113.5q-9 6 -30 -21t-48.5 -72t-57.5 -101t-57 -108t-48 -93t-30 -57q-5 -9 -12.5 -22l-15 -26t-13 -22l-5.5 -9h-34
q-1 2 -1 11t1 12zM545 729q-33 -24 -46.5 -24t-12 14.5t15 37.5t34 45t45.5 37t49 14q6 -30 -0.5 -44t-20 -23.5t-31.5 -21t-33 -35.5z" />
    <glyph glyph-name="nacute" unicode="&#x144;" horiz-adv-x="576" 
d="M390 11q-3 33 5.5 65.5t23 64t31 63t28.5 62t17 60t-4 58.5q-25 9 -57.5 -4t-68.5 -39.5t-74.5 -62t-75 -72l-69.5 -69.5t-59.5 -54.5t-44.5 -27t-24 12.5q-1 1 11.5 25.5t31 61.5t41 80t42.5 80.5t35 63.5t19 28q21 -14 21.5 -30.5t-5.5 -34t-13.5 -35.5t-2.5 -36
q16 11 44.5 30.5t62 40.5t70 41t68.5 31.5t57.5 12.5t37.5 -15t7.5 -52.5t-31.5 -99.5q-3 -7 -14.5 -33.5t-25 -57t-25 -57t-14.5 -33.5q-1 -4 -2.5 -14.5t-3.5 -23t-6 -24t-10 -17.5t-14 1.5t-9 9.5zM377 505q-33 -24 -46.5 -24t-12 14.5t15 37.5t34 45t45.5 37t49 14
q6 -30 -0.5 -44t-20 -23.5t-31.5 -21t-33 -35.5z" />
    <glyph glyph-name="Ncaron" unicode="&#x147;" horiz-adv-x="830" 
d="M11 23q7 31 24.5 69t38.5 75t41 70.5t32 56.5q6 12 18.5 36.5t28 56t33 65.5t33 65.5t28 56t18.5 36.5q31 32 51.5 18t36.5 -57t29 -106t28 -129t34 -126t46 -97q13 -6 31.5 13t40.5 55.5t46 85.5t48.5 103t47.5 109t43 101.5t34.5 81.5t22.5 49q7 13 14.5 12.5t12.5 -8
t7.5 -19t-0.5 -20.5q-32 -87 -60 -157t-57.5 -135t-63 -132.5t-76.5 -149.5q-32 -39 -62 -43.5t-62 43.5q-33 58 -52 110t-32.5 102.5t-24.5 103t-27 113.5q-9 6 -30 -21t-48.5 -72t-57.5 -101t-57 -108t-48 -93t-30 -57q-5 -9 -12.5 -22l-15 -26t-13 -22l-5.5 -9h-34
q-1 2 -1 11t1 12zM679 840q13 10 18.5 1.5t4 -24.5t-9.5 -34.5t-22 -30t-34 -10.5t-45 25q-3 4 -12.5 12.5t-20.5 18t-21 18t-14 11.5q-3 3 2 5.5t10 2.5q15 5 30.5 -2t29 -18t23 -21.5t13.5 -13.5q6 -3 13.5 6t14.5 20.5t12.5 22t7.5 11.5z" />
    <glyph glyph-name="ncaron" unicode="&#x148;" horiz-adv-x="576" 
d="M390 11q-3 33 5.5 65.5t23 64t31 63t28.5 62t17 60t-4 58.5q-25 9 -57.5 -4t-68.5 -39.5t-74.5 -62t-75 -72l-69.5 -69.5t-59.5 -54.5t-44.5 -27t-24 12.5q-1 1 11.5 25.5t31 61.5t41 80t42.5 80.5t35 63.5t19 28q21 -14 21.5 -30.5t-5.5 -34t-13.5 -35.5t-2.5 -36
q16 11 44.5 30.5t62 40.5t70 41t68.5 31.5t57.5 12.5t37.5 -15t7.5 -52.5t-31.5 -99.5q-3 -7 -14.5 -33.5t-25 -57t-25 -57t-14.5 -33.5q-1 -4 -2.5 -14.5t-3.5 -23t-6 -24t-10 -17.5t-14 1.5t-9 9.5zM458 664q13 10 18.5 1.5t4 -24.5t-9.5 -34.5t-22 -30t-34 -10.5t-45 25
q-3 4 -12.5 12.5t-20.5 18t-21 18t-14 11.5q-3 3 2 5.5t10 2.5q15 5 30.5 -2t29 -18t23 -21.5t13.5 -13.5q6 -3 13.5 6t14.5 20.5t12.5 22t7.5 11.5z" />
    <glyph glyph-name="Ohungarumlaut" unicode="&#x150;" horiz-adv-x="527" 
d="M97 11q-50 21 -66 58.5t-11 81t24.5 87.5t40.5 78q7 12 26 41t40.5 61.5t41 61t27.5 39.5q12 77 48 122.5t81.5 62.5t93.5 7.5t84 -43t52 -89.5t-2.5 -131t-78.5 -168t-176 -201q-20 -19 -47.5 -36.5t-58 -28.5t-61.5 -13t-58 10zM62 90q10 -45 38 -56t66 4t83 51
t90 84.5t86 105.5t71.5 113t46.5 107t10.5 88.5t-36 56.5t-93.5 11q-23 -20 -61 -58.5t-81 -87.5t-86 -105.5t-76 -112.5t-50 -108t-8 -93zM318 770q-33 -24 -47 -25t-13.5 12t13 34.5t32 41.5t43.5 34.5t48 13.5q6 -30 1 -42t-17 -19.5t-28.5 -16.5t-31.5 -33zM472 757
q-33 -24 -47 -25t-13.5 12t12.5 34.5t31.5 41.5t43.5 34.5t48 12.5q7 -29 1.5 -40.5t-17.5 -19t-28 -17t-31 -33.5z" />
    <glyph glyph-name="ohungarumlaut" unicode="&#x151;" horiz-adv-x="430" 
d="M79 11q-42 17 -52.5 51t0.5 75.5t38 86t60 81.5t66.5 62.5t57.5 28.5q62 8 97.5 -8.5t48.5 -47.5t7 -72.5t-26.5 -83.5t-53 -81t-72 -65.5t-83.5 -35t-88 8.5zM68 68q8 -32 34 -35.5t60.5 13t72.5 48t69.5 68.5t52 74.5t20 65.5t-27 42.5t-88.5 5.5q-14 -13 -36 -31.5
t-45.5 -40.5t-46.5 -47.5t-40 -52.5t-24.5 -55t-0.5 -55zM164 496q-33 -24 -47 -25t-13.5 12t13 34.5t32 41.5t43.5 34.5t48 13.5q6 -30 1 -42t-17 -19.5t-28.5 -16.5t-31.5 -33zM318 483q-33 -24 -47 -25t-13.5 12t12.5 34.5t31.5 41.5t43.5 34.5t48 12.5q7 -29 1.5 -40.5
t-17.5 -19t-28 -17t-31 -33.5z" />
    <glyph glyph-name="OE" unicode="&#x152;" horiz-adv-x="1150" 
d="M97 11q-50 21 -66 58.5t-11 81t24.5 87.5t40.5 78q7 12 26 41t40.5 61.5t41 61t27.5 39.5q12 77 48 122.5t81.5 62.5t93.5 7.5t84 -43t52 -89.5t-2.5 -131t-78.5 -168t-176 -201q-20 -19 -47.5 -36.5t-58 -28.5t-61.5 -13t-58 10zM62 90q10 -45 38 -56t66 4t83 51
t90 84.5t86 105.5t71.5 113t46.5 107t10.5 88.5t-36 56.5t-93.5 11q-23 -20 -61 -58.5t-81 -87.5t-86 -105.5t-76 -112.5t-50 -108t-8 -93zM420 15q-6 5 3 11q10 36 20.5 69t22.5 65.5t25.5 66t28.5 70.5q5 9 -1.5 18.5t-15 19t-12 20t7.5 21.5q1 1 7.5 3t14.5 3.5t14.5 3
t8.5 2.5q3 2 11.5 10.5t10.5 11.5q16 27 30.5 48t27 42t22.5 44t18 54q3 12 -5.5 15.5t-19.5 6.5t-18 9.5t-1 24.5q4 11 38.5 24t87.5 25t119 22t132 16t126 7.5t102 -4t60 -19t-1 -37.5q-9 -2 -18.5 -0.5t-19.5 4.5t-21 5.5t-21 1.5q-48 -4 -94 -3t-92 1t-92 -3.5
t-92 -16.5q-32 -9 -57 -31.5t-47.5 -57t-45 -79.5t-50.5 -99q11 -3 41.5 4t70 17.5t83.5 21t82.5 15t67.5 0t39 -23.5q1 -2 1 -6t-1 -5q-53 -8 -109.5 -14.5t-112 -16.5t-108.5 -26.5t-100 -44.5q-38 -67 -68 -138t-53 -144q29 10 67.5 19.5t74 17.5t62 13t31.5 6
q85 13 163.5 20.5t163.5 2.5q7 -2 10 -8t4 -13.5t0 -14.5t-2 -10q-109 6 -216.5 -8t-213.5 -37q-17 -4 -41.5 -14t-50 -18t-49 -11t-39.5 8q-4 2 -7 5t-4 8z" />
    <glyph glyph-name="oe" unicode="&#x153;" horiz-adv-x="794" 
d="M79 11q-42 17 -52.5 51t0.5 75.5t38 86t60 81.5t66.5 62.5t57.5 28.5q62 8 97.5 -8.5t48.5 -47.5t7 -72.5t-26.5 -83.5t-53 -81t-72 -65.5t-83.5 -35t-88 8.5zM68 68q8 -32 34 -35.5t60.5 13t72.5 48t69.5 68.5t52 74.5t20 65.5t-27 42.5t-88.5 5.5q-14 -13 -36 -31.5
t-45.5 -40.5t-46.5 -47.5t-40 -52.5t-24.5 -55t-0.5 -55zM391 11q-30 10 -45.5 30.5t-20.5 45.5t-1.5 52.5t11.5 52.5q30 32 67.5 73.5t79.5 81.5t87.5 74.5t92.5 52.5q16 7 25.5 -0.5t13.5 -23.5t3.5 -37t-3.5 -41t-8 -36t-10 -22q-12 -14 -46.5 -33t-76.5 -41.5t-84 -46.5
t-69 -47.5t-32 -46.5t28 -42q34 -4 82.5 3.5t99 20t97.5 26t77 21.5l12 -11q-22 -29 -72 -53t-108 -39.5t-113 -20t-87 6.5zM630 393q-1 1 -15 -8.5t-34.5 -25t-44 -34t-43 -34.5t-32.5 -27.5t-11 -11.5q16 -3 41.5 4.5t53 21.5t52.5 31.5t39.5 34.5t15 30t-21.5 19z" />
    <glyph glyph-name="Racute" unicode="&#x154;" horiz-adv-x="687" 
d="M18 11q-8 23 9 71.5t46.5 110t66 127.5t67 123.5t50 98t15.5 51.5q-12 4 -25.5 -3l-27 -14t-26.5 -8t-23 14q-5 7 -3.5 13.5t6 12.5t10 10.5t9.5 7.5q114 75 216.5 117t184 57t137 6t76.5 -36.5t2.5 -71t-85 -97.5t-187 -115.5t-302.5 -125.5q-10 -16 5.5 -36t46 -43.5
t72 -48.5t84 -50.5t81 -50t63.5 -46.5t32.5 -41t-13.5 -33q-1 -1 -12.5 7.5t-28.5 22t-36.5 29.5t-37 30l-30 24t-14.5 12q-60 38 -120 75t-117 83q-19 6 -38 -20t-37 -66.5t-35.5 -86t-32.5 -79t-27 -46t-21 14.5zM256 428q22 -7 59.5 1t83 27t95 46t94.5 56.5t82.5 59.5
t58.5 55.5t22.5 43.5t-24.5 23q-108 2 -184 -10.5t-130 -46.5t-91 -93t-66 -150v-12zM395 766q-33 -24 -46.5 -24t-12 14.5t15 37.5t34 45t45.5 37t49 14q6 -30 -0.5 -44t-20 -23.5t-31.5 -21t-33 -35.5z" />
    <glyph glyph-name="racute" unicode="&#x155;" horiz-adv-x="486" 
d="M29 11q-2 1 0.5 23.5t7.5 56.5t13 75t17 78.5t19.5 66t20.5 39.5q7 7 14 0.5t14 -16t14 -17t15 -1.5q28 39 61.5 74.5t74.5 61.5q4 3 22 9.5t41 13t47.5 11t42 4t24 -9t-6.5 -28.5q-60 -1 -112 -35t-96 -84t-80 -108.5t-62.5 -108.5t-44 -83t-25.5 -33q-1 0 -9 4.5
t-12 6.5zM290 630q-33 -24 -46.5 -24t-12 14.5t15 37.5t34 45t45.5 37t49 14q6 -30 -0.5 -44t-20 -23.5t-31.5 -21t-33 -35.5z" />
    <glyph glyph-name="Rcaron" unicode="&#x158;" horiz-adv-x="687" 
d="M18 11q-8 23 9 71.5t46.5 110t66 127.5t67 123.5t50 98t15.5 51.5q-12 4 -25.5 -3l-27 -14t-26.5 -8t-23 14q-5 7 -3.5 13.5t6 12.5t10 10.5t9.5 7.5q114 75 216.5 117t184 57t137 6t76.5 -36.5t2.5 -71t-85 -97.5t-187 -115.5t-302.5 -125.5q-10 -16 5.5 -36t46 -43.5
t72 -48.5t84 -50.5t81 -50t63.5 -46.5t32.5 -41t-13.5 -33q-1 -1 -12.5 7.5t-28.5 22t-36.5 29.5t-37 30l-30 24t-14.5 12q-60 38 -120 75t-117 83q-19 6 -38 -20t-37 -66.5t-35.5 -86t-32.5 -79t-27 -46t-21 14.5zM256 428q22 -7 59.5 1t83 27t95 46t94.5 56.5t82.5 59.5
t58.5 55.5t22.5 43.5t-24.5 23q-108 2 -184 -10.5t-130 -46.5t-91 -93t-66 -150v-12zM508 885q13 10 18.5 1.5t4 -24.5t-9.5 -34.5t-22 -30t-34 -10.5t-45 25q-3 4 -12.5 12.5t-20.5 18t-21 18t-14 11.5q-3 3 2 5.5t10 2.5q15 5 30.5 -2t29 -18t23 -21.5t13.5 -13.5
q6 -3 13.5 6t14.5 20.5t12.5 22t7.5 11.5z" />
    <glyph glyph-name="rcaron" unicode="&#x159;" horiz-adv-x="486" 
d="M29 11q-2 1 0.5 23.5t7.5 56.5t13 75t17 78.5t19.5 66t20.5 39.5q7 7 14 0.5t14 -16t14 -17t15 -1.5q28 39 61.5 74.5t74.5 61.5q4 3 22 9.5t41 13t47.5 11t42 4t24 -9t-6.5 -28.5q-60 -1 -112 -35t-96 -84t-80 -108.5t-62.5 -108.5t-44 -83t-25.5 -33q-1 0 -9 4.5
t-12 6.5zM296 595q13 10 18.5 1.5t4 -24.5t-9.5 -34.5t-22 -30t-34 -10.5t-45 25q-3 4 -12.5 12.5t-20.5 18t-21 18t-14 11.5q-3 3 2 5.5t10 2.5q15 5 30.5 -2t29 -18t23 -21.5t13.5 -13.5q6 -3 13.5 6t14.5 20.5t12.5 22t7.5 11.5z" />
    <glyph glyph-name="Sacute" unicode="&#x15a;" horiz-adv-x="614" 
d="M91 11q-5 2 -23.5 11t-34.5 21t-22.5 25t12.5 22q11 -10 30.5 -24t37.5 -21q55 -3 107 -0.5t101.5 13t96 32t90.5 56.5q49 41 64.5 75.5t6 64t-39 55t-70 48t-86.5 42t-88 38t-76 36.5t-50 37q-4 17 17 40t58 47.5t85 49t98.5 44.5t98 34t83.5 17.5t55 -5.5t13 -34
q-7 -1 -36 -9t-70.5 -20t-90 -28t-95.5 -33.5t-87 -35.5t-63 -35t-25.5 -31t26.5 -24q146 -44 229.5 -93.5t117.5 -100t26 -99.5t-43.5 -91t-92.5 -74.5t-120.5 -50.5t-127 -19t-112.5 20zM317 755q-33 -24 -46.5 -24t-12 14.5t15 37.5t34 45t45.5 37t49 14q6 -30 -0.5 -44
t-20 -23.5t-31.5 -21t-33 -35.5z" />
    <glyph glyph-name="sacute" unicode="&#x15b;" horiz-adv-x="396" 
d="M29 11q-12 8 -0.5 21.5t37 29t59.5 32.5t65.5 32t55.5 26.5t31 17.5q33 28 34.5 46.5t-16.5 30t-50.5 18t-67 12t-66 11.5t-47.5 16t-10.5 26.5t43.5 42.5q14 10 41 29t58.5 39t62.5 36t52 21q11 2 22.5 -2t18.5 -11.5t6.5 -16.5t-13.5 -16q-57 -32 -109.5 -60
t-105.5 -64q-3 -8 1.5 -14t10.5 -9q106 -11 159.5 -31t68 -44t-3.5 -51t-53.5 -53t-81.5 -49t-88.5 -39t-74.5 -24t-39 -3zM183 488q-33 -24 -46.5 -24t-12 14.5t15 37.5t34 45t45.5 37t49 14q6 -30 -0.5 -44t-20 -23.5t-31.5 -21t-33 -35.5z" />
    <glyph glyph-name="Scircumflex" unicode="&#x15c;" horiz-adv-x="614" 
d="M91 11q-5 2 -23.5 11t-34.5 21t-22.5 25t12.5 22q11 -10 30.5 -24t37.5 -21q55 -3 107 -0.5t101.5 13t96 32t90.5 56.5q49 41 64.5 75.5t6 64t-39 55t-70 48t-86.5 42t-88 38t-76 36.5t-50 37q-4 17 17 40t58 47.5t85 49t98.5 44.5t98 34t83.5 17.5t55 -5.5t13 -34
q-7 -1 -36 -9t-70.5 -20t-90 -28t-95.5 -33.5t-87 -35.5t-63 -35t-25.5 -31t26.5 -24q146 -44 229.5 -93.5t117.5 -100t26 -99.5t-43.5 -91t-92.5 -74.5t-120.5 -50.5t-127 -19t-112.5 20zM436 770q-2 3 -7.5 18.5t-12.5 32t-14.5 26.5t-14.5 3q-4 -6 -16.5 -27t-30.5 -41
t-38 -31.5t-39 0.5q-5 3 -10.5 8.5t-1.5 13.5q5 9 18 19.5t27 21t26.5 21t17.5 19.5q22 47 40.5 64.5t33 14.5t25 -22t16.5 -43.5t8.5 -50t0 -42.5t-9.5 -20.5t-18 15.5z" />
    <glyph glyph-name="scircumflex" unicode="&#x15d;" horiz-adv-x="396" 
d="M29 11q-12 8 -0.5 21.5t37 29t59.5 32.5t65.5 32t55.5 26.5t31 17.5q33 28 34.5 46.5t-16.5 30t-50.5 18t-67 12t-66 11.5t-47.5 16t-10.5 26.5t43.5 42.5q14 10 41 29t58.5 39t62.5 36t52 21q11 2 22.5 -2t18.5 -11.5t6.5 -16.5t-13.5 -16q-57 -32 -109.5 -60
t-105.5 -64q-3 -8 1.5 -14t10.5 -9q106 -11 159.5 -31t68 -44t-3.5 -51t-53.5 -53t-81.5 -49t-88.5 -39t-74.5 -24t-39 -3zM351 636q-2 3 -7.5 18.5t-12.5 32t-14.5 26.5t-14.5 3q-4 -6 -16.5 -27t-30.5 -41t-38 -31.5t-39 0.5q-5 3 -10.5 8.5t-1.5 13.5q5 9 18 19.5t27 21
t26.5 21t17.5 19.5q22 47 40.5 64.5t33 14.5t25 -22t16.5 -43.5t8.5 -50t0 -42.5t-9.5 -20.5t-18 15.5z" />
    <glyph glyph-name="Scedilla" unicode="&#x15e;" horiz-adv-x="614" 
d="M91 11q-5 2 -23.5 11t-34.5 21t-22.5 25t12.5 22q11 -10 30.5 -24t37.5 -21q55 -3 107 -0.5t101.5 13t96 32t90.5 56.5q49 41 64.5 75.5t6 64t-39 55t-70 48t-86.5 42t-88 38t-76 36.5t-50 37q-4 17 17 40t58 47.5t85 49t98.5 44.5t98 34t83.5 17.5t55 -5.5t13 -34
q-7 -1 -36 -9t-70.5 -20t-90 -28t-95.5 -33.5t-87 -35.5t-63 -35t-25.5 -31t26.5 -24q146 -44 229.5 -93.5t117.5 -100t26 -99.5t-43.5 -91t-92.5 -74.5t-120.5 -50.5t-127 -19t-112.5 20zM218 -158q-5 14 9.5 19.5t35 8.5t40.5 7.5t26 16.5q6 13 2 18.5t-14 8.5t-22.5 4
t-23.5 4t-18 9.5t-5 19.5q-4 22 -3 41t5.5 27t12 0.5t16.5 -37.5q6 -19 27 -26t41.5 -12t33.5 -14t4 -31q-2 -8 -19 -25t-41 -32t-50.5 -22t-45.5 4q-2 1 -6 5t-5 6z" />
    <glyph glyph-name="scedilla" unicode="&#x15f;" horiz-adv-x="396" 
d="M29 11q-12 8 -0.5 21.5t37 29t59.5 32.5t65.5 32t55.5 26.5t31 17.5q33 28 34.5 46.5t-16.5 30t-50.5 18t-67 12t-66 11.5t-47.5 16t-10.5 26.5t43.5 42.5q14 10 41 29t58.5 39t62.5 36t52 21q11 2 22.5 -2t18.5 -11.5t6.5 -16.5t-13.5 -16q-57 -32 -109.5 -60
t-105.5 -64q-3 -8 1.5 -14t10.5 -9q106 -11 159.5 -31t68 -44t-3.5 -51t-53.5 -53t-81.5 -49t-88.5 -39t-74.5 -24t-39 -3zM108 -131q-5 14 9.5 19.5t35 8.5t40.5 7.5t26 16.5q6 13 2 18.5t-14 8.5t-22.5 4t-23.5 4t-18 9.5t-5 19.5q-4 22 -3 41t5.5 27t12 0.5t16.5 -37.5
q6 -19 27 -26t41.5 -12t33.5 -14t4 -31q-2 -8 -19 -25t-41 -32t-50.5 -22t-45.5 4q-2 1 -6 5t-5 6z" />
    <glyph glyph-name="Scaron" unicode="&#x160;" horiz-adv-x="614" 
d="M91 11q-5 2 -23.5 11t-34.5 21t-22.5 25t12.5 22q11 -10 30.5 -24t37.5 -21q55 -3 107 -0.5t101.5 13t96 32t90.5 56.5q49 41 64.5 75.5t6 64t-39 55t-70 48t-86.5 42t-88 38t-76 36.5t-50 37q-4 17 17 40t58 47.5t85 49t98.5 44.5t98 34t83.5 17.5t55 -5.5t13 -34
q-7 -1 -36 -9t-70.5 -20t-90 -28t-95.5 -33.5t-87 -35.5t-63 -35t-25.5 -31t26.5 -24q146 -44 229.5 -93.5t117.5 -100t26 -99.5t-43.5 -91t-92.5 -74.5t-120.5 -50.5t-127 -19t-112.5 20zM361 832q13 10 18.5 1.5t4 -24.5t-9.5 -34.5t-22 -30t-34 -10.5t-45 25
q-3 4 -12.5 12.5t-20.5 18t-21 18t-14 11.5q-3 3 2 5.5t10 2.5q15 5 30.5 -2t29 -18t23 -21.5t13.5 -13.5q6 -3 13.5 6t14.5 20.5t12.5 22t7.5 11.5z" />
    <glyph glyph-name="scaron" unicode="&#x161;" horiz-adv-x="396" 
d="M29 11q-12 8 -0.5 21.5t37 29t59.5 32.5t65.5 32t55.5 26.5t31 17.5q33 28 34.5 46.5t-16.5 30t-50.5 18t-67 12t-66 11.5t-47.5 16t-10.5 26.5t43.5 42.5q14 10 41 29t58.5 39t62.5 36t52 21q11 2 22.5 -2t18.5 -11.5t6.5 -16.5t-13.5 -16q-57 -32 -109.5 -60
t-105.5 -64q-3 -8 1.5 -14t10.5 -9q106 -11 159.5 -31t68 -44t-3.5 -51t-53.5 -53t-81.5 -49t-88.5 -39t-74.5 -24t-39 -3zM251 595q13 10 18.5 1.5t4 -24.5t-9.5 -34.5t-22 -30t-34 -10.5t-45 25q-3 4 -12.5 12.5t-20.5 18t-21 18t-14 11.5q-3 3 2 5.5t10 2.5q15 5 30.5 -2
t29 -18t23 -21.5t13.5 -13.5q6 -3 13.5 6t14.5 20.5t12.5 22t7.5 11.5z" />
    <glyph glyph-name="Tcaron" unicode="&#x164;" horiz-adv-x="558" 
d="M175 11q-6 25 0.5 57.5t18.5 65.5t26 63.5t23 50.5q5 12 15.5 35t24 52t28 61t28 61t24 51.5t15.5 33.5q-17 3 -48.5 -3t-69.5 -15.5l-78 -19.5t-74.5 -14.5t-59 -1t-30.5 20.5q7 13 51 30t112.5 35.5t153 37.5t172.5 36t172 31t150 23t106.5 12t42.5 -2q3 -8 1 -19.5
t-13 -14.5q-49 -8 -106 -17.5t-115.5 -20t-114.5 -21t-104 -20.5q-31 -6 -60 -36t-56 -74.5t-52 -99t-47.5 -110.5t-41.5 -108t-35 -91.5t-28 -61.5t-20 -18l-6 6zM332 767q13 10 18.5 1.5t4 -24.5t-9.5 -34.5t-22 -30t-34 -10.5t-45 25q-3 4 -12.5 12.5t-20.5 18t-21 18
t-14 11.5q-3 3 2 5.5t10 2.5q15 5 30.5 -2t29 -18t23 -21.5t13.5 -13.5q6 -3 13.5 6t14.5 20.5t12.5 22t7.5 11.5z" />
    <glyph glyph-name="utilde" unicode="&#x169;" horiz-adv-x="576" 
d="M430 11q-27 11 -43 29t-25 41t-14 48.5t-9 51.5q-9 6 -32 -11.5t-53 -43.5t-64.5 -53.5t-66.5 -40.5t-58.5 -5t-41.5 52q-5 15 3.5 43.5t25.5 62.5t39.5 70.5t44 68t40 54t28.5 29.5q23 -11 20.5 -33.5t-18 -51.5t-40 -62t-46 -65.5t-34.5 -62.5t-7 -53q22 -9 54.5 9.5
t70 51.5t77 75.5t73.5 82t60 69.5t38 40q21 -10 21 -32.5t-11.5 -51.5t-28 -62.5t-28.5 -66.5t-14 -63t16 -52l34 -40h101q7 0 3 -6t-11.5 -13t-15.5 -13.5t-9 -6.5q-26 -5 -42 -1.5t-37 12.5zM291 390q-29 5 -43.5 23.5t-23 39t-14.5 36.5t-17.5 16t-33.5 -23t-61 -80
q-20 -12 -26.5 -6t-3.5 22.5t14.5 39.5t28.5 45t38.5 38.5t44 20.5t45 -9t41.5 -50q9 -43 25.5 -59t38 -14.5t46.5 16t52 33.5t55 38.5t54 30.5q6 -10 -6 -28.5t-34.5 -40t-52 -42.5t-60.5 -35.5t-59.5 -19t-47.5 7.5z" />
    <glyph glyph-name="Ubreve" unicode="&#x16c;" 
d="M91 11q-36 29 -49 75t-9 102t21 117.5t40.5 121t50 113.5t49 95t38 65t17.5 23q8 -4 11 -10.5t3.5 -14.5t-0.5 -16t-2 -15q-1 -2 -6 -11.5t-6 -11.5q-78 -171 -117 -286.5t-48 -184.5t8.5 -96.5t53 -22t85 39t105 86.5t112.5 121t108.5 142t92 149t63.5 143q2 2 5.5 6.5
t5.5 4.5q28 -19 21 -64.5t-38.5 -106.5t-83 -132t-112 -140t-124.5 -130.5t-122 -103.5t-103.5 -59.5t-69.5 1.5zM522 855q23 -15 24 -33.5t-12 -34.5t-36.5 -26t-48.5 -6.5t-48 23.5t-35 64q-2 1 1 4t7 6t8.5 5.5t6.5 2.5q10 -15 26.5 -34t35.5 -26.5t37.5 3t33.5 52.5z
" />
    <glyph glyph-name="ubreve" unicode="&#x16d;" horiz-adv-x="576" 
d="M430 11q-27 11 -43 29t-25 41t-14 48.5t-9 51.5q-9 6 -32 -11.5t-53 -43.5t-64.5 -53.5t-66.5 -40.5t-58.5 -5t-41.5 52q-5 15 3.5 43.5t25.5 62.5t39.5 70.5t44 68t40 54t28.5 29.5q23 -11 20.5 -33.5t-18 -51.5t-40 -62t-46 -65.5t-34.5 -62.5t-7 -53q22 -9 54.5 9.5
t70 51.5t77 75.5t73.5 82t60 69.5t38 40q21 -10 21 -32.5t-11.5 -51.5t-28 -62.5t-28.5 -66.5t-14 -63t16 -52l34 -40h101q7 0 3 -6t-11.5 -13t-15.5 -13.5t-9 -6.5q-26 -5 -42 -1.5t-37 12.5zM320 595q23 -15 24 -33.5t-12 -34.5t-36.5 -26t-48.5 -6.5t-48 23.5t-35 64
q-2 1 1 4t7 6t8.5 5.5t6.5 2.5q10 -15 26.5 -34t35.5 -26.5t37.5 3t33.5 52.5z" />
    <glyph glyph-name="Uring" unicode="&#x16e;" 
d="M91 11q-36 29 -49 75t-9 102t21 117.5t40.5 121t50 113.5t49 95t38 65t17.5 23q8 -4 11 -10.5t3.5 -14.5t-0.5 -16t-2 -15q-1 -2 -6 -11.5t-6 -11.5q-78 -171 -117 -286.5t-48 -184.5t8.5 -96.5t53 -22t85 39t105 86.5t112.5 121t108.5 142t92 149t63.5 143q2 2 5.5 6.5
t5.5 4.5q28 -19 21 -64.5t-38.5 -106.5t-83 -132t-112 -140t-124.5 -130.5t-122 -103.5t-103.5 -59.5t-69.5 1.5zM437 701q-25 10 -31 26.5t0.5 36t23 40t36 37t40 27.5t35.5 13q50 6 71.5 -8.5t21.5 -39t-17.5 -53.5t-45.5 -51t-63.5 -31.5t-70.5 3.5zM451 761
q5 -27 25 -29t44 9.5t45.5 30.5t28.5 36t-6 26t-58 0q-13 -11 -25.5 -18.5t-23 -15t-18.5 -16.5t-12 -23z" />
    <glyph glyph-name="uring" unicode="&#x16f;" horiz-adv-x="576" 
d="M430 11q-27 11 -43 29t-25 41t-14 48.5t-9 51.5q-9 6 -32 -11.5t-53 -43.5t-64.5 -53.5t-66.5 -40.5t-58.5 -5t-41.5 52q-5 15 3.5 43.5t25.5 62.5t39.5 70.5t44 68t40 54t28.5 29.5q23 -11 20.5 -33.5t-18 -51.5t-40 -62t-46 -65.5t-34.5 -62.5t-7 -53q22 -9 54.5 9.5
t70 51.5t77 75.5t73.5 82t60 69.5t38 40q21 -10 21 -32.5t-11.5 -51.5t-28 -62.5t-28.5 -66.5t-14 -63t16 -52l34 -40h101q7 0 3 -6t-11.5 -13t-15.5 -13.5t-9 -6.5q-26 -5 -42 -1.5t-37 12.5zM283 431q-25 10 -31 26.5t0.5 36t23 40t36 37t40 27.5t35.5 13q50 6 71.5 -8.5
t21.5 -39t-17.5 -53.5t-45.5 -51t-63.5 -31.5t-70.5 3.5zM297 491q5 -27 25 -29t44 9.5t45.5 30.5t28.5 36t-6 26t-58 0q-13 -11 -25.5 -18.5t-23 -15t-18.5 -16.5t-12 -23z" />
    <glyph glyph-name="Uhungarumlaut" unicode="&#x170;" 
d="M91 11q-36 29 -49 75t-9 102t21 117.5t40.5 121t50 113.5t49 95t38 65t17.5 23q8 -4 11 -10.5t3.5 -14.5t-0.5 -16t-2 -15q-1 -2 -6 -11.5t-6 -11.5q-78 -171 -117 -286.5t-48 -184.5t8.5 -96.5t53 -22t85 39t105 86.5t112.5 121t108.5 142t92 149t63.5 143q2 2 5.5 6.5
t5.5 4.5q28 -19 21 -64.5t-38.5 -106.5t-83 -132t-112 -140t-124.5 -130.5t-122 -103.5t-103.5 -59.5t-69.5 1.5zM427 763q-33 -24 -47 -25t-13.5 12t13 34.5t32 41.5t43.5 34.5t48 13.5q6 -30 1 -42t-17 -19.5t-28.5 -16.5t-31.5 -33zM581 750q-33 -24 -47 -25t-13.5 12
t12.5 34.5t31.5 41.5t43.5 34.5t48 12.5q7 -29 1.5 -40.5t-17.5 -19t-28 -17t-31 -33.5z" />
    <glyph glyph-name="uhungarumlaut" unicode="&#x171;" horiz-adv-x="576" 
d="M430 11q-27 11 -43 29t-25 41t-14 48.5t-9 51.5q-9 6 -32 -11.5t-53 -43.5t-64.5 -53.5t-66.5 -40.5t-58.5 -5t-41.5 52q-5 15 3.5 43.5t25.5 62.5t39.5 70.5t44 68t40 54t28.5 29.5q23 -11 20.5 -33.5t-18 -51.5t-40 -62t-46 -65.5t-34.5 -62.5t-7 -53q22 -9 54.5 9.5
t70 51.5t77 75.5t73.5 82t60 69.5t38 40q21 -10 21 -32.5t-11.5 -51.5t-28 -62.5t-28.5 -66.5t-14 -63t16 -52l34 -40h101q7 0 3 -6t-11.5 -13t-15.5 -13.5t-9 -6.5q-26 -5 -42 -1.5t-37 12.5zM271 523q-33 -24 -47 -25t-13.5 12t13 34.5t32 41.5t43.5 34.5t48 13.5
q6 -30 1 -42t-17 -19.5t-28.5 -16.5t-31.5 -33zM425 510q-33 -24 -47 -25t-13.5 12t12.5 34.5t31.5 41.5t43.5 34.5t48 12.5q7 -29 1.5 -40.5t-17.5 -19t-28 -17t-31 -33.5z" />
    <glyph glyph-name="Wcircumflex" unicode="&#x174;" horiz-adv-x="702" 
d="M46 11q-13 19 -19.5 63t-8 102t1.5 126t9 135t15.5 129t20.5 108.5t23 72.5t25 22q2 -2 6.5 -6t5.5 -6q1 -11 -2 -41.5t-8.5 -73t-12 -93.5t-13.5 -103.5t-13 -102t-9.5 -89t-3.5 -65.5t5 -31l11 -12q15 7 31 36.5t32.5 72t34 93.5t35 100.5t34.5 93.5t34 72t33 35.5
t30.5 -15t28 -79.5t24.5 -159q0 -5 5 -31.5t12.5 -61t17.5 -70t21 -59t23 -28t23 23.5q3 8 13.5 34t24.5 61t29.5 74t29.5 74t24.5 61t14.5 35q4 10 13 36t22.5 58.5t30.5 67.5t36 62.5t39.5 42.5t41.5 8q2 0 6 -4.5t4 -6.5q-62 -80 -102.5 -160t-71 -163.5t-58 -170
t-63.5 -177.5q-15 -39 -31.5 -45t-32.5 11.5t-31.5 52.5t-29.5 78.5t-26 89.5t-21 85.5t-14.5 67l-6.5 32.5q-2 8 -3.5 19t-3.5 22q-2 12 -4 27h-11q-1 0 -12 -20.5t-25.5 -49t-29.5 -59.5t-24 -51q-5 -10 -15.5 -46.5t-25.5 -83.5t-32.5 -96t-36 -84.5t-37 -49.5t-33.5 9z
M460 751q-2 3 -7.5 18.5t-12.5 32t-14.5 26.5t-14.5 3q-4 -6 -16.5 -27t-30.5 -41t-38 -31.5t-39 0.5q-5 3 -10.5 8.5t-1.5 13.5q5 9 18 19.5t27 21t26.5 21t17.5 19.5q22 47 40.5 64.5t33 14.5t25 -22t16.5 -43.5t8.5 -50t0 -42.5t-9.5 -20.5t-18 15.5z" />
    <glyph glyph-name="wcircumflex" unicode="&#x175;" horiz-adv-x="746" 
d="M334 11q-20 15 -31 39t-16.5 51t-7.5 54t-2 48q-2 2 -5.5 2t-5.5 -2q-25 -18 -48 -43t-45.5 -51t-44 -51.5t-43.5 -46.5q-14 -5 -29 -2.5t-25.5 10t-15 20t2.5 29.5q19 61 41.5 129.5t47.5 130.5q9 22 19.5 24t18.5 -8t11 -27.5t-3 -34.5q-3 -8 -11 -28.5t-17 -44
t-17 -44.5t-11 -29v-34q31 28 52 50t39.5 44.5t38.5 48t50 60.5q23 27 36 29.5t19.5 -11t7.5 -39t0.5 -55t-2.5 -59t-1.5 -51t4.5 -31t15 1.5q12 19 35 55t52 79.5t63.5 88t70.5 80t72 56t69 15.5q1 -4 -11.5 -22t-33 -42.5t-45 -53t-48 -54.5t-41.5 -47t-25 -31
q-3 -4 -12.5 -17.5t-22 -32t-27 -39.5t-27.5 -40t-22.5 -33t-12.5 -18q-9 -13 -15 -21t-11.5 -11t-12.5 -1t-17 10zM478 680q-2 3 -7.5 18.5t-12.5 32t-14.5 26.5t-14.5 3q-4 -6 -16.5 -27t-30.5 -41t-38 -31.5t-39 0.5q-5 3 -10.5 8.5t-1.5 13.5q5 9 18 19.5t27 21t26.5 21
t17.5 19.5q22 47 40.5 64.5t33 14.5t25 -22t16.5 -43.5t8.5 -50t0 -42.5t-9.5 -20.5t-18 15.5z" />
    <glyph glyph-name="Ycircumflex" unicode="&#x176;" horiz-adv-x="402" 
d="M56 -128q-12 30 -3 63t29 69.5t47 75.5t51 80.5t40 85.5t16 89q-4 9 -18 30.5t-33 50l-41 61.5t-42.5 64.5t-37 60t-24.5 47.5t-5 26.5t21 -1.5q14 -13 35 -41.5t43.5 -64t46 -73t43.5 -67t35 -47t22 -12.5q10 20 29.5 63.5t42.5 95t47.5 103t46 87.5t38 48.5t22.5 -13.5
q4 -15 -9 -52.5t-37 -90t-56.5 -117t-68 -133.5t-71 -138.5t-66.5 -133t-54 -116.5t-33 -89q-3 -10 -9.5 -19.5t-14.5 -13.5t-16.5 0.5t-15.5 21.5zM314 776q-2 3 -7.5 18.5t-12.5 32t-14.5 26.5t-14.5 3q-4 -6 -16.5 -27t-30.5 -41t-38 -31.5t-39 0.5q-5 3 -10.5 8.5
t-1.5 13.5q5 9 18 19.5t27 21t26.5 21t17.5 19.5q22 47 40.5 64.5t33 14.5t25 -22t16.5 -43.5t8.5 -50t0 -42.5t-9.5 -20.5t-18 15.5z" />
    <glyph glyph-name="ycircumflex" unicode="&#x177;" horiz-adv-x="441" 
d="M-170 -384q-9 14 0.5 43.5t27 61t36 59t27.5 39.5q8 11 24.5 33l37.5 50t44.5 59t44.5 58.5t38 49.5t25 33q8 9 0 28t-24.5 44.5t-37 56t-37 62t-25 62.5t-0.5 58q11 8 24 -9.5t27.5 -48t30.5 -67t31 -66t29.5 -46.5t27.5 -7q26 19 51 48.5t48 61.5t43.5 62.5t38.5 53.5
q7 9 13.5 12.5t20.5 -1.5q11 -4 -4 -35t-47 -80t-76.5 -111.5t-94 -130t-99 -134.5t-91 -124.5t-71 -101t-38.5 -63.5q-4 -9 -8.5 -18t-12.5 -15q-2 1 -5.5 4t-7 6.5l-7 7t-4.5 5.5zM294 636q-2 3 -7.5 18.5t-12.5 32t-14.5 26.5t-14.5 3q-4 -6 -16.5 -27t-30.5 -41
t-38 -31.5t-39 0.5q-5 3 -10.5 8.5t-1.5 13.5q5 9 18 19.5t27 21t26.5 21t17.5 19.5q22 47 40.5 64.5t33 14.5t25 -22t16.5 -43.5t8.5 -50t0 -42.5t-9.5 -20.5t-18 15.5z" />
    <glyph glyph-name="Ydieresis" unicode="&#x178;" horiz-adv-x="402" 
d="M56 -128q-12 30 -3 63t29 69.5t47 75.5t51 80.5t40 85.5t16 89q-4 9 -18 30.5t-33 50l-41 61.5t-42.5 64.5t-37 60t-24.5 47.5t-5 26.5t21 -1.5q14 -13 35 -41.5t43.5 -64t46 -73t43.5 -67t35 -47t22 -12.5q10 20 29.5 63.5t42.5 95t47.5 103t46 87.5t38 48.5t22.5 -13.5
q4 -15 -9 -52.5t-37 -90t-56.5 -117t-68 -133.5t-71 -138.5t-66.5 -133t-54 -116.5t-33 -89q-3 -10 -9.5 -19.5t-14.5 -13.5t-16.5 0.5t-15.5 21.5zM149 701q-14 21 -7.5 42t22.5 32.5t35 9t30 -27.5q6 -15 -2 -31.5t-22 -27t-30 -11.5t-26 14zM293 706q-15 21 -8 42
t23 32.5t35 9t29 -27.5q6 -15 -2 -31.5t-22 -27t-29.5 -11.5t-25.5 14z" />
    <glyph glyph-name="Zacute" unicode="&#x179;" horiz-adv-x="842" 
d="M29 11q-19 14 0 46t61.5 76.5t102.5 97.5t124.5 109t127 111.5t109.5 104.5t72.5 88t15.5 62q-2 0 -23 -4t-54 -10t-73.5 -12t-81 -10.5t-76 -6.5t-58.5 1.5t-29.5 13.5t11.5 28q22 -3 58.5 3.5t80 16t90 20.5t88.5 18t76 7t51.5 -12t15.5 -38t-31 -72
q-52 -82 -114 -145.5t-130 -120.5t-139 -113t-140 -124q-1 0 -11 -10.5t-21.5 -25t-19.5 -29.5t-5 -24q11 -3 51 5t97 22t125 30.5t136 31.5t129.5 25t105 10t63.5 -13t5 -43q-25 -2 -71 -8.5t-104.5 -16t-125 -21l-133 -23t-128.5 -21.5t-110.5 -16.5t-80 -9t-37.5 1.5z
M459 770q-33 -24 -46.5 -24t-12 14.5t15 37.5t34 45t45.5 37t49 14q6 -30 -0.5 -44t-20 -23.5t-31.5 -21t-33 -35.5z" />
    <glyph glyph-name="zacute" unicode="&#x17a;" horiz-adv-x="566" 
d="M40 11q-19 11 -13.5 31t28.5 45.5t58.5 55t77 61.5t84.5 64.5t80.5 63.5t65 59t37.5 50q-2 13 -20 14.5t-43 -2t-53 -9.5t-50 -6.5t-33.5 7t-4.5 29.5q1 2 21.5 8.5t51.5 13.5t67 12t67 4.5t52.5 -9.5t23 -30t-21.5 -56t-80 -89q-3 -4 -16.5 -16t-30 -26.5t-32 -28
t-22.5 -19.5t-25 -19.5t-40.5 -31t-46.5 -36.5t-43 -36t-30 -29.5t-7 -17.5q42 -4 84.5 0.5t84.5 10.5t84.5 10.5t85.5 0.5q10 -6 19.5 -18.5t2.5 -26.5q-26 -2 -64.5 -8.5t-83 -14.5t-91.5 -15.5t-89.5 -10.5t-78 -0.5t-56.5 15.5zM413 606q-33 -24 -46.5 -24t-12 14.5
t15 37.5t34 45t45.5 37t49 14q6 -30 -0.5 -44t-20 -23.5t-31.5 -21t-33 -35.5z" />
    <glyph glyph-name="Zdotaccent" unicode="&#x17b;" horiz-adv-x="842" 
d="M29 11q-19 14 0 46t61.5 76.5t102.5 97.5t124.5 109t127 111.5t109.5 104.5t72.5 88t15.5 62q-2 0 -23 -4t-54 -10t-73.5 -12t-81 -10.5t-76 -6.5t-58.5 1.5t-29.5 13.5t11.5 28q22 -3 58.5 3.5t80 16t90 20.5t88.5 18t76 7t51.5 -12t15.5 -38t-31 -72
q-52 -82 -114 -145.5t-130 -120.5t-139 -113t-140 -124q-1 0 -11 -10.5t-21.5 -25t-19.5 -29.5t-5 -24q11 -3 51 5t97 22t125 30.5t136 31.5t129.5 25t105 10t63.5 -13t5 -43q-25 -2 -71 -8.5t-104.5 -16t-125 -21l-133 -23t-128.5 -21.5t-110.5 -16.5t-80 -9t-37.5 1.5z
M363 758q-15 20 -15.5 37t8 29t23.5 17.5t30.5 3t29 -13.5t19.5 -32q9 -22 1.5 -39.5t-24 -25t-36.5 -2.5t-36 26z" />
    <glyph glyph-name="zdotaccent" unicode="&#x17c;" horiz-adv-x="566" 
d="M40 11q-19 11 -13.5 31t28.5 45.5t58.5 55t77 61.5t84.5 64.5t80.5 63.5t65 59t37.5 50q-2 13 -20 14.5t-43 -2t-53 -9.5t-50 -6.5t-33.5 7t-4.5 29.5q1 2 21.5 8.5t51.5 13.5t67 12t67 4.5t52.5 -9.5t23 -30t-21.5 -56t-80 -89q-3 -4 -16.5 -16t-30 -26.5t-32 -28
t-22.5 -19.5t-25 -19.5t-40.5 -31t-46.5 -36.5t-43 -36t-30 -29.5t-7 -17.5q42 -4 84.5 0.5t84.5 10.5t84.5 10.5t85.5 0.5q10 -6 19.5 -18.5t2.5 -26.5q-26 -2 -64.5 -8.5t-83 -14.5t-91.5 -15.5t-89.5 -10.5t-78 -0.5t-56.5 15.5zM324 578q-15 20 -15.5 37t8 29t23.5 17.5
t30.5 3t29 -13.5t19.5 -32q9 -22 1.5 -39.5t-24 -25t-36.5 -2.5t-36 26z" />
    <glyph glyph-name="Zcaron" unicode="&#x17d;" horiz-adv-x="842" 
d="M29 11q-19 14 0 46t61.5 76.5t102.5 97.5t124.5 109t127 111.5t109.5 104.5t72.5 88t15.5 62q-2 0 -23 -4t-54 -10t-73.5 -12t-81 -10.5t-76 -6.5t-58.5 1.5t-29.5 13.5t11.5 28q22 -3 58.5 3.5t80 16t90 20.5t88.5 18t76 7t51.5 -12t15.5 -38t-31 -72
q-52 -82 -114 -145.5t-130 -120.5t-139 -113t-140 -124q-1 0 -11 -10.5t-21.5 -25t-19.5 -29.5t-5 -24q11 -3 51 5t97 22t125 30.5t136 31.5t129.5 25t105 10t63.5 -13t5 -43q-25 -2 -71 -8.5t-104.5 -16t-125 -21l-133 -23t-128.5 -21.5t-110.5 -16.5t-80 -9t-37.5 1.5z
M472 860q13 10 18.5 1.5t4 -24.5t-9.5 -34.5t-22 -30t-34 -10.5t-45 25q-3 4 -12.5 12.5t-20.5 18t-21 18t-14 11.5q-3 3 2 5.5t10 2.5q15 5 30.5 -2t29 -18t23 -21.5t13.5 -13.5q6 -3 13.5 6t14.5 20.5t12.5 22t7.5 11.5z" />
    <glyph glyph-name="zcaron" unicode="&#x17e;" horiz-adv-x="566" 
d="M40 11q-19 11 -13.5 31t28.5 45.5t58.5 55t77 61.5t84.5 64.5t80.5 63.5t65 59t37.5 50q-2 13 -20 14.5t-43 -2t-53 -9.5t-50 -6.5t-33.5 7t-4.5 29.5q1 2 21.5 8.5t51.5 13.5t67 12t67 4.5t52.5 -9.5t23 -30t-21.5 -56t-80 -89q-3 -4 -16.5 -16t-30 -26.5t-32 -28
t-22.5 -19.5t-25 -19.5t-40.5 -31t-46.5 -36.5t-43 -36t-30 -29.5t-7 -17.5q42 -4 84.5 0.5t84.5 10.5t84.5 10.5t85.5 0.5q10 -6 19.5 -18.5t2.5 -26.5q-26 -2 -64.5 -8.5t-83 -14.5t-91.5 -15.5t-89.5 -10.5t-78 -0.5t-56.5 15.5zM404 642q13 10 18.5 1.5t4 -24.5
t-9.5 -34.5t-22 -30t-34 -10.5t-45 25q-3 4 -12.5 12.5t-20.5 18t-21 18t-14 11.5q-3 3 2 5.5t10 2.5q15 5 30.5 -2t29 -18t23 -21.5t13.5 -13.5q6 -3 13.5 6t14.5 20.5t12.5 22t7.5 11.5z" />
    <glyph glyph-name="florin" unicode="&#x192;" horiz-adv-x="470" 
d="M-62 -165q0 1 14 -3t31 -9.5t32 -9.5t15 -3l123 440l-124 -12q-3 0 -5.5 4t-4 9.5t-2.5 11t1 8.5q3 1 11 4t17 7t17 7t11 5q3 1 16.5 6t29 10.5t28.5 10.5t16 7q12 8 32 42.5t46.5 83t58.5 105t68.5 109t75.5 94.5t79 62.5t80.5 12t79.5 -56.5q16 -20 11 -45
q-9 -5 -18 -2t-16.5 9.5t-13.5 14.5t-8 12q-67 11 -119 -15.5t-92.5 -72.5t-71.5 -102t-56 -105q-7 -12 -16.5 -31l-18.5 -37l-15.5 -31l-6.5 -13v-12q0 -4 25 -6t56.5 -6t61 -11.5t38.5 -21.5l-11 -11q-57 3 -93 1t-61.5 -16t-45 -42t-42.5 -76q-5 -11 -15 -44t-22 -75.5
t-24 -89t-22 -85t-17 -64t-7 -26.5l-131 17q-2 1 -1 6.5t2.5 12.5t3 13.5t0.5 8.5z" />
    <glyph glyph-name="circumflex" unicode="&#x2c6;" horiz-adv-x="422" 
d="M252 494q-2 3 -7.5 18.5t-12.5 32t-14.5 26.5t-14.5 3q-4 -6 -16.5 -27t-30.5 -41t-38 -31.5t-39 0.5q-5 3 -10.5 8.5t-1.5 13.5q5 9 18 19.5t27 21t26.5 21t17.5 19.5q22 47 40.5 64.5t33 14.5t25 -22t16.5 -43.5t8.5 -50t0 -42.5t-9.5 -20.5t-18 15.5z" />
    <glyph glyph-name="caron" unicode="&#x2c7;" horiz-adv-x="295" 
d="M206 595q13 10 18.5 1.5t4 -24.5t-9.5 -34.5t-22 -30t-34 -10.5t-45 25q-3 4 -12.5 12.5t-20.5 18t-21 18t-14 11.5q-3 3 2 5.5t10 2.5q15 5 30.5 -2t29 -18t23 -21.5t13.5 -13.5q6 -3 13.5 6t14.5 20.5t12.5 22t7.5 11.5z" />
    <glyph glyph-name="breve" unicode="&#x2d8;" horiz-adv-x="295" 
d="M206 595q23 -15 24 -33.5t-12 -34.5t-36.5 -26t-48.5 -6.5t-48 23.5t-35 64q-2 1 1 4t7 6t8.5 5.5t6.5 2.5q10 -15 26.5 -34t35.5 -26.5t37.5 3t33.5 52.5z" />
    <glyph glyph-name="dotaccent" unicode="&#x2d9;" horiz-adv-x="297" 
d="M82 408q-15 20 -15.5 37t8 29t23.5 17.5t30.5 3t29 -13.5t19.5 -32q9 -22 1.5 -39.5t-24 -25t-36.5 -2.5t-36 26z" />
    <glyph glyph-name="ring" unicode="&#x2da;" horiz-adv-x="476" 
d="M153 303q-25 10 -31 26.5t0.5 36t23 40t36 37t40 27.5t35.5 13q50 6 71.5 -8.5t21.5 -39t-17.5 -53.5t-45.5 -51t-63.5 -31.5t-70.5 3.5zM167 363q5 -27 25 -29t44 9.5t45.5 30.5t28.5 36t-6 26t-58 0q-13 -11 -25.5 -18.5t-23 -15t-18.5 -16.5t-12 -23z" />
    <glyph glyph-name="tilde" unicode="&#x2dc;" horiz-adv-x="682" 
d="M308 390q-29 5 -43.5 23.5t-23 39t-14.5 36.5t-17.5 16t-33.5 -23t-61 -80q-20 -12 -26.5 -6t-3.5 22.5t14.5 39.5t28.5 45t38.5 38.5t44 20.5t45 -9t41.5 -50q9 -43 25.5 -59t38 -14.5t46.5 16t52 33.5t55 38.5t54 30.5q6 -10 -6 -28.5t-34.5 -40t-52 -42.5t-60.5 -35.5
t-59.5 -19t-47.5 7.5z" />
    <glyph glyph-name="hungarumlaut" unicode="&#x2dd;" horiz-adv-x="391" 
d="M85 430q-33 -24 -47 -25t-13.5 12t13 34.5t32 41.5t43.5 34.5t48 13.5q6 -30 1 -42t-17 -19.5t-28.5 -16.5t-31.5 -33zM239 417q-33 -24 -47 -25t-13.5 12t12.5 34.5t31.5 41.5t43.5 34.5t48 12.5q7 -29 1.5 -40.5t-17.5 -19t-28 -17t-31 -33.5z" />
    <glyph glyph-name="uni1E02" unicode="&#x1e02;" horiz-adv-x="718" 
d="M74 3q-30 17 -42 33t-12 34t9 40t21 51q3 6 12 24.5t20.5 43.5t25 52.5t25 52.5t20 43.5t11.5 24.5q13 28 11.5 49.5t-5 40.5t-3 37t18.5 41q3 3 13 14t21.5 23.5t21.5 23t12 13.5q5 6 28.5 20t57.5 30.5t75.5 34t82.5 31t79 20.5t65 4t39.5 -19t3.5 -49
q-15 -54 -48.5 -95t-70.5 -73t-70.5 -57t-49.5 -47q120 -4 175.5 -29t63 -63t-24.5 -84.5t-88 -92t-127 -86t-141.5 -66.5t-132 -33t-97.5 13zM153 245q-19 -23 -35 -50.5t-24.5 -54t-7.5 -50t15 -38t42.5 -17.5t76.5 11q106 24 184.5 61t130 77.5t76 80.5t23 70.5t-29 46.5
t-79.5 9.5t-128.5 -41t-176.5 -105.5q-11 -9 -20 -8.5t-17 4t-15 6.5t-15 -2zM175 329q0 -3 -0.5 -9t-0.5 -12.5t0.5 -12.5t0.5 -9q8 2 33 19t60.5 44t77.5 61.5t84.5 72t81 75t66.5 70.5t42.5 58.5t8.5 39.5q-44 6 -92.5 -5.5t-95 -33.5t-86.5 -50.5t-67 -55.5
q-6 -13 -20 -46t-30.5 -70t-31 -69.5t-20.5 -45.5q0 -2 -5 -10.5t-6 -10.5zM376 804q-15 20 -15.5 37t8 29t23.5 17.5t30.5 3t29 -13.5t19.5 -32q9 -22 1.5 -39.5t-24 -25t-36.5 -2.5t-36 26z" />
    <glyph glyph-name="uni1E03" unicode="&#x1e03;" horiz-adv-x="548" 
d="M18 34q-2 1 -2 5t2 6q13 26 29 68.5t34 93t36.5 105t37 105t36.5 92.5t34 67.5t29 30t23 -19.5q9 -23 5 -47.5t-15.5 -50t-27 -52t-28.5 -52.5t-21 -52t-4 -51q28 7 50.5 27t44 42.5t44.5 41.5t53 25q47 9 79 -4.5t47.5 -41.5t14.5 -67t-20 -81t-57 -82t-96 -71t-137 -48
t-180 -12q-2 2 -6.5 11t-4.5 12zM107 90q-1 -4 -1 -16.5t1 -16.5q67 -9 134.5 10.5t120.5 61t84 101.5t24 132q-1 2 -5.5 6t-6.5 5q-33 5 -69 -6t-72 -32.5t-69.5 -51.5t-61.5 -63t-48.5 -67t-30.5 -63zM388 533q-15 20 -15.5 37t8 29t23.5 17.5t30.5 3t29 -13.5t19.5 -32
q9 -22 1.5 -39.5t-24 -25t-36.5 -2.5t-36 26z" />
    <glyph glyph-name="uni1E0A" unicode="&#x1e0a;" horiz-adv-x="823" 
d="M23 11q-5 15 2 26.5t21 19.5q62 31 121 52.5t116.5 43t114.5 48t116 68.5q131 76 201 142t93 119.5t6 94t-59 65.5t-102.5 33.5t-125.5 -1.5t-127 -39.5t-107 -81.5q-1 -2 -3 -7t-3.5 -10.5l-3 -11t-1.5 -6.5q-30 -72 -56.5 -123.5t-50 -99t-44.5 -101t-40 -129.5
q-18 -6 -25.5 1t-8.5 21.5t3.5 33.5t10.5 37t12 33t8 21q8 23 25 59.5t36 76.5t36 77t26 60q-9 29 -3.5 51.5t19.5 41t34 34t40 30.5q57 42 123 65t134.5 25.5t136.5 -17.5t128 -65q48 -40 56.5 -87t-13.5 -96.5t-68.5 -100.5t-108.5 -100t-134.5 -94.5t-145 -84t-141 -68
t-122 -46.5t-87.5 -20.5t-39 10.5zM500 833q-15 20 -15.5 37t8 29t23.5 17.5t30.5 3t29 -13.5t19.5 -32q9 -22 1.5 -39.5t-24 -25t-36.5 -2.5t-36 26z" />
    <glyph glyph-name="uni1E0B" unicode="&#x1e0b;" horiz-adv-x="544" 
d="M430 23q-38 26 -55 64.5t-25 82.5h-11q-81 -66 -140.5 -99t-100.5 -40.5t-64 6.5t-29.5 40.5t2.5 62.5t31 72.5t57 69.5t80.5 54t101 26.5t119.5 -12.5l11 12l135 271q27 -4 32 -24t-0.5 -44t-16 -46.5t-15.5 -32.5l-11.5 -23t-20 -40.5t-24.5 -49.5t-24.5 -49.5
t-20.5 -41t-11 -22.5q-18 -37 -16.5 -78.5t4.5 -79.5q4 -18 16 -29.5t25.5 -21t27 -18.5t22.5 -22q-4 -13 -16 -13.5t-25 4.5t-24 12t-14 9zM57 68q4 -17 30.5 -10t62.5 29.5t76.5 54.5t73 64t51 59t11.5 40q-31 17 -69 17t-75.5 -13.5t-72 -38t-58 -56.5t-33 -69.5
t2.5 -76.5zM230 494q-15 20 -15.5 37t8 29t23.5 17.5t30.5 3t29 -13.5t19.5 -32q9 -22 1.5 -39.5t-24 -25t-36.5 -2.5t-36 26z" />
    <glyph glyph-name="uni1E1E" unicode="&#x1e1e;" horiz-adv-x="744" 
d="M18 11q-5 14 -2.5 28.5t8.5 29.5t13.5 29t12.5 27q5 10 16.5 35.5t24 54t23.5 54.5t16 36q6 12 -1.5 21.5t-16 18.5t-13 18t7.5 21q7 7 18 9t23 3.5t22 5.5t16 16l114 216q-7 27 -4.5 45t12 31t25 24t35.5 25q103 16 202.5 27t204.5 6q6 -1 15 -8.5t15 -17t5.5 -18.5
t-13.5 -12q-1 0 -6 1.5t-11 3.5t-11 4t-6 2q-80 0 -139 -2t-102.5 -8.5t-75 -19.5t-56 -35.5t-46 -56.5t-44.5 -83q-11 -21 -20 -40q-8 -17 -13 -33.5t-1 -27.5q56 -10 113.5 2t115.5 29t116.5 30.5t117.5 6.5v-23q0 -2 -37 -8.5t-94.5 -18t-126 -28t-131.5 -38.5t-111 -50
t-65 -61q-32 -65 -61 -133.5t-53 -137.5q-6 -9 -16.5 -11t-15.5 11zM517 829q-15 20 -15.5 37t8 29t23.5 17.5t30.5 3t29 -13.5t19.5 -32q9 -22 1.5 -39.5t-24 -25t-36.5 -2.5t-36 26z" />
    <glyph glyph-name="uni1E1F" unicode="&#x1e1f;" horiz-adv-x="470" 
d="M40 23q-2 2 -2 11t2 11l84 193h-95q-3 0 -5.5 4t-4 9.5t-2.5 11t1 8.5q3 1 11 4t17 7t17 7t11 5q3 1 16.5 6t29 10.5t28.5 10.5t16 7q12 8 28.5 39.5t37.5 75.5t46 94.5t54 97t61 83t66.5 52t71.5 4.5t76 -59q7 -10 10 -21.5t1 -23.5q-9 -5 -18 -2t-16.5 10t-13.5 14.5
t-8 11.5q-67 11 -106.5 -5.5t-65 -50t-44.5 -79.5t-44 -95q-7 -12 -16.5 -31l-18.5 -37l-15.5 -31l-6.5 -13v-12q0 -4 25 -6t56.5 -6t61 -11.5t38.5 -21.5l-11 -11q-57 3 -96 2t-68 -13t-51 -38.5t-45 -74.5q-8 -17 -21 -43.5t-26 -52t-22 -44t-10 -19.5l-12 -11
q-3 2 -11.5 10.5t-10.5 12.5zM508 824q-15 20 -15.5 37t8 29t23.5 17.5t30.5 3t29 -13.5t19.5 -32q9 -22 1.5 -39.5t-24 -25t-36.5 -2.5t-36 26z" />
    <glyph glyph-name="uni1E40" unicode="&#x1e40;" horiz-adv-x="1014" 
d="M756 -67q-1 1 -1 5.5t1 6.5t4 12t7 21t7 21t4 13q29 93 51 166.5t42 143.5t39.5 144.5t43.5 169.5v22q-29 10 -62.5 -2t-68.5 -39t-71 -64.5t-70 -79t-66 -82t-59 -74t-48.5 -55t-34.5 -24.5q-9 -2 -22 2.5t-13 9.5v68q3 11 8.5 35t12 54t14 63t14 63t11.5 53.5t8 35.5
q5 23 9.5 45t1.5 46q-30 10 -64 -15.5t-69.5 -74.5t-71.5 -114t-70 -134t-65.5 -136t-57.5 -118.5t-45.5 -82t-30.5 -26.5q-14 4 -10.5 33t19.5 73.5t41 101t54.5 116.5t60.5 120t59 111t49.5 89.5t31.5 56.5q21 -8 37 -5.5t30 10.5t27.5 19t30.5 21q36 22 57 19t30.5 -22
t9.5 -51.5t-5 -70.5t-13.5 -77.5t-16.5 -73t-13.5 -57t-4.5 -29.5q8 -4 13.5 1t9.5 10q3 5 14.5 19t26.5 32.5t32 39.5t32.5 39.5t26.5 32.5t15 19q87 69 147.5 102.5t98 37.5t54.5 -18t18 -62.5t-12 -97t-35 -121.5q-3 -9 -11.5 -37.5t-20.5 -67t-24.5 -81.5t-24.5 -81.5
t-20.5 -67t-11.5 -37.5q0 -1 -2 -13t-6.5 -28.5t-10.5 -35t-15 -33.5t-20.5 -23t-25.5 -3q-1 0 -5 4.5t-5 6.5zM676 816q-15 20 -15.5 37t8 29t23.5 17.5t30.5 3t29 -13.5t19.5 -32q9 -22 1.5 -39.5t-24 -25t-36.5 -2.5t-36 26z" />
    <glyph glyph-name="uni1E41" unicode="&#x1e41;" horiz-adv-x="825" 
d="M622 23q-11 13 -12.5 29.5t2 33t10 32t12.5 28.5q4 10 16.5 36.5t27 55.5t27.5 54.5t18 35.5v22q-10 5 -41 -13.5t-72 -51t-87 -72.5t-86.5 -76.5t-70.5 -65t-38 -37.5q-22 -7 -28.5 9.5t-3.5 46t12 66t18.5 69t17 55.5t6.5 25q-20 7 -42 -5t-45 -35.5t-46 -55l-46 -63
t-44 -60t-40 -46.5t-35.5 -21t-28.5 15q-1 1 -1 5t1 6q5 10 15.5 31.5t23.5 48.5t28 56.5t28.5 56t24 47.5t16.5 31q5 10 14 25.5t18 30t16 25l7 10.5h24q7 -23 -2 -43t-21.5 -39t-21 -37.5t-0.5 -39.5q86 76 132.5 112t65.5 41t18 -15t-8.5 -54t-15 -77.5t-1.5 -84.5h12
q6 4 20 15t30.5 24t31 24t20.5 15q11 9 32 25t42.5 32.5t39 29t22.5 15.5q4 3 17.5 12.5t30 20.5t31.5 20.5t22 14.5q15 10 28 9t21.5 -9.5t10.5 -23t-4 -32.5q-24 -45 -47.5 -88t-43 -86.5t-32 -89.5t-13.5 -98q-5 -3 -10.5 0t-10.5 8t-8.5 10zM457 512q-15 20 -15.5 37
t8 29t23.5 17.5t30.5 3t29 -13.5t19.5 -32q9 -22 1.5 -39.5t-24 -25t-36.5 -2.5t-36 26z" />
    <glyph glyph-name="uni1E56" unicode="&#x1e56;" 
d="M23 23q-8 16 -1 44t20.5 58t28.5 58t23 46q3 6 4.5 10t3 9t3.5 11t7 17q6 13 19.5 40.5t30.5 62t35.5 72.5t35 72.5t30 62t19.5 40.5v23q-18 3 -35 -2t-32.5 -14t-30 -20.5t-26.5 -20.5q-14 3 -16 13t2 21t11.5 20.5t13.5 13.5q104 65 223 86.5t241 3.5q74 -37 101 -78.5
t19.5 -84.5t-44 -85t-90 -80.5t-118 -71.5t-128 -57t-120.5 -37.5t-95 -13.5q-19 -30 -31 -49.5t-19 -34t-11.5 -27t-9 -28t-11.5 -37.5t-19 -55l-11 -11q-4 2 -12.5 10.5t-10.5 12.5zM192 299q42 -7 89 2.5t93.5 27.5t89.5 40.5t78 41.5q84 47 125.5 91.5t50.5 83
t-8.5 68.5t-52 48.5t-80 23.5t-92 -7t-88.5 -43t-70 -84q-10 -19 -24 -46.5t-29 -57.5t-30 -59.5t-26.5 -53t-18.5 -38.5t-7 -16v-22zM409 818q-15 20 -15.5 37t8 29t23.5 17.5t30.5 3t29 -13.5t19.5 -32q9 -22 1.5 -39.5t-24 -25t-36.5 -2.5t-36 26z" />
    <glyph glyph-name="uni1E57" unicode="&#x1e57;" horiz-adv-x="542" 
d="M-90 -350q-9 56 5.5 113.5t38 114.5t47.5 113.5t33 110.5q0 2 8.5 12t19 21.5t19 22t9.5 12.5q16 35 32.5 64.5t25.5 57.5t8 55.5t-20 59.5q-2 2 -2 6t2 5q29 37 67 62t81 40t89 20t91 2q38 -32 48.5 -72.5t1 -84t-35 -87.5t-58.5 -82t-69.5 -68t-68.5 -46
q-29 -14 -42.5 -18.5t-26.5 -5.5t-31.5 -2t-56.5 -8q-17 -3 -28.5 -15.5t-19 -28t-12 -32t-8.5 -26.5q-18 -44 -32.5 -81.5t-28 -74t-26.5 -75.5t-27 -85q-2 -5 -7 -8.5t-10.5 -4t-10 2t-5.5 10.5zM136 113q46 -9 89.5 5t81.5 43.5t68.5 71t51.5 87.5t31 92.5t6 85.5
q-14 12 -33.5 12.5t-34.5 -1.5q-54 -7 -85 -27.5t-50.5 -51.5t-33.5 -71.5t-34 -87.5q-4 -7 -12 -24.5t-17 -37t-17 -37.5t-11 -25v-34zM284 615q-15 20 -15.5 37t8 29t23.5 17.5t30.5 3t29 -13.5t19.5 -32q9 -22 1.5 -39.5t-24 -25t-36.5 -2.5t-36 26z" />
    <glyph glyph-name="uni1E60" unicode="&#x1e60;" horiz-adv-x="614" 
d="M91 11q-5 2 -23.5 11t-34.5 21t-22.5 25t12.5 22q11 -10 30.5 -24t37.5 -21q55 -3 107 -0.5t101.5 13t96 32t90.5 56.5q49 41 64.5 75.5t6 64t-39 55t-70 48t-86.5 42t-88 38t-76 36.5t-50 37q-4 17 17 40t58 47.5t85 49t98.5 44.5t98 34t83.5 17.5t55 -5.5t13 -34
q-7 -1 -36 -9t-70.5 -20t-90 -28t-95.5 -33.5t-87 -35.5t-63 -35t-25.5 -31t26.5 -24q146 -44 229.5 -93.5t117.5 -100t26 -99.5t-43.5 -91t-92.5 -74.5t-120.5 -50.5t-127 -19t-112.5 20zM320 777q-15 20 -15.5 37t8 29t23.5 17.5t30.5 3t29 -13.5t19.5 -32
q9 -22 1.5 -39.5t-24 -25t-36.5 -2.5t-36 26z" />
    <glyph glyph-name="uni1E61" unicode="&#x1e61;" horiz-adv-x="396" 
d="M29 11q-12 8 -0.5 21.5t37 29t59.5 32.5t65.5 32t55.5 26.5t31 17.5q33 28 34.5 46.5t-16.5 30t-50.5 18t-67 12t-66 11.5t-47.5 16t-10.5 26.5t43.5 42.5q14 10 41 29t58.5 39t62.5 36t52 21q11 2 22.5 -2t18.5 -11.5t6.5 -16.5t-13.5 -16q-57 -32 -109.5 -60
t-105.5 -64q-3 -8 1.5 -14t10.5 -9q106 -11 159.5 -31t68 -44t-3.5 -51t-53.5 -53t-81.5 -49t-88.5 -39t-74.5 -24t-39 -3zM174 522q-15 20 -15.5 37t8 29t23.5 17.5t30.5 3t29 -13.5t19.5 -32q9 -22 1.5 -39.5t-24 -25t-36.5 -2.5t-36 26z" />
    <glyph glyph-name="uni1E6A" unicode="&#x1e6a;" horiz-adv-x="558" 
d="M175 11q-6 25 0.5 57.5t18.5 65.5t26 63.5t23 50.5q5 12 15.5 35t24 52t28 61t28 61t24 51.5t15.5 33.5q-17 3 -48.5 -3t-69.5 -15.5l-78 -19.5t-74.5 -14.5t-59 -1t-30.5 20.5q7 13 51 30t112.5 35.5t153 37.5t172.5 36t172 31t150 23t106.5 12t42.5 -2q3 -8 1 -19.5
t-13 -14.5q-49 -8 -106 -17.5t-115.5 -20t-114.5 -21t-104 -20.5q-31 -6 -60 -36t-56 -74.5t-52 -99t-47.5 -110.5t-41.5 -108t-35 -91.5t-28 -61.5t-20 -18l-6 6zM380 731q-15 20 -15.5 37t8 29t23.5 17.5t30.5 3t29 -13.5t19.5 -32q9 -22 1.5 -39.5t-24 -25t-36.5 -2.5
t-36 26z" />
    <glyph glyph-name="uni1E6B" unicode="&#x1e6b;" horiz-adv-x="430" 
d="M91 11q-1 2 -1 11t1 12q3 11 11 38.5t17 58t17 57.5t11 38q4 14 9 32.5t2 35.5q-15 2 -37 -3.5t-43.5 -9t-40 0t-26.5 23.5q12 25 36 32.5t52 10.5t53.5 9t40.5 27q9 26 21.5 63.5t26.5 78.5t30.5 81t34.5 71q11 7 18 1t10.5 -17.5t4.5 -23.5t0 -16q-6 -26 -20.5 -55.5
t-27 -59.5t-20 -60t-0.5 -57h215q1 0 5 -6.5t7 -10.5q5 -14 -11 -19t-43 -6.5t-61.5 -2t-66 -5t-56.5 -15t-34 -31.5q-26 -67 -48 -134.5t-42 -136.5q-2 -3 -8 -9.5t-13 -11t-13.5 -3.5t-10.5 12zM273 763q-15 20 -15.5 37t8 29t23.5 17.5t30.5 3t29 -13.5t19.5 -32
q9 -22 1.5 -39.5t-24 -25t-36.5 -2.5t-36 26z" />
    <glyph glyph-name="Wgrave" unicode="&#x1e80;" horiz-adv-x="702" 
d="M46 11q-13 19 -19.5 63t-8 102t1.5 126t9 135t15.5 129t20.5 108.5t23 72.5t25 22q2 -2 6.5 -6t5.5 -6q1 -11 -2 -41.5t-8.5 -73t-12 -93.5t-13.5 -103.5t-13 -102t-9.5 -89t-3.5 -65.5t5 -31l11 -12q15 7 31 36.5t32.5 72t34 93.5t35 100.5t34.5 93.5t34 72t33 35.5
t30.5 -15t28 -79.5t24.5 -159q0 -5 5 -31.5t12.5 -61t17.5 -70t21 -59t23 -28t23 23.5q3 8 13.5 34t24.5 61t29.5 74t29.5 74t24.5 61t14.5 35q4 10 13 36t22.5 58.5t30.5 67.5t36 62.5t39.5 42.5t41.5 8q2 0 6 -4.5t4 -6.5q-62 -80 -102.5 -160t-71 -163.5t-58 -170
t-63.5 -177.5q-15 -39 -31.5 -45t-32.5 11.5t-31.5 52.5t-29.5 78.5t-26 89.5t-21 85.5t-14.5 67l-6.5 32.5q-2 8 -3.5 19t-3.5 22q-2 12 -4 27h-11q-1 0 -12 -20.5t-25.5 -49t-29.5 -59.5t-24 -51q-5 -10 -15.5 -46.5t-25.5 -83.5t-32.5 -96t-36 -84.5t-37 -49.5t-33.5 9z
M440 778q-14 24 -29 34t-26.5 18t-17 21t0.5 43q22 2 44 -13t40.5 -36t30 -43.5t12.5 -36t-12 -13t-43 25.5z" />
    <glyph glyph-name="wgrave" unicode="&#x1e81;" horiz-adv-x="746" 
d="M334 11q-20 15 -31 39t-16.5 51t-7.5 54t-2 48q-2 2 -5.5 2t-5.5 -2q-25 -18 -48 -43t-45.5 -51t-44 -51.5t-43.5 -46.5q-14 -5 -29 -2.5t-25.5 10t-15 20t2.5 29.5q19 61 41.5 129.5t47.5 130.5q9 22 19.5 24t18.5 -8t11 -27.5t-3 -34.5q-3 -8 -11 -28.5t-17 -44
t-17 -44.5t-11 -29v-34q31 28 52 50t39.5 44.5t38.5 48t50 60.5q23 27 36 29.5t19.5 -11t7.5 -39t0.5 -55t-2.5 -59t-1.5 -51t4.5 -31t15 1.5q12 19 35 55t52 79.5t63.5 88t70.5 80t72 56t69 15.5q1 -4 -11.5 -22t-33 -42.5t-45 -53t-48 -54.5t-41.5 -47t-25 -31
q-3 -4 -12.5 -17.5t-22 -32t-27 -39.5t-27.5 -40t-22.5 -33t-12.5 -18q-9 -13 -15 -21t-11.5 -11t-12.5 -1t-17 10zM372 428q-14 24 -29 34t-26.5 18t-17 21t0.5 43q22 2 44 -13t40.5 -36t30 -43.5t12.5 -36t-12 -13t-43 25.5z" />
    <glyph glyph-name="Wacute" unicode="&#x1e82;" horiz-adv-x="702" 
d="M46 11q-13 19 -19.5 63t-8 102t1.5 126t9 135t15.5 129t20.5 108.5t23 72.5t25 22q2 -2 6.5 -6t5.5 -6q1 -11 -2 -41.5t-8.5 -73t-12 -93.5t-13.5 -103.5t-13 -102t-9.5 -89t-3.5 -65.5t5 -31l11 -12q15 7 31 36.5t32.5 72t34 93.5t35 100.5t34.5 93.5t34 72t33 35.5
t30.5 -15t28 -79.5t24.5 -159q0 -5 5 -31.5t12.5 -61t17.5 -70t21 -59t23 -28t23 23.5q3 8 13.5 34t24.5 61t29.5 74t29.5 74t24.5 61t14.5 35q4 10 13 36t22.5 58.5t30.5 67.5t36 62.5t39.5 42.5t41.5 8q2 0 6 -4.5t4 -6.5q-62 -80 -102.5 -160t-71 -163.5t-58 -170
t-63.5 -177.5q-15 -39 -31.5 -45t-32.5 11.5t-31.5 52.5t-29.5 78.5t-26 89.5t-21 85.5t-14.5 67l-6.5 32.5q-2 8 -3.5 19t-3.5 22q-2 12 -4 27h-11q-1 0 -12 -20.5t-25.5 -49t-29.5 -59.5t-24 -51q-5 -10 -15.5 -46.5t-25.5 -83.5t-32.5 -96t-36 -84.5t-37 -49.5t-33.5 9z
M356 791q-33 -24 -46.5 -24t-12 14.5t15 37.5t34 45t45.5 37t49 14q6 -30 -0.5 -44t-20 -23.5t-31.5 -21t-33 -35.5z" />
    <glyph glyph-name="wacute" unicode="&#x1e83;" horiz-adv-x="746" 
d="M334 11q-20 15 -31 39t-16.5 51t-7.5 54t-2 48q-2 2 -5.5 2t-5.5 -2q-25 -18 -48 -43t-45.5 -51t-44 -51.5t-43.5 -46.5q-14 -5 -29 -2.5t-25.5 10t-15 20t2.5 29.5q19 61 41.5 129.5t47.5 130.5q9 22 19.5 24t18.5 -8t11 -27.5t-3 -34.5q-3 -8 -11 -28.5t-17 -44
t-17 -44.5t-11 -29v-34q31 28 52 50t39.5 44.5t38.5 48t50 60.5q23 27 36 29.5t19.5 -11t7.5 -39t0.5 -55t-2.5 -59t-1.5 -51t4.5 -31t15 1.5q12 19 35 55t52 79.5t63.5 88t70.5 80t72 56t69 15.5q1 -4 -11.5 -22t-33 -42.5t-45 -53t-48 -54.5t-41.5 -47t-25 -31
q-3 -4 -12.5 -17.5t-22 -32t-27 -39.5t-27.5 -40t-22.5 -33t-12.5 -18q-9 -13 -15 -21t-11.5 -11t-12.5 -1t-17 10zM371 430q-33 -24 -46.5 -24t-12 14.5t15 37.5t34 45t45.5 37t49 14q6 -30 -0.5 -44t-20 -23.5t-31.5 -21t-33 -35.5z" />
    <glyph glyph-name="Wdieresis" unicode="&#x1e84;" horiz-adv-x="702" 
d="M46 11q-13 19 -19.5 63t-8 102t1.5 126t9 135t15.5 129t20.5 108.5t23 72.5t25 22q2 -2 6.5 -6t5.5 -6q1 -11 -2 -41.5t-8.5 -73t-12 -93.5t-13.5 -103.5t-13 -102t-9.5 -89t-3.5 -65.5t5 -31l11 -12q15 7 31 36.5t32.5 72t34 93.5t35 100.5t34.5 93.5t34 72t33 35.5
t30.5 -15t28 -79.5t24.5 -159q0 -5 5 -31.5t12.5 -61t17.5 -70t21 -59t23 -28t23 23.5q3 8 13.5 34t24.5 61t29.5 74t29.5 74t24.5 61t14.5 35q4 10 13 36t22.5 58.5t30.5 67.5t36 62.5t39.5 42.5t41.5 8q2 0 6 -4.5t4 -6.5q-62 -80 -102.5 -160t-71 -163.5t-58 -170
t-63.5 -177.5q-15 -39 -31.5 -45t-32.5 11.5t-31.5 52.5t-29.5 78.5t-26 89.5t-21 85.5t-14.5 67l-6.5 32.5q-2 8 -3.5 19t-3.5 22q-2 12 -4 27h-11q-1 0 -12 -20.5t-25.5 -49t-29.5 -59.5t-24 -51q-5 -10 -15.5 -46.5t-25.5 -83.5t-32.5 -96t-36 -84.5t-37 -49.5t-33.5 9z
M299 787q-14 21 -7.5 42t22.5 32.5t35 9t30 -27.5q6 -15 -2 -31.5t-22 -27t-30 -11.5t-26 14zM443 792q-15 21 -8 42t23 32.5t35 9t29 -27.5q6 -15 -2 -31.5t-22 -27t-29.5 -11.5t-25.5 14z" />
    <glyph glyph-name="wdieresis" unicode="&#x1e85;" horiz-adv-x="746" 
d="M334 11q-20 15 -31 39t-16.5 51t-7.5 54t-2 48q-2 2 -5.5 2t-5.5 -2q-25 -18 -48 -43t-45.5 -51t-44 -51.5t-43.5 -46.5q-14 -5 -29 -2.5t-25.5 10t-15 20t2.5 29.5q19 61 41.5 129.5t47.5 130.5q9 22 19.5 24t18.5 -8t11 -27.5t-3 -34.5q-3 -8 -11 -28.5t-17 -44
t-17 -44.5t-11 -29v-34q31 28 52 50t39.5 44.5t38.5 48t50 60.5q23 27 36 29.5t19.5 -11t7.5 -39t0.5 -55t-2.5 -59t-1.5 -51t4.5 -31t15 1.5q12 19 35 55t52 79.5t63.5 88t70.5 80t72 56t69 15.5q1 -4 -11.5 -22t-33 -42.5t-45 -53t-48 -54.5t-41.5 -47t-25 -31
q-3 -4 -12.5 -17.5t-22 -32t-27 -39.5t-27.5 -40t-22.5 -33t-12.5 -18q-9 -13 -15 -21t-11.5 -11t-12.5 -1t-17 10zM272 426q-14 21 -7.5 42t22.5 32.5t35 9t30 -27.5q6 -15 -2 -31.5t-22 -27t-30 -11.5t-26 14zM416 431q-15 21 -8 42t23 32.5t35 9t29 -27.5q6 -15 -2 -31.5
t-22 -27t-29.5 -11.5t-25.5 14z" />
    <glyph glyph-name="Ygrave" unicode="&#x1ef2;" horiz-adv-x="402" 
d="M56 -128q-12 30 -3 63t29 69.5t47 75.5t51 80.5t40 85.5t16 89q-4 9 -18 30.5t-33 50l-41 61.5t-42.5 64.5t-37 60t-24.5 47.5t-5 26.5t21 -1.5q14 -13 35 -41.5t43.5 -64t46 -73t43.5 -67t35 -47t22 -12.5q10 20 29.5 63.5t42.5 95t47.5 103t46 87.5t38 48.5t22.5 -13.5
q4 -15 -9 -52.5t-37 -90t-56.5 -117t-68 -133.5t-71 -138.5t-66.5 -133t-54 -116.5t-33 -89q-3 -10 -9.5 -19.5t-14.5 -13.5t-16.5 0.5t-15.5 21.5zM266 795q-14 24 -29 34t-26.5 18t-17 21t0.5 43q22 2 44 -13t40.5 -36t30 -43.5t12.5 -36t-12 -13t-43 25.5z" />
    <glyph glyph-name="ygrave" unicode="&#x1ef3;" horiz-adv-x="441" 
d="M-170 -384q-9 14 0.5 43.5t27 61t36 59t27.5 39.5q8 11 24.5 33l37.5 50t44.5 59t44.5 58.5t38 49.5t25 33q8 9 0 28t-24.5 44.5t-37 56t-37 62t-25 62.5t-0.5 58q11 8 24 -9.5t27.5 -48t30.5 -67t31 -66t29.5 -46.5t27.5 -7q26 19 51 48.5t48 61.5t43.5 62.5t38.5 53.5
q7 9 13.5 12.5t20.5 -1.5q11 -4 -4 -35t-47 -80t-76.5 -111.5t-94 -130t-99 -134.5t-91 -124.5t-71 -101t-38.5 -63.5q-4 -9 -8.5 -18t-12.5 -15q-2 1 -5.5 4t-7 6.5l-7 7t-4.5 5.5zM252 490q-14 24 -29 34t-26.5 18t-17 21t0.5 43q22 2 44 -13t40.5 -36t30 -43.5t12.5 -36
t-12 -13t-43 25.5z" />
    <glyph glyph-name="endash" unicode="&#x2013;" horiz-adv-x="506" 
d="M35 204q-2 1 -6 5t-5 6q1 4 33 11t80 14t104 12t104.5 6.5t83 -3t38.5 -17.5q2 -2 2 -11t-2 -12q-28 -2 -76 -5t-100.5 -6t-100.5 -6t-76 -5q-25 -2 -41 -1t-38 12z" />
    <glyph glyph-name="emdash" unicode="&#x2014;" horiz-adv-x="682" 
d="M43 208q-2 1 -6 5t-5 6q1 3 26 8.5t65.5 11.5t92 12t105.5 10.5t106 7.5t94 2.5t68.5 -4.5t29.5 -14q2 -2 2 -11t-2 -12q-18 -1 -57 -3.5t-88 -6t-103 -7t-103 -7t-88 -6t-58 -3.5q-24 -2 -40.5 -1t-38.5 12z" />
    <glyph glyph-name="quoteleft" unicode="&#x2018;" horiz-adv-x="169" 
d="M45 486q0 1 2.5 10t6.5 19.5t7.5 21.5t5.5 17q11 30 19 36.5t12.5 -2t5.5 -28.5t-1 -44.5t-6.5 -49t-12 -42t-17.5 -23.5t-22 6q-1 4 -1.5 15t-0.5 24t0.5 24t1.5 16z" />
    <glyph glyph-name="quoteright" unicode="&#x2019;" horiz-adv-x="180" 
d="M59 486q0 1 2.5 10t6 19.5t7.5 21.5t6 17q15 40 24 40t12 -22t0.5 -56.5t-10 -64t-19.5 -45.5t-29 1q0 4 -0.5 15t-0.5 24t0.5 24t0.5 16z" />
    <glyph glyph-name="quotesinglbase" unicode="&#x201a;" horiz-adv-x="125" 
d="M37 -54q-3 22 -2.5 39.5t3.5 34t8 34t13 40.5q11 30 18.5 36.5t12 -2t6 -29t-0.5 -45t-6.5 -49t-12 -42t-17.5 -23.5t-22 6z" />
    <glyph glyph-name="quotedblleft" unicode="&#x201c;" horiz-adv-x="274" 
d="M173 409q-2 4 -6.5 12.5t-4.5 9.5v170q19 9 29.5 -1t14.5 -30.5t3 -48.5t-5 -53.5t-9.5 -45t-10.5 -24.5q-2 0 -6 4.5t-5 6.5zM60 431q-5 14 -7.5 35t-4 43.5t-1.5 44t1 35.5q0 17 7 12.5t16 -16.5t16 -26t7 -15q1 -13 1 -33.5v-40.5v-34.5t-1 -15.5l-12 -11
q-4 1 -12 9.5t-10 12.5z" />
    <glyph glyph-name="quotedblright" unicode="&#x201d;" horiz-adv-x="277" 
d="M182 409q-2 4 -6.5 12.5t-4.5 9.5v170q19 9 29.5 -1t15 -30.5t3 -48.5t-5 -53.5t-9 -45t-10.5 -24.5q-2 0 -6.5 4.5t-5.5 6.5zM70 431q-5 14 -7.5 35t-4 43.5t-1.5 44t1 35.5q0 17 7 12.5t15.5 -16.5t15.5 -26t7 -15q1 -13 1.5 -33.5t0.5 -40.5t-0.5 -34.5t-1.5 -15.5
l-11 -11q-4 1 -12.5 9.5t-9.5 12.5z" />
    <glyph glyph-name="quotedblbase" unicode="&#x201e;" horiz-adv-x="220" 
d="M159 -96q-2 4 -7 12.5t-5 9.5v170q19 10 30 -0.5t15 -31t3 -48.5t-5 -53.5t-9.5 -45t-10.5 -24.5q-2 1 -6 5t-5 6zM46 -74q-5 14 -7.5 35t-4 43.5t-1.5 44t1 35.5q0 17 7 13t15.5 -16.5t15.5 -26.5t7 -15q1 -13 1.5 -33.5t0.5 -40t-0.5 -34t-1.5 -15.5l-11 -12
q-4 2 -12.5 10.5t-9.5 11.5z" />
    <glyph glyph-name="dagger" unicode="&#x2020;" horiz-adv-x="538" 
d="M58 406q-12 12 -0.5 23t39 20.5t66.5 16.5t82 12q1 35 2 62.5t2 35.5q0 2 1.5 12.5t4 23.5t6.5 27t9 22t11 8t13 -14q2 -44 1.5 -86.5t-1.5 -86.5q44 3 84.5 1.5t70.5 -8t44.5 -18t5.5 -29.5q-10 0 -36 -2t-54.5 -3.5t-54.5 -3.5t-36 -2l-12 -2t-13 -2q-5 -101 -9 -201
t-2 -201q-6 -13 -15.5 -11.5t-17.5 11.5q-2 2 -6.5 11t-4.5 12q0 13 -0.5 45t-0.5 68t0.5 68t0.5 45q0 11 1 51.5t3 90.5q-26 -6 -52.5 -11.5t-51.5 -6.5t-46 3.5t-34 18.5z" />
    <glyph glyph-name="daggerdbl" unicode="&#x2021;" horiz-adv-x="498" 
d="M110 423q-3 16 7 25t28.5 12t44 1t54.5 -8q2 43 6 77t5 44q0 3 2.5 14.5t8 20t13.5 8t19 -21.5q4 -20 6.5 -34.5t3.5 -29.5t0.5 -34t-1.5 -48q82 11 114.5 -3t16.5 -45q-3 -3 -15 -5.5t-30 -4t-40.5 -1.5h-47.5q-2 -13 -2.5 -26t-1.5 -26h6q9 0 27.5 0.5t39.5 0.5
t40 -0.5t28 -0.5q0 -33 -14.5 -42t-35.5 -6.5t-46.5 9.5t-47.5 5q-5 -53 -7.5 -102.5t-3.5 -89.5t0.5 -67t3.5 -34q0 -2 -8 -1.5t-18 1.5t-18.5 2.5t-8.5 2.5q0 8 -0.5 27.5t-0.5 43.5v51v51t0.5 43t0.5 28v42q-29 -1 -54 -8t-43 -10t-28 2.5t-10 30.5q0 10 12 15.5
t31.5 7.5t44 1.5t49.5 -1.5q0 13 0.5 26t1.5 28q-25 1 -47.5 3.5t-40.5 6.5t-29.5 8.5t-14.5 10.5z" />
    <glyph glyph-name="bullet" unicode="&#x2022;" horiz-adv-x="322" 
d="M95 235q-19 27 -18.5 54t13 49.5t34.5 38t45.5 18.5t45.5 -9t35 -44q12 -29 -3.5 -59.5t-43 -50t-58.5 -22t-50 24.5z" />
    <glyph glyph-name="ellipsis" unicode="&#x2026;" horiz-adv-x="440" 
d="M34 11q-14 21 -7.5 42.5t22.5 33t35 9t29 -27.5q6 -15 -1.5 -31.5t-21.5 -27t-30 -12t-26 13.5zM181 11q-15 21 -8 42.5t23 33t35 9t29 -27.5q6 -15 -2 -31.5t-22 -27t-29.5 -12t-25.5 13.5zM328 11q-15 21 -8.5 42.5t22.5 33t35 9t29 -27.5q6 -15 -2 -31.5t-21.5 -27
t-29 -12t-25.5 13.5z" />
    <glyph glyph-name="guilsinglleft" unicode="&#x2039;" horiz-adv-x="464" 
d="M396 11q-81 54 -163 107.5t-154 119.5q-16 14 -32.5 28.5t-26 29.5t-8 31.5t21.5 34.5q9 8 27.5 24.5t42 38t49.5 44.5t49 44.5t41.5 38t27.5 24.5q5 2 14 0t16.5 -6.5t10 -11.5t-5.5 -16l-215 -214q-11 -11 2 -29t34 -36t41.5 -32t24.5 -17q13 -9 46.5 -31.5t71.5 -47.5
t71.5 -47.5t47.5 -30.5q10 -13 12 -25.5t-3.5 -20.5t-16.5 -9t-26 9z" />
    <glyph glyph-name="guilsinglright" unicode="&#x203a;" horiz-adv-x="345" 
d="M39 23q-10 19 4 43t40 51t58 56t59 57.5t43.5 56t10.5 52.5q-1 2 -19 16.5t-43.5 35.5t-55.5 45.5t-54.5 47.5t-40 42t-13.5 28q1 4 9.5 12.5t12.5 9.5q21 -16 54.5 -37.5t68.5 -46t67 -52t51 -57t20.5 -61t-24.5 -62.5q-8 -10 -23 -28.5t-33.5 -40.5t-38 -45t-37 -43.5
t-30.5 -36t-18 -21.5q-2 -3 -8.5 -9.5l-13.5 -13.5l-13.5 -13.5t-9.5 -8.5q-3 2 -12 10.5t-11 12.5z" />
    <glyph glyph-name="fraction" unicode="&#x2044;" horiz-adv-x="310" 
d="M23 11q-6 38 3.5 91.5t29.5 114t47 124.5t55.5 124t55 112.5t46.5 89.5q11 7 18 3t11 -12.5t5 -19t0 -16.5q-6 -13 -20.5 -45t-30.5 -68t-30.5 -68t-19.5 -45q-5 -10 -14.5 -34.5t-20.5 -51.5t-20.5 -51t-12.5 -33q-5 -14 -12 -42.5t-16 -61t-19 -63t-21 -48.5
q-3 -3 -8 -6.5t-10 -5t-10 1t-6 10.5z" />
    <glyph glyph-name="Euro" unicode="&#x20ac;" horiz-adv-x="708" 
d="M182 11q-61 24 -82.5 71t-15 108t37 131.5t74.5 142t96 140t102 125t93 97t69 56.5q48 29 83.5 24.5t59 -27t36 -55t16 -60.5t-1.5 -44t-17 -4q-2 12 -12 32.5t-24 41.5t-30.5 37.5t-30.5 19.5q-29 7 -67 -12.5t-80.5 -57.5t-87 -91.5t-86 -114t-78 -125.5t-62.5 -125.5
t-39.5 -114t-9 -91.5t29 -57.5t74.5 -12.5q56 8 105.5 19.5t96 26t92 32t95.5 37.5q18 7 28.5 -5t5.5 -29q-6 -17 -36 -35t-74 -34t-96.5 -29t-103 -20t-93.5 -7t-67 10zM21 290q-6 9 7.5 16.5t38 14t54.5 11t57 8t46 5t22 1.5q9 0 30 0.5t44 0.5t44 -0.5t30 -0.5
q5 -3 9.5 -9t1.5 -14q-37 -5 -85.5 -12.5t-96.5 -16t-90.5 -16t-66.5 -11.5q-18 -3 -26 1.5t-19 21.5zM77 515q6 12 28.5 22t53.5 16.5t66.5 8.5t67.5 -1t56 -11.5t33 -23.5q-4 -4 -27 -9t-55.5 -9.5t-70 -7.5t-70 -2.5t-55.5 4.5t-27 13z" />
    <glyph glyph-name="trademark" unicode="&#x2122;" horiz-adv-x="1571" 
d="M1194 -46q-1 0 -1 5t1 7q0 2 3.5 12t7 21t7 21t4.5 13q29 93 54.5 164.5t49 139.5t46 140.5t46.5 167.5q1 3 1 11.5t-1 10.5q-29 10 -65 -8t-75.5 -54t-81 -85.5t-81.5 -103.5t-77.5 -106.5t-68.5 -95t-55.5 -70t-37.5 -30.5q-8 -2 -21.5 2.5t-13.5 9.5v68q3 11 8.5 35
t12 54t14 63t14 63t12 53.5t7.5 35.5q5 23 10 45t1 46q-43 -16 -82.5 -50t-75 -79t-67.5 -97t-60 -102.5t-51 -96t-42 -78t-32.5 -48t-21.5 -5.5q-17 5 -11.5 35t24.5 75t48 99.5t61 109.5t62 105.5t52 86.5q-24 3 -45 8.5t-43 9.5t-48 4.5t-61 -6.5q-31 -6 -59.5 -34.5
t-55.5 -70.5t-51.5 -93t-46 -103t-40.5 -100.5t-34.5 -85t-27.5 -57t-20 -16.5l-6 6l-5 5q-6 25 0.5 57.5t18.5 65.5t26 63.5t23 50.5q5 12 15.5 35t24 52t28 61t28 61t24 51.5t15.5 33.5q-17 3 -48.5 -3t-69.5 -15.5l-78 -19.5t-74.5 -14.5t-59 -1t-30.5 20.5
q7 13 43.5 26.5t91.5 26t124 24t139.5 20.5t138 16t120.5 10t86 2.5t35 -5.5q2 -4 4.5 -15t5.5 -23q16 8 31 20t33 23q36 22 57 19t30.5 -22t10 -51.5t-5 -70.5t-14 -77.5t-16.5 -73t-13.5 -57t-4.5 -29.5q9 -4 14 1t9 10q3 5 14.5 19t26.5 32.5t32 39.5t32.5 39.5
t26.5 32.5t15 19l19 19l33 33t35.5 35t26.5 26q77 72 128 109.5t81.5 48t43 -3t12 -44.5t-11 -75.5t-26.5 -95.5t-35 -105.5t-35 -105.5q-5 -14 -15 -46t-21 -68t-21 -68.5l-14 -45.5q0 -2 -5 -25.5t-14.5 -50.5t-24.5 -47t-35 -13q-2 1 -6.5 5t-4.5 7z" />
    <glyph glyph-name="minus" unicode="&#x2212;" horiz-adv-x="302" 
d="M43 313q-10 10 5.5 16t44 8t63 1t63.5 -5.5t46 -11.5t9 -16q-5 -2 -34.5 -8t-67 -8.5t-74 2t-55.5 22.5z" />
    <glyph glyph-name="fi" unicode="&#xfb01;" horiz-adv-x="538" 
d="M40 23q-2 2 -2 11t2 11l84 193h-95q-3 0 -5.5 4t-4 9.5t-2.5 11t1 8.5q3 1 11 4t17 7t17 7t11 5q3 1 16.5 6t29 10.5t28.5 10.5t16 7q12 8 28.5 39.5t37.5 75.5t46 94.5t54 97t61 83t66.5 52t71.5 4.5t76 -59q7 -10 10 -21.5t1 -23.5q-9 -5 -18 -2t-16.5 10t-13.5 14.5
t-8 11.5q-67 11 -106.5 -5.5t-65 -50t-44.5 -79.5t-44 -95q-7 -12 -16.5 -31l-18.5 -37l-15.5 -31l-6.5 -13v-12q0 -4 25 -6t56.5 -6t61 -11.5t38.5 -21.5l-11 -11q-57 3 -96 2t-68 -13t-51 -38.5t-45 -74.5q-8 -17 -21 -43.5t-26 -52t-22 -44t-10 -19.5l-12 -11
q-3 2 -11.5 10.5t-10.5 12.5zM281 -22q41 132 74.5 209.5t56 108.5t30.5 20t-1.5 -56t-40 -120.5t-85.5 -172.5q-8 -3 -19 -1t-15 12zM456 459q-2 5 -2 18t2 16q23 8 35 2t15 -17.5t-0.5 -24.5t-11.5 -19.5t-18.5 -2t-19.5 27.5z" />
    <glyph glyph-name="fl" unicode="&#xfb02;" horiz-adv-x="649" 
d="M40 23q-2 2 -2 11t2 11l84 193h-95q-3 0 -5.5 4t-4 9.5t-2.5 11t1 8.5q3 1 11 4t17 7t17 7t11 5q3 1 16.5 6t29 10.5t28.5 10.5t16 7q12 8 28.5 39.5t37.5 75.5t46 94.5t54 97t61 83t66.5 52t71.5 4.5t76 -59q7 -10 10 -21.5t1 -23.5q-9 -5 -18 -2t-16.5 10t-13.5 14.5
t-8 11.5q-67 11 -106.5 -5.5t-65 -50t-44.5 -79.5t-44 -95q-7 -12 -16.5 -31l-18.5 -37l-15.5 -31l-6.5 -13v-12q0 -4 25 -6t56.5 -6t61 -11.5t38.5 -21.5l-11 -11q-57 3 -96 2t-68 -13t-51 -38.5t-45 -74.5q-8 -17 -21 -43.5t-26 -52t-22 -44t-10 -19.5l-12 -11
q-3 2 -11.5 10.5t-10.5 12.5zM394 8q-29 21 -37.5 53t-2.5 69.5t21.5 77.5t34 77t36 68t27.5 51l14.5 29t24.5 50t24.5 50.5t14.5 29.5q3 5 8.5 19.5t12.5 31.5t15.5 32.5t18 22.5t19 2t18.5 -30q-4 -10 -19.5 -40t-36.5 -72l-46.5 -93t-49.5 -103t-45 -101.5t-34.5 -90
t-16 -67t9.5 -32.5q14 -7 36.5 -5.5t46.5 5.5t47 8.5t40 3.5q4 -9 -6 -17.5t-28 -15t-41.5 -11t-45 -6.5t-38 -1t-22.5 5z" />
  </font>
</defs>
</svg>
